<svg width="507" height="488" viewBox="0 0 507 488" fill="none" xmlns="http://www.w3.org/2000/svg">
<path d="M398.983 453.091V447.059C396.594 449.836 395.14 453.442 395.14 457.393C395.14 465.739 401.586 472.565 409.769 473.199C408.477 470.231 407.75 466.961 407.75 463.518C407.75 463.511 407.752 463.505 407.752 463.497C402.789 462.633 398.983 458.29 398.983 453.091Z" fill="black"/>
<path d="M398.983 453.091C398.983 458.29 402.789 462.633 407.751 463.498C407.758 454.885 412.264 447.34 419.032 443.036V440.409L418.029 436.009H398.983V438.44V447.059V453.091Z" fill="black"/>
<path d="M414.604 420.988H395.559L398.983 436.009H418.029L414.604 420.988Z" fill="black"/>
<path d="M234.325 457.393C234.325 464.772 229.281 470.957 222.458 472.733C223.626 469.89 224.28 466.782 224.28 463.518C224.28 463.249 224.248 462.988 224.239 462.721C223.97 454.434 219.561 447.209 212.998 443.036V452.35C215.58 455.351 217.151 459.248 217.151 463.518C217.151 472.989 209.474 480.666 200.003 480.666C190.533 480.666 182.855 472.989 182.855 463.518C182.855 459.248 184.426 455.352 187.008 452.35V443.036C180.234 447.344 175.726 454.897 175.726 463.518C175.726 476.926 186.595 487.795 200.003 487.795C207.121 487.795 213.503 484.713 217.943 479.832C218.116 479.836 218.284 479.858 218.457 479.858C230.864 479.858 240.922 469.8 240.922 457.393C240.922 449.415 236.751 442.426 230.482 438.44V447.059C232.872 449.836 234.325 453.442 234.325 457.393Z" fill="#1C1C21"/>
<path d="M222.458 472.733C229.281 470.957 234.325 464.772 234.325 457.393C234.325 453.442 232.872 449.836 230.483 447.059V453.091C230.483 457.364 227.909 461.058 224.239 462.722C224.248 462.988 224.279 463.249 224.279 463.518C224.279 466.782 223.625 469.89 222.458 472.733Z" fill="black"/>
<path d="M212.998 440.409V443.036C219.56 447.209 223.969 454.434 224.239 462.721C227.909 461.058 230.483 457.364 230.483 453.091V447.059V438.44V436.009H214.001L212.998 440.409Z" fill="black"/>
<path d="M214.001 436.009H230.483L233.907 420.988H217.426L214.001 436.009Z" fill="black"/>
<path d="M201.572 470.295H198.434C192.149 470.295 187.007 465.153 187.007 458.869V452.35C184.425 455.352 182.855 459.248 182.855 463.518C182.855 472.989 190.532 480.666 200.003 480.666C209.473 480.666 217.151 472.989 217.151 463.518C217.151 459.248 215.58 455.351 212.998 452.35V458.869C212.998 465.153 207.856 470.295 201.572 470.295Z" fill="black"/>
<path d="M187.008 458.869C187.008 465.153 192.15 470.295 198.434 470.295H201.572C207.857 470.295 212.998 465.153 212.998 458.869V452.35V443.036V440.409H187.008V443.036V452.35V458.869Z" fill="black"/>
<path d="M214.001 436.009L217.426 420.988H182.579L187.008 440.41H212.998L214.001 436.009Z" fill="black"/>
<path d="M449.175 463.518C449.175 472.989 441.498 480.666 432.027 480.666C422.557 480.666 414.879 472.989 414.879 463.518C414.879 459.248 416.45 455.352 419.032 452.35V443.036C412.264 447.34 407.759 454.885 407.751 463.498C407.751 463.504 407.75 463.511 407.75 463.518C407.75 466.961 408.477 470.231 409.769 473.199C401.586 472.565 395.14 465.739 395.14 457.393C395.14 453.442 396.593 449.836 398.983 447.059V438.44C392.714 442.426 388.543 449.415 388.543 457.393C388.543 469.8 398.601 479.858 411.008 479.858C411.997 479.858 412.964 479.773 413.919 479.649C418.366 484.636 424.82 487.795 432.027 487.795C445.435 487.795 456.304 476.926 456.304 463.518C456.304 454.897 451.796 447.344 445.022 443.036V452.35C447.605 455.351 449.175 459.248 449.175 463.518Z" fill="#1C1C21"/>
<path d="M432.027 480.666C441.498 480.666 449.175 472.989 449.175 463.518C449.175 459.248 447.605 455.351 445.022 452.35V458.869C445.022 465.153 439.88 470.295 433.596 470.295H430.458C424.174 470.295 419.032 465.153 419.032 458.869V452.35C416.45 455.352 414.88 459.248 414.88 463.518C414.879 472.989 422.557 480.666 432.027 480.666Z" fill="black"/>
<path d="M419.032 443.036V452.35V458.869C419.032 465.153 424.174 470.295 430.458 470.295H433.596C439.88 470.295 445.022 465.153 445.022 458.869V452.35V443.036V440.41H419.032V443.036Z" fill="black"/>
<path d="M418.029 436.009L419.032 440.41H445.022L449.45 420.988H414.604L418.029 436.009Z" fill="black"/>
<mask id="path-15-outside-1_338_37" maskUnits="userSpaceOnUse" x="45.7929" y="14.6094" width="461" height="410" fill="black">
<rect fill="white" x="45.7929" y="14.6094" width="461" height="410"/>
<path d="M142.974 120.755L134.524 76.9358C134.161 74.5337 128.889 42.5711 104.236 33.871L57.3204 18.6094L55.07 25.9222L101.779 41.1154C122.378 48.3856 126.923 77.8331 126.966 78.1256L126.979 78.2149L135.183 120.755H117.756L106.098 73.0892C105.795 71.7329 101.455 53.4037 87.6027 47.3593C77.451 42.9294 62.7981 38.6312 52.0476 35.7471L49.7929 43.0742C60.3528 45.9045 74.8247 50.1304 84.5434 54.3711C95.0206 58.9429 98.6024 74.6198 98.6362 74.7715L109.882 120.755H109.765L149.624 313.965C152.244 326.662 164.374 335.83 178.211 335.83C178.751 335.83 179.294 335.816 179.838 335.787L190.41 335.239L149.269 391.665C144.881 397.084 144.002 404.35 146.982 410.667C149.984 417.033 156.222 420.987 163.26 420.987H182.58H217.426H233.908H395.559H414.605H449.451H473.981C476.767 420.987 479.026 418.729 479.026 415.942C479.026 413.156 476.767 410.897 473.981 410.897H163.26C160.12 410.897 157.446 409.202 156.107 406.362C154.768 403.522 155.16 400.381 157.157 397.958L196.231 344.381L252.121 340.696C254.902 340.513 257.007 338.11 256.824 335.33C256.733 333.948 256.091 332.735 255.13 331.884L465.225 320.992C480.049 320.223 491.839 309.303 492.651 295.591L494.838 258.631L495.012 258.627L494.961 256.554L503 120.755H142.974ZM348.405 130.845L350.734 191.872H312.899L308.558 130.845H348.405ZM309.756 255.525L277.04 256.328L269.873 199.523H305.773L309.756 255.525ZM300.888 130.845L305.229 191.872H268.907L261.207 130.845H300.888ZM178.238 199.523H217.88L227.879 257.536L188.646 258.5L178.238 199.523ZM180.911 258.69L169.628 258.967L158.164 199.523H170.47L180.911 258.69ZM225.643 199.523H262.161L269.352 256.517L235.61 257.346L225.643 199.523ZM253.496 130.845L261.196 191.872H224.325L213.806 130.845H253.496ZM206.042 130.845L216.561 191.872H176.888L166.119 130.845H206.042ZM158.35 130.845L169.12 191.872H156.69L144.92 130.845H158.35ZM122.148 130.845H137.129L148.898 191.872H134.738L122.148 130.845ZM148.686 259.482L136.316 199.523H150.373L161.874 259.158L148.686 259.482ZM159.505 311.926L150.257 267.096L163.342 266.775L174.654 325.428C167.105 324.15 160.942 318.889 159.505 311.926ZM182.469 325.548L171.097 266.584L182.255 266.31L192.616 325.021L182.469 325.548ZM200.314 324.622L189.99 266.12L229.193 265.157L239.096 322.612L200.314 324.622ZM246.79 322.213L236.923 264.967L270.315 264.146L277.441 320.623L246.79 322.213ZM285.102 320.226L278.002 263.958L310.299 263.164L314.25 318.715L285.102 320.226ZM313.443 199.523H351.026L353.122 254.46L317.412 255.337L313.443 199.523ZM321.892 318.319L317.955 262.976L353.414 262.105L355.493 316.578L321.892 318.319ZM356.061 130.845H395.985L396.973 191.872H358.389L356.061 130.845ZM358.682 199.523H397.096L397.967 253.358L360.771 254.271L358.682 199.523ZM363.133 316.181L361.062 261.917L398.091 261.008L398.954 314.324L363.133 316.181ZM443.75 312.002L406.598 313.928L405.739 260.82L445.162 259.851L443.75 312.002ZM445.37 252.193L405.616 253.17L404.748 199.523H446.796L445.37 252.193ZM447.004 191.872H404.624L403.637 130.845H448.656L447.004 191.872ZM482.578 294.995C482.07 303.569 474.385 310.413 464.703 310.915L451.837 311.582L453.243 259.653L484.715 258.88L482.578 294.995ZM485.169 251.216L453.45 251.995L454.872 199.523H488.229L485.169 251.216ZM488.682 191.872H455.079L456.731 130.845H492.294L488.682 191.872Z"/>
</mask>
<path d="M142.974 120.755L134.524 76.9358C134.161 74.5337 128.889 42.5711 104.236 33.871L57.3204 18.6094L55.07 25.9222L101.779 41.1154C122.378 48.3856 126.923 77.8331 126.966 78.1256L126.979 78.2149L135.183 120.755H117.756L106.098 73.0892C105.795 71.7329 101.455 53.4037 87.6027 47.3593C77.451 42.9294 62.7981 38.6312 52.0476 35.7471L49.7929 43.0742C60.3528 45.9045 74.8247 50.1304 84.5434 54.3711C95.0206 58.9429 98.6024 74.6198 98.6362 74.7715L109.882 120.755H109.765L149.624 313.965C152.244 326.662 164.374 335.83 178.211 335.83C178.751 335.83 179.294 335.816 179.838 335.787L190.41 335.239L149.269 391.665C144.881 397.084 144.002 404.35 146.982 410.667C149.984 417.033 156.222 420.987 163.26 420.987H182.58H217.426H233.908H395.559H414.605H449.451H473.981C476.767 420.987 479.026 418.729 479.026 415.942C479.026 413.156 476.767 410.897 473.981 410.897H163.26C160.12 410.897 157.446 409.202 156.107 406.362C154.768 403.522 155.16 400.381 157.157 397.958L196.231 344.381L252.121 340.696C254.902 340.513 257.007 338.11 256.824 335.33C256.733 333.948 256.091 332.735 255.13 331.884L465.225 320.992C480.049 320.223 491.839 309.303 492.651 295.591L494.838 258.631L495.012 258.627L494.961 256.554L503 120.755H142.974ZM348.405 130.845L350.734 191.872H312.899L308.558 130.845H348.405ZM309.756 255.525L277.04 256.328L269.873 199.523H305.773L309.756 255.525ZM300.888 130.845L305.229 191.872H268.907L261.207 130.845H300.888ZM178.238 199.523H217.88L227.879 257.536L188.646 258.5L178.238 199.523ZM180.911 258.69L169.628 258.967L158.164 199.523H170.47L180.911 258.69ZM225.643 199.523H262.161L269.352 256.517L235.61 257.346L225.643 199.523ZM253.496 130.845L261.196 191.872H224.325L213.806 130.845H253.496ZM206.042 130.845L216.561 191.872H176.888L166.119 130.845H206.042ZM158.35 130.845L169.12 191.872H156.69L144.92 130.845H158.35ZM122.148 130.845H137.129L148.898 191.872H134.738L122.148 130.845ZM148.686 259.482L136.316 199.523H150.373L161.874 259.158L148.686 259.482ZM159.505 311.926L150.257 267.096L163.342 266.775L174.654 325.428C167.105 324.15 160.942 318.889 159.505 311.926ZM182.469 325.548L171.097 266.584L182.255 266.31L192.616 325.021L182.469 325.548ZM200.314 324.622L189.99 266.12L229.193 265.157L239.096 322.612L200.314 324.622ZM246.79 322.213L236.923 264.967L270.315 264.146L277.441 320.623L246.79 322.213ZM285.102 320.226L278.002 263.958L310.299 263.164L314.25 318.715L285.102 320.226ZM313.443 199.523H351.026L353.122 254.46L317.412 255.337L313.443 199.523ZM321.892 318.319L317.955 262.976L353.414 262.105L355.493 316.578L321.892 318.319ZM356.061 130.845H395.985L396.973 191.872H358.389L356.061 130.845ZM358.682 199.523H397.096L397.967 253.358L360.771 254.271L358.682 199.523ZM363.133 316.181L361.062 261.917L398.091 261.008L398.954 314.324L363.133 316.181ZM443.75 312.002L406.598 313.928L405.739 260.82L445.162 259.851L443.75 312.002ZM445.37 252.193L405.616 253.17L404.748 199.523H446.796L445.37 252.193ZM447.004 191.872H404.624L403.637 130.845H448.656L447.004 191.872ZM482.578 294.995C482.07 303.569 474.385 310.413 464.703 310.915L451.837 311.582L453.243 259.653L484.715 258.88L482.578 294.995ZM485.169 251.216L453.45 251.995L454.872 199.523H488.229L485.169 251.216ZM488.682 191.872H455.079L456.731 130.845H492.294L488.682 191.872Z" fill="#F4A52A"/>
<path d="M142.974 120.755L134.524 76.9358C134.161 74.5337 128.889 42.5711 104.236 33.871L57.3204 18.6094L55.07 25.9222L101.779 41.1154C122.378 48.3856 126.923 77.8331 126.966 78.1256L126.979 78.2149L135.183 120.755H117.756L106.098 73.0892C105.795 71.7329 101.455 53.4037 87.6027 47.3593C77.451 42.9294 62.7981 38.6312 52.0476 35.7471L49.7929 43.0742C60.3528 45.9045 74.8247 50.1304 84.5434 54.3711C95.0206 58.9429 98.6024 74.6198 98.6362 74.7715L109.882 120.755H109.765L149.624 313.965C152.244 326.662 164.374 335.83 178.211 335.83C178.751 335.83 179.294 335.816 179.838 335.787L190.41 335.239L149.269 391.665C144.881 397.084 144.002 404.35 146.982 410.667C149.984 417.033 156.222 420.987 163.26 420.987H182.58H217.426H233.908H395.559H414.605H449.451H473.981C476.767 420.987 479.026 418.729 479.026 415.942C479.026 413.156 476.767 410.897 473.981 410.897H163.26C160.12 410.897 157.446 409.202 156.107 406.362C154.768 403.522 155.16 400.381 157.157 397.958L196.231 344.381L252.121 340.696C254.902 340.513 257.007 338.11 256.824 335.33C256.733 333.948 256.091 332.735 255.13 331.884L465.225 320.992C480.049 320.223 491.839 309.303 492.651 295.591L494.838 258.631L495.012 258.627L494.961 256.554L503 120.755H142.974ZM348.405 130.845L350.734 191.872H312.899L308.558 130.845H348.405ZM309.756 255.525L277.04 256.328L269.873 199.523H305.773L309.756 255.525ZM300.888 130.845L305.229 191.872H268.907L261.207 130.845H300.888ZM178.238 199.523H217.88L227.879 257.536L188.646 258.5L178.238 199.523ZM180.911 258.69L169.628 258.967L158.164 199.523H170.47L180.911 258.69ZM225.643 199.523H262.161L269.352 256.517L235.61 257.346L225.643 199.523ZM253.496 130.845L261.196 191.872H224.325L213.806 130.845H253.496ZM206.042 130.845L216.561 191.872H176.888L166.119 130.845H206.042ZM158.35 130.845L169.12 191.872H156.69L144.92 130.845H158.35ZM122.148 130.845H137.129L148.898 191.872H134.738L122.148 130.845ZM148.686 259.482L136.316 199.523H150.373L161.874 259.158L148.686 259.482ZM159.505 311.926L150.257 267.096L163.342 266.775L174.654 325.428C167.105 324.15 160.942 318.889 159.505 311.926ZM182.469 325.548L171.097 266.584L182.255 266.31L192.616 325.021L182.469 325.548ZM200.314 324.622L189.99 266.12L229.193 265.157L239.096 322.612L200.314 324.622ZM246.79 322.213L236.923 264.967L270.315 264.146L277.441 320.623L246.79 322.213ZM285.102 320.226L278.002 263.958L310.299 263.164L314.25 318.715L285.102 320.226ZM313.443 199.523H351.026L353.122 254.46L317.412 255.337L313.443 199.523ZM321.892 318.319L317.955 262.976L353.414 262.105L355.493 316.578L321.892 318.319ZM356.061 130.845H395.985L396.973 191.872H358.389L356.061 130.845ZM358.682 199.523H397.096L397.967 253.358L360.771 254.271L358.682 199.523ZM363.133 316.181L361.062 261.917L398.091 261.008L398.954 314.324L363.133 316.181ZM443.75 312.002L406.598 313.928L405.739 260.82L445.162 259.851L443.75 312.002ZM445.37 252.193L405.616 253.17L404.748 199.523H446.796L445.37 252.193ZM447.004 191.872H404.624L403.637 130.845H448.656L447.004 191.872ZM482.578 294.995C482.07 303.569 474.385 310.413 464.703 310.915L451.837 311.582L453.243 259.653L484.715 258.88L482.578 294.995ZM485.169 251.216L453.45 251.995L454.872 199.523H488.229L485.169 251.216ZM488.682 191.872H455.079L456.731 130.845H492.294L488.682 191.872Z" stroke="#F4A52A" stroke-width="6" mask="url(#path-15-outside-1_338_37)"/>
<path d="M3.2998 11.709C6.48301 3.1025 15.7841 -0.143053 25.123 2.29199L26.7227 2.71289C34.7157 4.84244 42.5721 7.2673 48.5479 9.20117C51.7364 10.233 54.393 11.1263 56.2529 11.7617C57.1829 12.0794 57.9139 12.3327 58.4131 12.5068C58.6625 12.5938 58.8539 12.6614 58.9834 12.707C59.0481 12.7298 59.0977 12.747 59.1309 12.7588C59.1475 12.7647 59.1604 12.7694 59.1689 12.7725C59.1731 12.7739 59.1765 12.7756 59.1787 12.7764H59.1807L59.1816 12.7773L60.5361 13.2578L60.1133 14.6318L58.7539 19.0508L56.5039 26.3633L53.4814 36.1885L51.2266 43.5156L49.2471 49.9482L48.7979 51.4102L47.3447 50.9326L12.2549 39.3867L12.1592 39.3545L12.0684 39.3105L12.7236 37.9619L12.0664 39.3105L12.0645 39.3096C12.063 39.3089 12.0615 39.3076 12.0596 39.3066C12.0557 39.3047 12.0505 39.3026 12.0449 39.2998C12.0337 39.2942 12.0189 39.2865 12.001 39.2773C11.9651 39.2591 11.9156 39.2339 11.8545 39.2012C11.732 39.1356 11.5608 39.0396 11.3496 38.9141C10.9275 38.663 10.3436 38.2887 9.66895 37.7812C8.32231 36.7683 6.59444 35.2109 5.07324 33.0293C1.98647 28.6023 -0.12942 21.7667 3.15332 12.123L3.2998 11.709Z" fill="black" stroke="black" stroke-width="3"/>
</svg>
