<?xml version="1.0" encoding="utf-8"?>
<!-- Generator: Adobe Illustrator 27.5.0, SVG Export Plug-In . SVG Version: 6.00 Build 0)  -->
<svg version="1.1" id="Layer_1" xmlns="http://www.w3.org/2000/svg" xmlns:xlink="http://www.w3.org/1999/xlink" x="0px" y="0px"
	 viewBox="0 0 240.692 213.343" style="enable-background:new 0 0 240.692 213.343;" xml:space="preserve">
<g>
	<rect y="0" style="fill:#DADBDC;" width="240.692" height="213.343"/>
	<g>
		<path style="fill:#FFFFFF;" d="M212.046,84.124c-0.037-0.978-0.241-1.944-0.626-2.814c0.022-0.249,0.041-0.497,0.041-0.747
			c0-1.263-0.734-2.272-1.645-3.08c-0.995-0.882-2.148-1.575-3.083-2.526c-0.466-0.474-0.861-1.009-1.089-1.638
			c-0.288-0.792-0.329-1.648-0.479-2.472c-0.279-1.526-1.088-2.797-2.71-3.071c-1.58-0.266-3.198,0.289-4.753,0.494
			c-1.702,0.224-3.281-0.151-4.726-1.076c-1.438-0.921-2.612-2.233-3.619-3.597c-1.974-2.672-3.388-5.84-6.042-7.952
			c-1.36-1.082-2.904-1.648-4.602-1.954c-1.787-0.322-3.697-0.45-5.262-1.462c-0.772-0.499-1.403-1.185-2.16-1.704
			c-0.771-0.528-1.642-0.793-2.573-0.844c-0.957-0.052-1.912,0.081-2.858,0.203c-1.068,0.138-2.135,0.278-3.199,0.44
			c-2.089,0.319-4.159,0.734-6.185,1.343c-1.978,0.594-3.92,1.316-5.943,1.75c-1.881,0.404-3.754,0.453-5.651,0.137
			c-1.759-0.293-3.468-0.814-5.169-1.338c-3.121-0.96-6.48-2.095-9.776-1.4c-0.244,0.051-0.483,0.115-0.721,0.184
			c-1.321-0.089-2.646-0.113-3.97-0.044c-1.592,0.082-3.178,0.298-4.728,0.676c-1.556,0.38-3.01,0.984-4.505,1.542
			c-1.518,0.567-3.06,0.884-4.635,0.339c-1.419-0.491-2.647-1.384-3.976-2.062c-5.461-2.785-11.821-1.771-17.71-2.136
			c-1.494-0.092-2.986-0.27-4.443-0.617c-0.35-0.083-0.706-0.191-1.064-0.302c-0.783,0.311-1.543,0.677-2.254,1.125
			c-0.423,0.266-0.823,0.55-1.204,0.874c-0.379,0.322-0.743,0.661-1.128,0.975c-0.784,0.641-1.656,1.091-2.621,1.393
			c-1.896,0.592-3.968,0.639-5.74,1.603c-1.413,0.769-2.522,1.941-3.662,3.057c0.001,0.088,0.002,0.177,0.003,0.265
			c-0.277,0.597-0.527,1.199-0.756,1.784c-0.759,1.941-1.393,3.926-2.128,5.875c-0.778,2.067-1.637,4.103-2.476,6.146
			c-0.9,2.191-1.684,4.437-2.504,6.66c-2.792,0.103-4.709,2.659-5.595,5.096c-0.572,1.574-0.918,3.22-1.46,4.804
			c-0.545,1.595-1.206,3.153-1.978,4.652c-1.569,3.045-3.579,5.837-6.407,7.819c-1.417,0.993-2.918,1.867-4.392,2.771
			c-1.595,0.978-3.186,1.961-4.772,2.952c-1.758,1.098-3.513,2.2-5.266,3.306c-1.816,1.145-3.508,2.461-5.422,3.444
			c-0.119,0.061-0.163,0.271-0.006,0.307c0.914,0.207,1.886,0.255,2.817,0.355c0.946,0.102,1.891,0.205,2.837,0.306
			c0.416,0.044,0.977,0.003,1.372,0.142c0.395,0.139,0.752,0.806,1.012,1.124c0.065,0.08,0.131,0.159,0.196,0.238
			c1.002,3.027,2.463,5.91,5.162,7.762c0.99,0.679,2.085,1.239,2.923,2.117c0.738,0.772,1.19,1.744,1.5,2.755
			c0.604,1.971,0.707,4.08,1.553,5.979c1.47,3.3,4.932,4.963,7.79,6.85c1.471,0.971,2.937,2.078,3.919,3.567
			c0.572,0.868,0.879,1.837,1.248,2.8c0.433,1.13,1.048,2.015,2.005,2.766c0.972,0.763,1.986,1.462,2.93,2.263
			c0.923,0.783,1.81,1.607,2.66,2.468c1.721,1.746,3.267,3.637,4.675,5.642c1.335,1.902,2.666,3.819,4.606,5.157
			c1.868,1.288,4.068,1.976,6.272,2.425c1.11,0.226,2.231,0.393,3.353,0.547c1.083,0.148,2.258,0.381,3.296-0.09
			c0.918-0.416,1.505-1.246,2.204-1.933c0.834-0.819,1.904-1.142,3.054-1.184c1.131-0.042,2.26,0.163,3.371,0.353
			c1.229,0.21,2.462,0.378,3.706,0.47c2.559,0.191,5.141,0.112,7.684-0.234c2.48-0.338,4.928-0.931,7.287-1.768
			c1.134-0.403,2.277-0.927,3.497-0.989c0.548-0.028,1.104,0.065,1.585,0.338c0.568,0.323,0.946,0.865,1.396,1.321
			c1.495,1.518,3.674,1.617,5.678,1.58c2.735-0.049,5.47-0.138,8.205-0.214c1.369-0.038,2.737-0.076,4.104-0.15
			c0.219-0.012,0.425-0.324,0.413-0.533c1.157,0.285,2.29,0.663,3.404,1.145c1.014,0.438,2.043,0.862,3.156,0.947
			c0.903,0.069,1.811-0.041,2.692-0.237c1.804-0.401,3.511-1.14,5.313-1.542c0.852-0.19,1.734-0.303,2.605-0.178
			c0.944,0.136,1.755,0.572,2.474,1.187c0.711,0.609,1.36,1.319,2.206,1.746c0.785,0.396,1.681,0.474,2.532,0.272
			c1.905-0.452,3.391-1.9,5.028-2.885c1.947-1.171,4.196-1.353,6.42-1.296c4.16,0.107,9.169,0.796,12.151-2.835
			c0.117-0.142,0.112-0.398-0.064-0.488c-1.123-0.568-1.545-1.915-1.372-3.102c0.213-1.464,1.289-2.662,2.248-3.713
			c1.893-2.074,3.861-4.208,6.343-5.585c1.265-0.702,2.584-1.053,4.01-1.236c0.635-0.081,1.276-0.198,1.832-0.532
			c0.587-0.353,0.963-0.929,1.231-1.545c0.677-1.553,1.192-3.195,1.779-4.785c0.618-1.674,1.237-3.349,1.855-5.023
			c1.381-3.74,2.76-7.48,4.145-11.218c0.056-0.152,0.019-0.41-0.195-0.411c-2.48-0.019-4.875-1.075-6.586-2.868
			c-1.78-1.865-2.613-4.451-2.358-7.01c0.135-1.356,0.568-2.657,1.282-3.813c2.196,0.31,3.986-1.41,4.876-3.287
			c1.25-2.639,0.578-5.416,0.029-8.145c-0.3-1.488-0.669-3.168-0.386-4.687c0.144-0.773,0.968-0.656,1.58-0.656
			c0.565,0,1.114-0.038,1.617-0.321c1.115-0.626,1.573-1.968,2.018-3.086c0.594-1.492,1.154-3.018,1.378-4.616
			c0.052-0.373,0.08-0.752,0.086-1.132C212.167,84.448,212.2,84.232,212.046,84.124z"/>
		<g>
			<g>
				<path style="opacity:0.14;fill:#5D5F61;" d="M212.046,84.124c-0.037-0.978-0.241-1.944-0.626-2.814
					c0.022-0.248,0.041-0.497,0.041-0.747c0-1.263-0.734-2.272-1.645-3.08c-0.995-0.882-2.148-1.575-3.083-2.526
					c-0.466-0.474-0.861-1.009-1.089-1.638c-0.288-0.792-0.329-1.648-0.479-2.472c-0.279-1.526-1.088-2.797-2.71-3.071
					c-1.58-0.266-3.198,0.289-4.753,0.494c-1.702,0.224-3.281-0.151-4.726-1.076c-1.438-0.921-2.612-2.233-3.619-3.597
					c-1.974-2.672-3.388-5.84-6.042-7.952c-1.36-1.082-2.904-1.648-4.602-1.953c-1.787-0.322-3.697-0.45-5.262-1.462
					c-0.772-0.499-1.403-1.185-2.16-1.704c-0.771-0.528-1.642-0.793-2.573-0.844c-0.957-0.052-1.911,0.081-2.858,0.203
					c-1.068,0.138-2.135,0.278-3.199,0.44c-2.089,0.319-4.159,0.734-6.185,1.343c-1.978,0.594-3.92,1.316-5.943,1.75
					c-1.881,0.404-3.754,0.453-5.651,0.137c-1.759-0.293-3.468-0.814-5.169-1.338c-3.121-0.96-6.48-2.095-9.776-1.4
					c-0.244,0.051-0.483,0.115-0.721,0.184c-1.321-0.089-2.646-0.113-3.97-0.044c-1.592,0.082-3.178,0.298-4.728,0.676
					c-1.556,0.38-3.01,0.984-4.505,1.542c-1.518,0.567-3.06,0.884-4.635,0.339c-1.419-0.491-2.647-1.384-3.976-2.062
					c-5.461-2.785-11.821-1.771-17.71-2.136c-1.494-0.092-2.986-0.27-4.443-0.617c-0.35-0.083-0.706-0.191-1.064-0.302
					c-0.783,0.311-1.543,0.677-2.254,1.125c-0.423,0.266-0.823,0.55-1.204,0.874c-0.379,0.322-0.743,0.661-1.128,0.975
					c-0.784,0.641-1.656,1.091-2.621,1.393c-1.896,0.592-3.968,0.639-5.74,1.603c-1.413,0.769-2.522,1.941-3.662,3.057
					c0.001,0.088,0.002,0.177,0.003,0.265c-0.277,0.597-0.527,1.199-0.756,1.784c-0.759,1.941-1.393,3.926-2.128,5.875
					c-0.778,2.067-1.637,4.103-2.476,6.146c-0.9,2.191-1.684,4.437-2.504,6.66c-2.792,0.103-4.709,2.659-5.595,5.096
					c-0.572,1.574-0.918,3.22-1.46,4.804c-0.545,1.595-1.206,3.153-1.978,4.652c-1.569,3.046-3.579,5.837-6.407,7.82
					c-1.417,0.993-2.918,1.867-4.392,2.771c-1.595,0.978-3.186,1.961-4.772,2.952c-1.758,1.098-3.513,2.2-5.266,3.306
					c-1.816,1.145-3.508,2.461-5.422,3.444c-0.119,0.061-0.163,0.271-0.006,0.307c0.914,0.207,1.886,0.255,2.817,0.355
					c0.946,0.102,1.891,0.205,2.837,0.306c0.416,0.044,0.977,0.003,1.372,0.142c0.395,0.139,0.752,0.806,1.012,1.124
					c0.065,0.08,0.131,0.159,0.196,0.238c1.002,3.027,2.463,5.91,5.162,7.762c0.99,0.679,2.085,1.239,2.923,2.117
					c0.738,0.772,1.19,1.744,1.5,2.755c0.604,1.971,0.707,4.08,1.553,5.979c1.47,3.3,4.932,4.963,7.79,6.85
					c1.471,0.971,2.937,2.078,3.919,3.567c0.572,0.868,0.879,1.837,1.248,2.8c0.433,1.13,1.048,2.015,2.005,2.766
					c0.972,0.763,1.986,1.462,2.93,2.263c0.923,0.783,1.81,1.607,2.66,2.468c1.721,1.746,3.267,3.637,4.675,5.642
					c1.335,1.902,2.666,3.819,4.606,5.157c1.868,1.288,4.068,1.976,6.272,2.425c1.11,0.226,2.231,0.393,3.353,0.547
					c1.083,0.148,2.258,0.38,3.296-0.09c0.918-0.416,1.505-1.246,2.204-1.933c0.834-0.819,1.904-1.142,3.054-1.184
					c1.131-0.042,2.26,0.163,3.371,0.353c1.229,0.21,2.462,0.378,3.706,0.47c2.559,0.191,5.141,0.112,7.684-0.234
					c2.48-0.338,4.928-0.931,7.287-1.768c1.134-0.403,2.277-0.927,3.497-0.989c0.548-0.028,1.104,0.065,1.585,0.338
					c0.568,0.323,0.946,0.865,1.396,1.321c1.495,1.518,3.674,1.617,5.678,1.58c2.735-0.049,5.47-0.138,8.205-0.214
					c1.369-0.038,2.737-0.076,4.104-0.15c0.219-0.012,0.425-0.324,0.413-0.533c1.157,0.285,2.29,0.663,3.404,1.145
					c1.014,0.438,2.043,0.862,3.156,0.947c0.903,0.069,1.811-0.041,2.692-0.237c1.804-0.401,3.511-1.14,5.313-1.542
					c0.852-0.19,1.734-0.303,2.605-0.178c0.944,0.136,1.755,0.572,2.474,1.187c0.711,0.609,1.36,1.319,2.206,1.746
					c0.785,0.396,1.681,0.474,2.532,0.272c1.905-0.452,3.391-1.9,5.028-2.885c1.947-1.171,4.196-1.353,6.42-1.296
					c4.16,0.107,9.169,0.796,12.15-2.835c0.117-0.142,0.112-0.398-0.064-0.488c-1.123-0.568-1.544-1.915-1.372-3.102
					c0.213-1.464,1.289-2.662,2.248-3.713c1.893-2.074,3.861-4.208,6.343-5.585c1.265-0.702,2.584-1.053,4.01-1.236
					c0.635-0.081,1.276-0.198,1.832-0.532c0.587-0.353,0.963-0.929,1.231-1.545c0.677-1.553,1.192-3.195,1.779-4.785
					c0.618-1.674,1.237-3.349,1.855-5.023c1.381-3.74,2.76-7.48,4.145-11.218c0.056-0.152,0.019-0.41-0.195-0.411
					c-2.48-0.019-4.875-1.075-6.586-2.868c-1.78-1.865-2.613-4.451-2.358-7.01c0.135-1.356,0.568-2.657,1.282-3.813
					c2.196,0.31,3.986-1.41,4.876-3.287c1.25-2.639,0.578-5.416,0.029-8.145c-0.3-1.488-0.669-3.168-0.386-4.687
					c0.144-0.773,0.968-0.656,1.58-0.656c0.565,0,1.114-0.038,1.617-0.321c1.115-0.626,1.573-1.968,2.018-3.086
					c0.594-1.492,1.154-3.019,1.378-4.616c0.052-0.373,0.08-0.752,0.086-1.132C212.167,84.448,212.2,84.232,212.046,84.124z
					 M205.585,90.715c-0.316,0.504-0.789,0.891-1.291,1.2c-1.109,0.683-2.383,1.055-3.605,1.482
					c0.181,1.952,0.841,3.821,1.024,5.772c0.007,0.079-0.084,0.139-0.154,0.118c-0.51-0.157-1.024-0.301-1.539-0.442
					c-1.231-0.337-2.471-0.662-3.679-1.073c-0.89,0.743-1.871,1.382-2.867,1.968c0.068,0.181,0.135,0.363,0.197,0.547
					c0.599,1.776,0.905,3.641,1.076,5.503c0.179,1.948,0.202,3.907,0.17,5.861c-0.032,1.878-0.086,3.756-0.224,5.63
					c-0.073,0.986-0.139,1.979-0.067,2.968c0.034,0.47,0.089,0.955,0.235,1.405c0.145,0.446,0.326,0.88,0.524,1.305
					c0.3,0.643,0.632,1.273,0.932,1.914c1.198,1.126,2.403,2.249,3.812,3.11c0.401,0.245,0.819,0.449,1.252,0.629
					c0.354,0.147,0.715,0.282,1.055,0.461c0.284,0.149,0.552,0.337,0.741,0.6c0.202,0.281,0.276,0.629,0.271,0.97
					c-0.007,0.47-0.15,0.87-0.371,1.282c-0.293,0.543-0.656,1.048-1.025,1.541c-0.87,1.159-1.823,2.254-2.741,3.374
					c-0.354,0.431-0.709,0.865-1.023,1.327c-0.387,0.569-0.701,1.191-1.054,1.782c-0.579,0.969-1.186,1.966-2.037,2.723
					c-0.827,0.737-1.847,1.198-2.86,1.617c-0.788,0.325-1.586,0.627-2.386,0.922c-0.98,0.362-1.943,0.771-2.888,1.216
					c-1.96,0.921-3.851,1.989-5.669,3.165c-0.858,0.555-1.7,1.136-2.522,1.744c-0.124,0.279-0.249,0.557-0.367,0.839
					c-0.673,1.607-1.266,3.29-1.419,5.036c-0.006,0.072-0.052,0.114-0.122,0.122c-1.905,0.212-3.807,0.462-5.691,0.816
					c-1.621,0.304-3.227,0.686-4.805,1.167c-0.829,0.253-1.649,0.532-2.46,0.837c-0.661,0.249-1.321,0.505-2.006,0.68
					c-0.839,0.215-1.686,0.27-2.483-0.115c-0.965-0.466-1.767-1.291-2.563-1.994c-1.612,0.434-3.165,1.079-4.733,1.646
					c-1.513,0.547-3.054,1.081-4.645,1.353c-0.667,0.114-1.349,0.184-2.027,0.138c-0.825-0.057-1.519-0.403-2.249-0.764
					c-0.86-0.425-1.774-0.628-2.713-0.807c-1.004-0.191-2.02-0.317-3.037-0.415c-0.63-0.061-1.262-0.109-1.893-0.155
					c-2.549,0.784-5.085,1.64-7.71,2.126c-1.234,0.228-2.5,0.418-3.754,0.253c-1.056-0.139-2.068-0.486-3.029-0.936
					c-1.507-0.705-2.886-1.641-4.278-2.55c-0.386-0.128-0.774-0.254-1.165-0.368c-0.564-0.165-1.134-0.313-1.711-0.42
					c-0.53-0.098-1.098-0.19-1.637-0.133c-1.256,0.132-2.447,0.672-3.586,1.185c-1.143,0.514-2.291,1.079-3.52,1.358
					c-2.676,0.609-5.411,0.293-8.092-0.105c-1.957-0.29-3.929-0.62-5.907-0.669c-1.135,0.468-2.259,0.97-3.401,1.399
					c-2.196,0.826-4.707,1.52-6.995,0.632c-0.558-0.216-1.049-0.536-1.564-0.836c-0.545-0.318-1.1-0.619-1.654-0.922
					c-1.177-0.645-2.361-1.293-3.451-2.081c-0.491-0.355-0.964-0.738-1.385-1.174c-0.421-0.437-0.745-0.938-1.059-1.455
					c-0.716-1.18-1.331-2.42-1.911-3.672c-1.027-2.217-1.924-4.492-2.935-6.715c-1.242-0.581-2.435-1.261-3.496-2.137
					c-0.655-0.541-1.245-1.148-1.78-1.807c-0.558-0.688-1.135-1.36-1.719-2.026c-1.206-1.376-2.442-2.726-3.627-4.12
					c-0.265-0.312-0.528-0.627-0.787-0.944c-1.705-0.338-3.381-0.785-4.987-1.421c-0.066-0.026-0.098-0.08-0.085-0.15
					c0.185-1.037-0.013-2.122-0.031-3.168c-0.032-1.87,0.246-3.73,0.291-5.597c0.018-0.751,0.073-1.629-0.24-2.332
					c-0.262-0.589-0.775-1.006-1.314-1.332c-1.213-0.734-2.592-1.157-3.719-2.039c-1.117-0.874-1.732-2.197-2.316-3.456
					c-0.431-0.93-1.267-2.507-0.398-3.442c0.17-0.183,0.399-0.308,0.592-0.464c0.359-0.289,0.648-0.649,0.962-0.984
					c0.702-0.751,1.459-1.449,2.241-2.116c1.568-1.338,3.235-2.553,4.859-3.82c1.497-1.168,2.909-2.434,4.368-3.647
					c0.969-0.806,2.001-1.613,2.74-2.649c0.745-1.044,1.063-2.28,1.183-3.543c0.175-1.83-0.016-3.638-0.168-5.461
					c-0.131-1.576-0.19-3.265,0.613-4.689c0.791-1.404,2.305-2.229,3.465-3.296c1.089-1.003,1.946-2.386,2.262-3.843
					c0.306-1.409,0.231-2.924,0.765-4.281c0.217-0.552,0.595-1.004,1.182-1.172c0.773-0.222,1.638-0.008,2.329-0.496
					c1.28-0.904,2.001-2.407,2.635-3.792c0.501-1.095,0.96-2.227,1.561-3.275c0.121-0.295,0.243-0.589,0.372-0.881
					c0.656-1.481,1.42-2.941,2.455-4.196c0.467-0.566,0.993-1.084,1.589-1.514c0.629-0.454,1.343-0.756,2.042-1.085
					c1.665-0.784,3.35-1.549,5.107-2.107c1.582-0.503,3.268-0.868,4.922-0.53c1.991,0.406,3.833,1.341,5.72,2.061
					c0.871,0.333,1.762,0.625,2.677,0.814c0.96,0.198,1.936,0.311,2.893,0.523c0.928,0.206,1.78,0.538,2.604,1.008
					c0.797,0.455,1.551,0.98,2.276,1.542c1.382,1.07,2.647,2.268,3.887,3.493c1.413-0.819,2.952-1.434,4.475-2.008
					c1.194-0.451,2.398-0.88,3.572-1.382c0.577-0.246,1.167-0.493,1.697-0.833c0.502-0.322,0.948-0.72,1.372-1.138
					c0.821-0.811,1.581-1.71,2.594-2.29c0.557-0.319,1.179-0.524,1.796-0.694c0.571-0.157,1.157-0.267,1.749-0.309
					c0.999-0.071,2.005,0.074,2.93,0.464c0.877,0.37,1.653,0.938,2.339,1.592c0.943,0.901,1.738,1.941,2.496,3.006
					c0.665-0.149,1.359-0.2,2.006-0.216c1.711-0.044,3.421,0.171,5.115,0.388c1.454,0.187,2.929,0.44,4.4,0.428
					c0.997-0.008,2.004-0.245,2.96-0.512c1.028-0.287,2.031-0.653,3.033-1.017c2.039-0.741,4.105-1.464,6.289-1.574
					c0.502-1.233,1.216-2.433,2.351-3.178c1.816-1.192,4.127-0.775,6.095-0.255c2.429,0.643,4.796,1.593,7.309,1.878
					c0.054,0.006,0.102,0.033,0.118,0.09c0.053,0.197,0.116,0.389,0.183,0.579c1.16,0.59,2.075,1.634,2.866,2.637
					c0.842,1.067,1.562,2.229,2.43,3.274c0.033,0.04,0.052,0.1,0.019,0.148c-0.577,0.845-1.211,1.649-1.853,2.445
					c-0.432,0.535-0.869,1.066-1.299,1.603c0.122,0.036,0.245,0.068,0.367,0.106c2.053,0.654,3.975,1.661,5.814,2.772
					c0.468,0.283,0.932,0.572,1.401,0.853c0.347,0.208,0.681,0.44,1.036,0.633c0.296,0.161,0.611,0.279,0.951,0.293
					c0.469,0.02,0.93-0.118,1.367-0.275c0.057-0.021,0.14,0.023,0.15,0.085c0.094,0.565,0.162,1.134,0.234,1.703
					c0.044,0.347,0.087,0.694,0.132,1.041c0.584-0.068,1.167-0.136,1.751-0.194c1.612-0.162,3.237-0.298,4.858-0.262
					c0.661,0.015,1.327,0.057,1.976,0.188c0.458,0.093,0.958,0.232,1.32,0.544c0.171,0.147,0.296,0.356,0.407,0.55
					c0.157,0.277,0.287,0.569,0.408,0.864c0.303,0.735,0.546,1.495,0.771,2.256c0.406,1.373,0.75,2.764,1.061,4.161
					c0.015,0.066-0.02,0.13-0.085,0.15c-0.487,0.154-0.885,0.486-1.19,0.89c-0.637,0.846-0.944,1.919-1.19,2.934
					c-0.053,0.218-0.1,0.438-0.147,0.657c0.147,0.006,0.294,0.009,0.44,0.009c1.274-0.001,2.655-0.246,3.88,0.214
					c0.607,0.228,1.105,0.638,1.463,1.178c0.446,0.673,0.807,1.47,0.899,2.278C206.019,89.61,205.903,90.208,205.585,90.715z"/>
				<g>
					<path style="fill:#B1B3B6;" d="M45.071,135.668c-0.111-0.662-0.184-1.342-0.145-2.014c0.046-0.779,0.244-1.543,0.497-2.278
						c0.531-1.542,1.31-2.982,2.041-4.436c-1.984-1.237-3.816-2.686-5.678-4.095c-0.578-0.438-1.141-0.889-1.74-1.3
						c-0.673-0.462-1.355-0.91-2.007-1.401c-1.126-0.848-2.371-1.87-2.267-3.417c0.055-0.814,0.356-1.585,0.453-2.392
						c0.053-0.441,0.056-0.932-0.164-1.33c-0.145-0.264-0.363-0.49-0.576-0.7c-1.039-1.02-2.425-1.729-3.296-2.913
						c-0.05-0.068,0.006-0.156,0.073-0.179c3.379-1.184,7.138-1.647,10.197-3.613c2.779-1.787,4.987-4.351,7.345-6.631
						c0.576-0.557,1.162-1.104,1.772-1.623c0.569-0.484,1.166-0.927,1.665-1.488c0.797-0.895,1.241-1.97,1.35-3.159
						c0.113-1.232-0.016-2.477-0.041-3.71c-0.029-1.46,0.037-2.939,0.288-4.379c0.209-1.205,0.591-2.368,1.175-3.444
						c0.483-0.889,1.083-1.707,1.727-2.487c-1.734,0.886-2.964,2.763-3.623,4.575c-0.572,1.574-0.918,3.22-1.46,4.804
						c-0.545,1.595-1.206,3.153-1.978,4.652c-1.569,3.045-3.579,5.837-6.407,7.819c-1.417,0.993-2.918,1.867-4.392,2.771
						c-1.595,0.978-3.186,1.961-4.772,2.952c-1.758,1.098-3.513,2.2-5.266,3.306c-1.816,1.145-3.508,2.461-5.422,3.444
						c-0.119,0.061-0.163,0.271-0.006,0.307c0.914,0.207,1.886,0.255,2.817,0.355c0.946,0.102,1.891,0.205,2.837,0.306
						c0.416,0.044,0.977,0.003,1.372,0.142c0.395,0.139,0.752,0.806,1.012,1.124c0.065,0.08,0.131,0.159,0.196,0.238
						c1.002,3.027,2.463,5.91,5.162,7.762c0.99,0.679,2.085,1.239,2.923,2.117c0.738,0.772,1.19,1.744,1.5,2.755
						c0.604,1.971,0.707,4.08,1.553,5.979c0.358,0.802,0.834,1.507,1.39,2.142C45.138,136.043,45.103,135.856,45.071,135.668z"/>
					<path style="fill:#B1B3B6;" d="M113.45,162.456c-0.768,0.121-1.498,0.363-2.234,0.608c-0.661,0.22-1.322,0.441-1.991,0.636
						c-1.053,0.307-2.123,0.516-3.223,0.519c-1.424,0.004-2.835-0.256-4.24-0.453c-1.763-0.247-3.519-0.545-5.276-0.828
						c-1.709-0.275-3.421-0.54-5.143-0.721c-0.61-0.064-1.193-0.128-1.801-0.014c-0.562,0.105-1.106,0.295-1.637,0.504
						c-1.036,0.408-2.036,0.918-3.098,1.259c-0.211,0.33-0.43,0.653-0.675,0.957c-0.405,0.503-0.878,0.953-1.562,0.91
						c-0.828-0.053-1.647-0.406-2.402-0.724c-0.876-0.369-1.729-0.786-2.585-1.2c-0.782-0.378-1.551-0.681-2.385-0.932
						c-1.269-0.382-2.561-0.739-3.638-1.546c-0.947-0.709-1.576-1.632-1.988-2.735c-0.396-1.061-0.6-2.181-0.952-3.256
						c-0.176-0.537-0.391-1.064-0.693-1.544c-0.308-0.489-0.724-0.935-1.137-1.337c-1.642-1.597-3.946-2.157-5.725-3.558
						c-0.958-0.754-1.76-1.749-2.27-2.859c-0.509-1.11-0.768-2.331-1.376-3.396c-1.167-2.042-3.889-2.59-6.014-2.983
						c-0.749-0.139-1.52-0.253-2.29-0.387c0.83,0.53,1.67,1.037,2.463,1.561c1.471,0.971,2.937,2.078,3.919,3.567
						c0.572,0.868,0.879,1.837,1.248,2.8c0.433,1.13,1.048,2.015,2.005,2.766c0.972,0.763,1.986,1.462,2.93,2.263
						c0.923,0.783,1.81,1.607,2.66,2.468c1.721,1.746,3.267,3.637,4.675,5.642c1.335,1.902,2.666,3.819,4.606,5.157
						c1.868,1.288,4.068,1.976,6.272,2.425c1.11,0.226,2.231,0.393,3.353,0.547c1.083,0.148,2.258,0.381,3.296-0.09
						c0.918-0.416,1.505-1.246,2.204-1.933c0.834-0.819,1.904-1.142,3.054-1.184c1.131-0.042,2.26,0.163,3.371,0.353
						c1.229,0.21,2.462,0.378,3.706,0.47c2.559,0.191,5.141,0.112,7.684-0.234c2.48-0.338,4.928-0.931,7.287-1.768
						c0.606-0.215,1.215-0.463,1.836-0.659C114.951,163.139,114.209,162.778,113.45,162.456z"/>
					<path style="fill:#B1B3B6;" d="M200.566,145.071c-0.629,0.58-1.257,1.181-2.013,1.595c-0.189,0.104-0.385,0.194-0.585,0.275
						c-0.155,0.063-0.262,0.055-0.424,0.027c-0.384-0.067-0.76-0.172-1.143-0.242c-0.9-0.163-1.83,0.033-2.702,0.264
						c-0.287,0.076-0.57,0.164-0.852,0.257c-0.008,0.007-0.015,0.015-0.023,0.022c-2.312,2.126-4.956,3.924-7.026,6.306
						c-0.896,1.031-1.69,2.214-2.004,3.561c-0.334,1.434-0.009,2.868,0.679,4.146c0.032,0.06,0.013,0.131-0.044,0.167
						c-1.023,0.648-2.421,0.341-3.53,0.132c-0.697-0.131-1.391-0.285-2.093-0.384c-0.822-0.116-1.589-0.086-2.409,0.045
						c-3,0.481-5.777,1.724-8.591,2.81c-2.612,1.008-5.514,2.076-8.336,1.346c-1.252-0.324-2.465-1.005-3.441-1.85
						c-0.202-0.175-0.398-0.45-0.655-0.546c-0.417-0.155-0.998-0.006-1.424,0.013c-1.436,0.063-2.753,0.735-3.989,1.415
						c-1.186,0.652-2.344,1.386-3.621,1.852c-0.083,0.03-0.145-0.046-0.154-0.118c-0.197-1.553-2.2-2.185-3.474-2.509
						c-1.569-0.4-3.207-0.557-4.824-0.575c-0.607-0.007-1.218,0.004-1.822,0.072c-1.071,0.121-2.011,0.436-2.969,0.93
						c-0.971,0.501-1.912,1.089-2.962,1.418c-1.184,0.371-2.413,0.561-3.651,0.62c-1.495,0.071-2.985-0.029-4.472-0.175
						c1.238,0.477,2.651,0.515,3.988,0.491c2.735-0.049,5.47-0.138,8.205-0.214c1.369-0.038,2.737-0.076,4.104-0.15
						c0.219-0.012,0.425-0.324,0.413-0.533c1.157,0.285,2.29,0.663,3.404,1.145c1.014,0.438,2.043,0.862,3.156,0.947
						c0.903,0.069,1.811-0.041,2.692-0.237c1.804-0.401,3.511-1.14,5.313-1.542c0.852-0.19,1.734-0.303,2.605-0.178
						c0.944,0.136,1.755,0.572,2.474,1.187c0.711,0.609,1.36,1.319,2.206,1.746c0.785,0.396,1.681,0.474,2.532,0.272
						c1.905-0.452,3.391-1.9,5.028-2.885c1.947-1.171,4.196-1.353,6.42-1.296c4.16,0.107,9.169,0.796,12.151-2.835
						c0.117-0.142,0.112-0.398-0.064-0.488c-1.123-0.568-1.545-1.915-1.372-3.102c0.213-1.464,1.289-2.662,2.248-3.713
						c1.893-2.074,3.861-4.208,6.343-5.585c1.265-0.702,2.584-1.053,4.01-1.236c0.635-0.081,1.276-0.198,1.832-0.532
						c0.587-0.353,0.963-0.929,1.231-1.545c0.203-0.466,0.39-0.94,0.57-1.418C201.184,144.514,200.872,144.788,200.566,145.071z"/>
					<path style="fill:#B1B3B6;" d="M208.514,124.226c-2.48-0.019-4.875-1.075-6.586-2.868c-1.78-1.865-2.613-4.451-2.358-7.01
						c0.135-1.356,0.568-2.657,1.282-3.813c2.196,0.31,3.986-1.41,4.876-3.287c1.064-2.246,0.735-4.592,0.275-6.922
						c-0.86,0.922-1.618,1.938-2.24,3.038c-0.031,0.055-0.113,0.08-0.167,0.044c-0.932-0.618-1.923-1.131-2.921-1.632
						c-0.046,2.045-0.705,4.021-1.399,5.927c-0.112,0.308-0.275,0.567-0.517,0.787c-0.227,0.205-0.382,0.388-0.458,0.694
						c-0.097,0.392-0.134,0.77-0.092,1.173c0.044,0.426,0.147,0.843,0.239,1.261c0.084,0.382,0.164,0.769,0.185,1.16
						c0.022,0.409-0.038,0.831-0.102,1.234c-0.128,0.809-0.387,1.584-0.624,2.365c-0.227,0.749-0.409,1.511-0.385,2.3
						c0.013,0.423,0.089,0.81,0.251,1.201c0.146,0.351,0.337,0.682,0.546,0.999c0.771,1.174,1.829,2.23,2.005,3.68
						c0.845,0.179,1.695,0.334,2.531,0.549c1.485,0.38,2.985,0.978,3.995,2.183c0.058,0.069,0.147,0.154,0.187,0.237
						c0.038,0.08,0.017,0.188,0.017,0.275c0.002,0.261,0.006,0.521,0.012,0.782c0.003,0.161,0.007,0.321,0.011,0.482
						c0.545-1.475,1.089-2.951,1.635-4.425C208.766,124.485,208.729,124.227,208.514,124.226z"/>
					<path style="fill:#B1B3B6;" d="M102.154,52.973c0.732,0.472,1.367,1.035,2.023,1.603c0.768,0.666,1.587,1.271,2.427,1.845
						c0.814,0.556,1.646,1.083,2.473,1.618c0.426,0.276,0.851,0.554,1.272,0.84c0.223,0.151,0.444,0.305,0.664,0.46
						c0.208,0.148,0.284,0.244,0.525,0.153c0.817-0.309,1.601-0.741,2.416-1.065c0.893-0.354,1.793-0.688,2.685-1.045
						c0.912-0.365,1.817-0.754,2.682-1.221c0.806-0.435,1.324-1.006,1.883-1.715c0.435-0.552,0.881-0.996,1.505-1.326
						c0.454-0.241,0.951-0.401,1.449-0.522c1.271-0.308,2.602-0.381,3.906-0.358c1.375,0.024,2.756,0.165,4.101,0.451
						c1.015,0.216,2.115,0.498,2.981,1.096c0.538,0.371,1.055,0.779,1.518,1.241c0.365,0.363,0.682,0.778,1.064,1.123
						c1.083,0.978,2.794,0.396,4.062,0.213c2.009-0.29,4.018-0.581,6.037-0.788c1.064-0.109,2.131-0.195,3.2-0.252
						c0.785-0.042,1.6-0.06,2.361-0.278c1.188-0.34,2.087-1.403,3.088-2.077c1.324-0.891,2.728-1.653,4.184-2.303
						c-1.41,0.265-2.807,0.588-4.183,1.002c-1.978,0.594-3.92,1.316-5.943,1.75c-1.881,0.404-3.754,0.453-5.651,0.137
						c-1.759-0.293-3.468-0.814-5.169-1.338c-3.121-0.96-6.48-2.095-9.776-1.4c-0.244,0.051-0.483,0.115-0.721,0.184
						c-1.321-0.089-2.646-0.113-3.97-0.044c-1.592,0.082-3.178,0.298-4.728,0.676c-1.556,0.38-3.01,0.984-4.505,1.542
						c-1.518,0.567-3.06,0.884-4.635,0.339c-1.419-0.491-2.647-1.384-3.976-2.062c-5.461-2.785-11.821-1.771-17.71-2.136
						c-1.225-0.076-2.447-0.21-3.652-0.447C91.377,50.404,97.357,49.881,102.154,52.973z"/>
					<path style="fill:#B1B3B6;" d="M65.303,63.67c1.692-1.216,3.761-1.773,5.474-2.961c0.409-0.283,0.793-0.608,1.116-0.987
						c0.299-0.352,0.549-0.745,0.772-1.149c0.514-0.933,0.889-1.94,1.198-2.957c0.226-0.744,0.414-1.501,0.57-2.264
						c-1.104,0.222-2.199,0.474-3.198,1.018c-1.413,0.769-2.522,1.941-3.662,3.057c0.001,0.088,0.002,0.177,0.003,0.265
						c-0.277,0.597-0.527,1.199-0.756,1.784C66.278,60.861,65.799,62.268,65.303,63.67z"/>
					<path style="fill:#B1B3B6;" d="M212.046,84.124c-0.037-0.978-0.241-1.944-0.626-2.814c0.022-0.249,0.041-0.497,0.041-0.747
						c0-1.263-0.734-2.272-1.645-3.08c-0.995-0.882-2.148-1.575-3.083-2.526c-0.466-0.474-0.861-1.009-1.089-1.638
						c-0.288-0.792-0.329-1.648-0.479-2.472c-0.279-1.526-1.088-2.797-2.71-3.071c-1.58-0.266-3.198,0.289-4.753,0.494
						c-1.702,0.224-3.281-0.151-4.726-1.076c-1.438-0.921-2.612-2.233-3.619-3.597c-1.974-2.672-3.388-5.84-6.042-7.952
						c-1.36-1.082-2.904-1.648-4.602-1.954c-0.347-0.063-0.699-0.118-1.053-0.174c0.319,0.366,0.646,0.725,0.963,1.086
						c0.808,0.921,1.61,1.85,2.335,2.839c0.676,0.922,1.31,1.911,1.679,3c0.305,0.898,0.39,1.889-0.023,2.768
						c-0.473,1.004-1.467,1.627-2.46,2.052c0.388,0.243,0.802,0.437,1.234,0.59c1.057,0.373,2.17,0.539,3.259,0.791
						c0.536,0.124,1.053,0.311,1.587,0.438c0.591,0.14,1.177,0.307,1.747,0.519c0.568,0.211,1.122,0.464,1.645,0.771
						c0.435,0.255,0.888,0.528,1.206,0.926c0.282,0.355,0.505,0.753,0.749,1.134c0.243,0.38,0.514,0.806,0.905,1.051
						c0.695,0.436,1.618,0.477,2.408,0.389c0.869-0.096,1.713-0.362,2.541-0.632c0.801-0.261,1.6-0.549,2.427-0.717
						c0.683-0.139,1.422-0.203,2.09,0.041c0.802,0.294,1.44,1.032,1.776,1.799c0.35,0.799,0.357,1.673,0.227,2.521
						c-0.135,0.879-0.412,1.728-0.575,2.601c-0.146,0.785-0.147,1.529,0.238,2.246c0.617,1.149,1.778,1.674,2.961,2.063
						c1.03,0.338,2.233,0.615,2.962,1.484c1.085,1.293,0.633,3.202,0.223,4.66c-0.336,1.195-0.768,2.36-1.195,3.525
						c-0.272,0.741-0.549,1.484-0.775,2.241c0.267-0.045,0.527-0.125,0.776-0.264c1.115-0.626,1.573-1.968,2.018-3.086
						c0.594-1.492,1.154-3.018,1.378-4.616c0.052-0.373,0.08-0.752,0.086-1.132C212.167,84.448,212.2,84.232,212.046,84.124z"/>
				</g>
				<path style="fill:#FFFFFF;" d="M74.771,53.573c-0.774-0.164-1.575-0.023-2.332,0.179c-0.782,0.208-1.525,0.538-2.213,0.963
					c-1.473,0.91-2.532,2.264-3.327,3.783c-0.843,1.611-1.461,3.37-2.03,5.094c-0.321,0.973-0.613,1.957-0.961,2.92
					c-0.347,0.959-0.733,1.897-1.121,2.84c-0.781,1.898-1.495,3.82-2.212,5.743c-0.306,0.821-0.576,1.686-1.083,2.41
					c-0.47,0.672-1.19,1.077-1.878,1.492c-1.239,0.747-2.279,1.682-3.046,2.919c-0.706,1.137-1.183,2.397-1.582,3.669
					c-0.412,1.314-0.729,2.655-1.139,3.97c-0.201,0.644-0.404,1.284-0.668,1.905c-0.26,0.612-0.567,1.2-0.84,1.805
					c-0.139,0.308-0.301,0.586-0.5,0.86c-0.053,0.073,0.041,0.13,0.098,0.069c0.445-0.477,0.917-0.945,1.252-1.509
					c0.344-0.58,0.624-1.192,0.872-1.818c0.505-1.277,0.899-2.582,1.3-3.896c0.72-2.362,1.506-5.002,3.544-6.583
					c0.643-0.499,1.382-0.85,2.043-1.321c0.723-0.516,1.268-1.155,1.668-1.948c0.41-0.812,0.686-1.694,0.999-2.547
					c0.348-0.949,0.696-1.898,1.036-2.851c0.665-1.861,1.213-3.759,1.932-5.6c0.372-0.952,0.801-1.882,1.177-2.833
					c0.343-0.868,0.646-1.752,0.989-2.62c0.699-1.769,1.509-3.468,2.947-4.76c0.675-0.607,1.466-1.069,2.304-1.411
					c0.875-0.357,1.79-0.496,2.708-0.689C74.804,53.789,74.924,53.606,74.771,53.573z"/>
				<path style="fill:#FFFFFF;" d="M65.552,155.414c-0.218-0.427-0.59-0.763-0.911-1.115c-0.34-0.373-0.66-0.764-0.999-1.138
					c-0.664-0.734-1.337-1.453-2.025-2.165c-1.186-1.227-2.359-2.472-3.644-3.595c-0.121-0.193-0.23-0.396-0.342-0.581
					c-0.207-0.342-0.388-0.692-0.58-1.042c-0.042-0.077-0.106-0.115-0.176-0.126c-0.198-0.275-0.402-0.544-0.617-0.806
					c-0.047-0.057-0.095-0.112-0.142-0.168c-0.197-0.379-0.394-0.759-0.606-1.131c-0.412-0.723-0.898-1.434-1.532-1.983
					c-0.675-0.585-1.471-0.896-2.313-1.159c-0.627-0.196-1.221-0.391-1.753-0.712c0.034-0.13,0.008-0.258-0.131-0.326
					c-0.97-0.476-1.89-1.048-2.736-1.721c-0.408-0.325-0.8-0.671-1.175-1.033c-0.179-0.173-0.347-0.359-0.517-0.543
					c-0.002-0.026-0.007-0.052-0.021-0.077c-0.128-0.238-0.306-0.446-0.482-0.655c-0.109-0.203-0.213-0.408-0.306-0.621
					c-0.323-0.744-0.548-1.517-0.73-2.307c-0.366-1.592-0.601-3.258-1.322-4.74c-0.19-0.391-0.43-0.778-0.721-1.103
					c-0.097-0.108-0.202-0.204-0.311-0.296c-0.025-0.051-0.047-0.104-0.073-0.155c-0.217-0.418-0.467-0.822-0.765-1.188
					c-0.12-0.147-0.249-0.278-0.384-0.403c-0.004-0.006-0.008-0.013-0.013-0.019c-0.429-0.619-0.919-1.197-1.495-1.684
					c-0.59-0.497-1.268-0.859-1.916-1.271c-0.721-0.457-1.289-1.037-1.741-1.76c-0.477-0.764-0.889-1.572-1.324-2.361
					c-0.427-0.774-0.81-1.603-1.313-2.33c-0.437-0.632-0.969-1.038-1.731-1.188c-1.04-0.204-2.113-0.323-3.163-0.459
					c-0.521-0.067-1.042-0.137-1.563-0.204c-0.528-0.068-1.048-0.176-1.565-0.031c-0.068,0.019-0.162,0.152-0.086,0.213
					c0.334,0.27,0.759,0.3,1.176,0.377c0.472,0.088,0.947,0.165,1.42,0.247c0.909,0.158,1.821,0.299,2.733,0.444
					c0.391,0.062,0.808,0.097,1.176,0.251c0.358,0.15,0.619,0.417,0.824,0.742c0.449,0.712,0.822,1.478,1.225,2.217
					c0.419,0.769,0.822,1.55,1.27,2.304c0.406,0.684,0.873,1.333,1.508,1.822c0.634,0.489,1.359,0.833,2.014,1.289
					c0.609,0.424,1.134,0.962,1.579,1.555c0.8,1.067,1.354,2.305,1.852,3.546c0.148,1.425,0.503,2.794,1.035,4.136
					c0.299,0.755,0.671,1.48,1.068,2.188c0.249,0.443,0.509,0.963,0.848,1.384c0.44,0.848,1.028,1.61,1.756,2.246
					c0.938,0.819,2.026,1.413,3.207,1.79c0.193,0.126,0.385,0.251,0.579,0.369c0.715,0.437,1.423,0.892,2.098,1.388
					c1.355,0.997,2.603,2.158,3.689,3.442c0.021,0.025,0.041,0.05,0.061,0.075c0.168,0.328,0.336,0.653,0.513,0.965
					c0.079,0.139,0.164,0.275,0.248,0.411c0.366,1.278,1.181,2.435,2.081,3.387c1.293,1.367,2.846,2.424,4.306,3.595
					c0.406,0.325,0.815,0.648,1.206,0.991c0.415,0.365,0.793,0.77,1.22,1.121c0.064,0.053,0.157,0.03,0.222-0.024
					c0.006,0.003,0.011,0.007,0.017,0.011C65.405,155.785,65.626,155.559,65.552,155.414z"/>
				<path style="fill:#FFFFFF;" d="M109.745,164.825c-0.567,0.031-1.127,0.186-1.685,0.297c-0.553,0.11-1.108,0.202-1.664,0.295
					c-1.139,0.191-2.29,0.34-3.44,0.438c-0.258,0.022-0.515,0.04-0.773,0.056c-0.438-0.001-0.876-0.008-1.315-0.02
					c-2.188-0.063-4.296-0.672-6.449-1.011c-1.03-0.162-2.106-0.296-3.133-0.045c-1.001,0.245-1.785,0.851-2.565,1.494
					c-0.773,0.636-1.646,1.312-2.59,1.807c-0.76,0.167-1.544,0.21-2.322,0.129c-1.342-0.141-2.655-0.53-3.966-0.837
					c-0.657-0.154-1.335-0.379-2.008-0.445c-0.356-0.034-0.695-0.039-1.046-0.117c-0.361-0.08-0.714-0.15-1.083-0.185
					c-0.126-0.012-0.323,0.222-0.154,0.293c0.56,0.237,1.168,0.328,1.714,0.598c0.539,0.267,1.153,0.376,1.732,0.526
					c0.273,0.071,0.547,0.144,0.821,0.217c0.101,0.062,0.201,0.123,0.301,0.182c0.781,0.463,1.609,0.893,2.515,1.044
					c1.18,0.196,2.325-0.078,3.388-0.569c1.021-0.209,2.001-0.61,2.888-1.218c0.809-0.554,1.557-1.394,2.558-1.581
					c0.586-0.109,1.185-0.017,1.766,0.081c0.582,0.099,1.163,0.199,1.749,0.277c2.335,0.311,4.7,0.385,7.05,0.228
					c1.332-0.089,2.656-0.249,3.965-0.51c0.633-0.126,1.259-0.281,1.882-0.451c0.648-0.176,1.306-0.353,1.901-0.667
					C109.919,165.058,109.938,164.814,109.745,164.825z"/>
				<path style="fill:#FFFFFF;" d="M156.806,166.034c-1.512-0.732-3.37-0.54-4.973-0.238c-1.732,0.327-3.403,0.92-5.153,1.161
					c-0.854,0.118-1.718,0.148-2.571,0.005c-0.971-0.163-1.828-0.616-2.731-0.982c-1.008-0.409-2.023-0.551-3.107-0.478
					c-1.138,0.076-2.265,0.288-3.401,0.393c-1.277,0.118-2.557,0.16-3.839,0.154c-0.638-0.003-1.274-0.032-1.912-0.058
					c-0.297-0.012-0.598-0.042-0.895-0.034c-0.375,0.011-0.743,0.039-1.117-0.009c-0.082-0.011-0.163,0.14-0.062,0.155
					c0.557,0.082,1.081,0.283,1.641,0.36c0.543,0.075,1.089,0.122,1.635,0.16c1.106,0.076,2.213,0.085,3.32,0.045
					c1.14-0.042,2.272-0.156,3.404-0.29c1.096-0.13,2.227-0.222,3.295,0.125c0.956,0.311,1.832,0.824,2.806,1.088
					c0.822,0.223,1.674,0.273,2.522,0.223c1.756-0.104,3.45-0.644,5.149-1.059c0.945-0.231,1.907-0.485,2.88-0.561
					c0.96-0.075,1.938,0.058,2.87,0.289C156.777,166.535,157.043,166.149,156.806,166.034z"/>
				<path style="fill:#FFFFFF;" d="M205.947,123.299c-0.743-0.174-1.464-0.56-2.116-0.952c-0.669-0.402-1.269-0.911-1.77-1.51
					c-0.298-0.357-0.543-0.74-0.742-1.141c-0.125-0.66-0.311-1.305-0.447-1.964c-0.167-0.808-0.236-1.654-0.192-2.479
					c0.04-0.747,0.195-1.504,0.563-2.162c0.413-0.739,1.063-1.267,1.719-1.781c1.272-0.997,2.305-2.131,3.029-3.587
					c0.662-1.333,1.014-2.811,1.031-4.298c0.01-0.819-0.09-1.63-0.3-2.422c-0.215-0.811-0.595-1.565-1.031-2.279
					c-0.113-0.185-0.422,0.044-0.335,0.218c0.34,0.676,0.574,1.418,0.72,2.179c0.132,1.08,0.099,2.231-0.025,3.304
					c-0.125,1.084-0.403,2.188-0.939,3.146c-0.916,1.636-2.561,2.855-4.474,2.91c-0.224,0.007-0.412,0.223-0.5,0.407
					c-0.711,1.496-1.02,3.165-0.932,4.817c0.021,0.392,0.056,0.788,0.158,1.168c0.107,0.399,0.262,0.788,0.387,1.182
					c0.138,0.435,0.319,0.879,0.546,1.293c0.476,1.453,1.462,2.704,2.769,3.512c0.85,0.526,1.765,0.718,2.754,0.756
					C205.981,123.622,206.161,123.349,205.947,123.299z"/>
				<path style="fill:#FFFFFF;" d="M205.601,131.844c-0.855,2.599-1.724,5.194-2.588,7.79c-0.211,0.476-0.446,0.939-0.712,1.381
					c-0.748,1.245-1.795,2.122-3.025,2.87c-1.295,0.787-2.584,1.571-3.823,2.445c-1.238,0.873-2.512,1.782-3.571,2.871
					c-0.581,0.597-1.212,1.143-1.821,1.711c-0.637,0.594-1.24,1.221-1.871,1.82c-0.253,0.24-0.04,0.631,0.288,0.419
					c0.842-0.544,1.663-1.113,2.529-1.619c0.869-0.508,1.761-0.975,2.674-1.4c0.886-0.413,1.789-0.785,2.707-1.122
					c0.897-0.329,1.803-0.64,2.666-1.055c1.687-0.811,3.018-2.053,3.94-3.684c0.942-1.666,1.532-3.515,2.038-5.353
					c0.638-2.319,1.068-4.688,1.294-7.082C206.372,131.345,205.714,131.5,205.601,131.844z"/>
				<path style="fill:#FFFFFF;" d="M153.403,52.821c-1.852,0.287-3.698,0.543-5.577,0.505c-1.842-0.037-3.662-0.224-5.447-0.691
					c-1.729-0.453-3.359-1.2-5.046-1.779c-1.685-0.578-3.436-0.932-5.221-0.909c-0.652,0.008-1.299,0.061-1.943,0.139
					c-0.931-0.11-1.908-0.041-2.816,0.035c-1.345,0.113-2.678,0.342-4.002,0.598c-2.62,0.507-5.242,1.153-7.921,1.228
					c-1.288,0.036-2.593-0.082-3.838-0.427c-1.339-0.371-2.543-1.056-3.764-1.7c-1.211-0.639-2.454-1.179-3.821-1.369
					c-1.317-0.183-2.661-0.09-3.972,0.096c-0.543,0.077-1.084,0.171-1.624,0.269c-0.535,0.025-1.07,0.068-1.604,0.135
					c-0.221,0.028-0.441,0.06-0.661,0.096c0.724,0.144,1.428,0.416,2.113,0.674c0.881,0.331,1.745,0.705,2.6,1.097
					c1.591,0.728,3.118,1.584,4.646,2.434c1.519,0.844,3.044,1.684,4.636,2.384c0.159,0.07,0.318,0.136,0.478,0.203
					c0.795,0.154,1.607,0.219,2.396,0.189c3.79-0.143,6.81-2.722,10.309-3.843c0.623-0.131,1.246-0.263,1.87-0.394
					c0.146-0.031,0.292-0.062,0.439-0.093c4.231-0.444,8.382,1.384,12.376,2.529c2.238,0.642,4.514,1.058,6.849,1.034
					c2.366-0.024,4.701-0.449,6.915-1.285c0.543-0.205,1.09-0.401,1.621-0.635C153.604,53.245,153.775,52.764,153.403,52.821z"/>
			</g>
			<g style="opacity:0.49;">
				<path style="fill:#8B8D8F;" d="M226.109,78.12c-1.277-3.649-4.464-6.061-7.677-7.913c-3.322-1.915-6.954-3.333-9.926-5.817
					c-1.338-1.118-2.521-2.451-3.314-4.011c-1.308,0.715-2.51,1.637-3.566,2.689c-0.028,0.028-0.055,0.058-0.083,0.086
					c-0.391,0.62-0.768,1.248-1.125,1.889c-0.538,0.965-1.04,1.952-1.501,2.957c-0.387,0.846-0.706,1.724-1.021,2.601
					c-0.258-1.718-0.436-3.449-0.766-5.154c-0.184-0.95-0.193-1.919-0.214-2.885c-0.013-0.586-0.013-1.172-0.006-1.758
					c-1.879,1.423-3.085,3.559-4.269,5.57c-0.035,0.059-0.115,0.083-0.175,0.046c-0.146-0.09-0.3-0.164-0.458-0.229
					c-0.664-0.274-1.428-0.423-1.997-0.887c-0.245-0.199-0.408-0.468-0.413-0.791c-0.002-0.16,0.023-0.32,0.03-0.48
					c0.01-0.226-0.012-0.452-0.044-0.676c-0.117-0.822-0.425-1.583-0.866-2.281c-0.468-0.74-1.054-1.381-1.584-2.072
					c-1.082-1.409-1.192-3.305-1.212-5.017c-0.005-0.431-0.021-0.865,0.028-1.294c0.045-0.391,0.129-0.776,0.25-1.15
					c0.245-0.758,0.619-1.466,1.035-2.141c0.556-0.902,1.199-1.757,1.765-2.656c-2.938,0.137-5.835-0.284-8.514-1.597
					c-1.447-0.709-2.779-1.639-3.932-2.771c-1.081-1.06-2.073-2.227-3.306-3.116c-1.184-0.854-2.568-1.346-4.007-0.884
					c-0.823,0.264-1.512,0.819-2.173,1.361c-0.687,0.563-1.376,1.125-2.114,1.621c-1.513,1.017-3.181,1.565-4.989,1.726
					c-1.775,0.158-3.552,0.038-5.322-0.126c-2.131-0.196-4.25-0.402-6.392-0.427c-2.237-0.026-4.456,0.096-6.685,0.284
					c-0.282,0.024-0.634,0.537-0.282,0.712c2.315,1.15,4.842,2.451,6.01,4.912c0.274,0.576,0.458,1.19,0.512,1.828
					c0.055,0.654-0.11,1.239-0.21,1.877c-0.1,0.638,0.021,1.234,0.526,1.67c0.238,0.205,0.484,0.366,0.737,0.489
					c0.605-0.218,1.222-0.404,1.848-0.554c1.158-0.277,2.337-0.436,3.522-0.516c0.163-0.094,0.326-0.19,0.487-0.287
					c0.7-0.147,1.404-0.275,2.111-0.378c2.277-0.331,4.573-0.46,6.872-0.35c4.61,0.222,9.18,1.325,13.372,3.277
					c1.178,0.549,2.326,1.163,3.435,1.843c0.532,0.326,1.049,0.673,1.561,1.028c0.359,0.582,0.645,1.206,0.83,1.876
					c0.036-0.254,0.083-0.506,0.135-0.757c-0.039,0.553-0.15,1.097-0.316,1.632c-0.408,1.318-1.196,2.341-2.075,3.341
					c-0.016,0.008-0.032,0.016-0.048,0.024c-0.018,0.009-0.034,0.044-0.025,0.06c-0.147,0.166-0.296,0.331-0.446,0.498
					c-0.181,0.2-0.21,0.62,0.161,0.577c1.436-0.164,2.893,0.152,4.266,0.556c1.237,0.365,2.495,0.761,3.676,1.285
					c1.116,0.494,2.047,1.163,2.803,2.132c0.691,0.886,1.33,1.879,2.411,2.317c0.849,0.344,1.762,0.336,2.658,0.2
					c-0.024,0.095,0.007,0.19,0.141,0.182c0.308-0.018,0.588-0.149,0.873-0.26c0.33-0.129,0.66-0.261,0.994-0.379
					c0.657-0.234,1.329-0.431,2.012-0.572c0.346-0.072,0.695-0.134,1.044-0.19c1.477,0.161,2.912,0.841,3.902,1.947
					c0.009,0.287,0.007,0.571-0.011,0.849c-0.076,1.225-0.331,2.423-0.59,3.618c-0.215,0.995-0.527,2.126,0.035,3.066
					c0.83,1.388,2.716,1.579,4.046,2.236c0.934,0.462,1.596,1.232,2.01,2.137c0.044,0.042,0.631,2.996,0.462,3.865
					c-0.208,1.068-0.515,2.115-0.826,3.157c-0.233,0.782-0.476,1.562-0.687,2.351c1.224-0.472,2.182-1.472,2.832-2.624
					c0.929-1.647,1.228-3.541,1.874-5.301c1.1-2.998,3.462-5.402,6.361-6.671c1.611-0.706,3.393-1.051,5.15-0.927
					C225.956,78.607,226.192,78.356,226.109,78.12z"/>
				<path style="fill:#8B8D8F;" d="M225.138,108.536c-1.661-0.836-3.547-1.124-5.143-2.108c-0.848-0.523-1.465-1.249-2.013-2.07
					c-0.534-0.8-1.053-1.592-1.785-2.228c-1.435-1.246-3.24-1.899-4.855-2.859c-1.62-0.963-3.433-2.736-3.194-4.805
					c0.044-0.38-0.425-0.211-0.527,0.005c-0.16,0.34-0.28,0.695-0.363,1.058c-0.007-0.024-0.014-0.048-0.021-0.073
					c-0.042-0.143-0.27,0.017-0.253,0.13c0.057,0.383,0.105,0.769,0.148,1.157c0.002,0.13,0.008,0.261,0.021,0.391
					c0.004,0.039,0.015,0.068,0.03,0.091c0.06,0.635,0.101,1.271,0.112,1.904c0.019,1.091-0.123,2.262-0.695,3.213
					c-0.291,0.483-0.682,0.826-1.091,1.204c-0.447,0.414-0.727,0.95-0.578,1.569c0.149,0.622,0.566,1.135,0.772,1.737
					c0.208,0.608,0.269,1.27,0.193,1.907c-0.077,0.641-0.293,1.255-0.649,1.794c-0.376,0.571-0.863,1.056-1.283,1.593
					c-0.778,0.994-1.26,2.157-1.478,3.397c-0.419,2.382,0.372,4.852,2.128,6.524c0.941,0.896,2.096,1.483,3.348,1.802
					c0.434,0.11,0.992,0.213,1.494,0.403c0.386-0.261,0.755-0.549,1.105-0.861c0.892-0.798,1.667-1.715,2.412-2.649
					c0.376-0.472,0.729-0.972,1.138-1.416c0.433-0.47,0.912-0.894,1.42-1.281c0.263-0.2,0.532-0.389,0.807-0.57
					c0.391-0.612,0.781-1.225,1.174-1.836c0.352-0.548,0.714-1.098,1.187-1.549c1.02-0.974,2.536-1.109,3.871-1.279
					c1.731-0.221,3.479-0.298,5.222-0.229c0.212,0.008,0.441-0.182,0.413-0.409C227.997,110.469,226.609,109.277,225.138,108.536z"
					/>
				<path style="fill:#8B8D8F;" d="M77.16,167.976c-2.052-1.92-3.438-4.346-4.756-6.756c-0.678-1.239-1.345-2.484-2.094-3.686
					c-0.784-1.256-1.649-2.466-2.567-3.637c-1.872-2.386-3.974-4.596-6.124-6.754c-1.066-1.07-2.115-2.173-3.245-3.181
					c-1.144-1.02-2.439-1.671-3.919-2.135c-1.651-0.518-3.31-0.977-4.917-1.617c-1.608-0.64-3.206-1.359-4.672-2.262
					c-0.022-0.022-0.047-0.043-0.069-0.065c-1.078-1.109-1.398-2.547-1.736-3.98c-0.613-2.603-1.823-5.023-3.598-7.089
					c-3.535-4.113-8.885-6.693-14.501-6.464c-5.647,0.231-10.981,3.053-14.331,7.377c-0.403,0.52-0.782,1.065-1.109,1.632
					c-0.113,0.196-0.072,0.436,0.208,0.421c5.182-0.282,10.421,0.99,14.858,3.556c1.188,0.687,2.305,1.472,3.357,2.336
					c-2.361,3.455-3.675,7.43-4.219,11.51c-0.574,4.306-0.364,8.681,0.119,12.985c0.275,2.455,0.646,4.9,1.038,7.34
					c0.05,0.312,0.426,0.238,0.604,0.079c1.811-1.616,3.711-3.138,5.7-4.551c0.985-0.7,1.99-1.374,3.015-2.02
					c0.504-0.318,1.012-0.63,1.524-0.935c0.52-0.309,1.04-0.645,1.603-0.88c0.552-0.23,1.13-0.325,1.709-0.129
					c0.49,0.166,0.924,0.454,1.364,0.712c0.802,0.471,1.669,0.773,2.613,0.838c1.847,0.128,3.655-0.48,5.385-1.014
					c1.904-0.588,3.932-1.223,5.938-0.789c0.25,1.675,0.502,3.349,0.755,5.023c0.075,0.499,0.817,0.099,0.788-0.29
					c-0.075-1.029,0.834-1.613,1.795-1.789c1.143-0.209,2.417,0.038,3.259,0.838c1.225,1.164,1.729,2.816,2.185,4.361
					c0.461,1.561,0.904,3.082,1.949,4.393c1.055,1.323,2.7,2.363,4.502,1.944c0.214-0.05,0.539-0.275,0.466-0.534
					c-0.754-2.659,1.997-5.38,4.739-5.12c0.616,0.298,1.215,0.632,1.79,1.012C76.899,168.881,77.46,168.257,77.16,167.976z"/>
				<path style="fill:#8B8D8F;" d="M122.977,53.188c-2.904-3.126-5.151-6.895-6.457-10.966c-0.105-0.328-0.537-0.061-0.654,0.091
					c-1.401,1.814-2.603,3.775-3.597,5.84c-0.573-4.21-0.226-8.542,1.043-12.599c0.388-1.24,0.861-2.452,1.41-3.629
					c0.169-0.362-0.241-0.55-0.519-0.37c-5.245,3.385-11.754,3.639-17.795,3.393c-3.49-0.142-6.976-0.428-10.471-0.366
					c-1.672,0.03-3.38,0.097-5.026,0.411c-1.421,0.271-2.71,0.835-3.819,1.773c-2.225,1.882-3.386,4.783-4.352,7.458
					c-0.143,0.395,0.295,0.483,0.538,0.257c1.368-1.277,3.324-1.835,5.164-1.589c1.85,0.247,3.482,1.357,4.467,2.941
					c0.559,0.899,0.853,1.926,0.898,2.981c0.006,0.134,0.124,0.242,0.252,0.255c4.203,0.455,8.413,0.802,12.514,1.898
					c2.022,0.54,4.001,1.178,5.864,2.146c1.843,0.957,3.459,2.182,5.005,3.561c1.498,1.336,3.068,2.736,5.041,3.228
					c-0.001,0.005-0.002,0.009-0.003,0.013c-0.028,0.212,0.127,0.385,0.345,0.351c4.123-0.65,7.865-3.077,10.146-6.591
					C123.063,53.53,123.103,53.324,122.977,53.188z"/>
				<path style="fill:#8B8D8F;" d="M78.044,50.481c-3.031-0.064-6.062-0.127-9.094-0.195c-2.226-0.05-4.945-0.218-6.618,1.539
					c-0.832,0.874-1.188,2.07-2.07,2.907c-0.763,0.724-1.72,1.217-2.643,1.71c-1.874,1.001-3.745,2.151-4.362,4.301
					c-0.549,1.913-0.105,4.182,1.345,5.595c-0.894,0.221-1.818,0.299-2.741,0.228c-0.592-0.045-1.182-0.144-1.753-0.303
					c-0.298-0.083-0.59-0.183-0.877-0.297c-0.211-0.084-0.502-0.3-0.734-0.222c-0.246,0.083-0.487,0.298-0.698,0.444
					c-0.231,0.159-0.459,0.322-0.682,0.493c-0.444,0.341-0.875,0.7-1.292,1.074c-0.839,0.753-1.62,1.565-2.369,2.404
					c-2.983,3.343-5.507,7.182-9.335,9.671c-2.058,1.338-4.418,2.217-6.91,2.087c-0.23-0.012-0.444,0.164-0.483,0.389
					c-0.617,3.616,0.278,7.237,1.351,10.679c1.097,3.516,2.441,7.068,2.649,10.775c0.056,0.998,0.026,2.008-0.137,2.995
					c-0.154,0.93-0.475,1.942-1.303,2.493c-0.142,0.095-0.27,0.281-0.217,0.457c0.049,0.16,0.233,0.221,0.385,0.151
					c2.156-0.991,4.309-1.998,6.404-3.112c1.045-0.555,2.082-1.129,3.089-1.749c0.993-0.612,2.008-1.201,2.972-1.856
					c3.794-2.577,7.122-5.97,9.057-10.142c1.164-2.509,1.769-5.238,3.021-7.709c1.189-2.347,3.051-4.271,4.739-6.265
					c0.854-1.009,1.67-2.043,2.379-3.158c0.719-1.131,1.335-2.325,1.88-3.547c1.106-2.48,1.919-5.073,2.835-7.624
					c0.824-2.295,1.725-4.566,2.998-6.659c1.106-1.818,2.475-3.565,4.196-4.859c0.028,0.147,0.156,0.262,0.326,0.227
					c1.772-0.358,3.389-1.139,4.77-2.293C78.299,50.962,78.387,50.488,78.044,50.481z"/>
				<path style="fill:#8B8D8F;" d="M203.156,147.029c-4.572-2.683-9.991-2.973-15.061-2.175c-0.108,0.017-0.215,0.038-0.323,0.056
					c-2.801,0.978-5.539,2.176-8.23,3.428c-2.496,1.161-5.003,2.323-7.463,3.57c-2.307,1.169-4.519,2.536-6.745,3.869
					c-2.247,1.346-4.513,2.669-6.89,3.737c-2.443,1.097-4.981,1.742-7.561,2.358c-5.674,1.354-11.4,2.439-17.087,3.73
					c-1.216,0.276-2.403,0.545-3.648,0.607c-1.252,0.063-2.506,0.004-3.758-0.042c-1.381-0.051-2.811-0.11-4.205,0.049
					c-0.416,0.22-0.831,0.44-1.246,0.66c-0.195,0.103-0.591,0.637-0.201,0.779c2.549,0.927,5.177,1.514,7.849,1.712
					c0.558,1.581,0.385,3.469-0.799,4.685c-0.193,0.199-0.042,0.575,0.108,0.733c1.264,1.327,3.148,1.236,4.694,0.577
					c1.531-0.653,2.677-1.813,3.857-3.001c0.557-0.561,1.137-1.137,1.764-1.633c-1.04,1.848-2.08,3.695-3.118,5.544
					c-0.142,0.253-0.102,0.729,0.283,0.64c5.168-1.193,11.014-2.445,15.906,0.407c0.115,0.019,0.231,0.037,0.346,0.058
					c1.097,0.194,2.202,0.395,3.257,0.776c1.031,0.372,2.035,0.851,3.101,1.105c0.996,0.237,1.961,0.129,2.948-0.1
					c3.851-0.894,7.23-3.26,11.021-4.353c-0.056-0.551,0.167-1.085,0.439-1.545c0.406-0.688,0.942-1.289,1.489-1.851
					c1.14-1.172,2.357-2.338,3.814-3.033c0.788-0.376,1.614-0.652,2.451-0.875c0.671-0.178,1.323-0.331,2.016-0.368
					c1.464-0.077,2.947,0.127,4.406-0.066c0.656-0.087,1.176-0.283,1.552-0.895c0.381-0.62,0.59-1.346,0.826-2.038
					c0.233-0.685,0.471-1.402,0.888-1.989c0.392-0.552,0.925-1.06,1.488-1.406c0.459-0.282,0.966-0.444,1.473-0.597
					c0.748-0.227,1.483-0.488,2.215-0.771c1.522-0.589,2.922-1.469,4.296-2.37c1.204-0.789,2.404-1.599,3.689-2.232
					c-0.922-1.052-2.007-1.941-3.209-2.574c0.607-1.042,1.211-2.086,1.811-3.132c0.454-0.462,0.94-0.893,1.454-1.286
					C203.261,147.615,203.462,147.208,203.156,147.029z"/>
				<path style="fill:#8B8D8F;" d="M118.825,166.042c-1.119-1.9-3.391-2.264-5.423-2.192c-1.159,0.041-2.299,0.242-3.439,0.443
					c-1.367,0.242-2.731,0.514-4.066,0.897c-1.308,0.375-2.579,0.87-3.762,1.545c-0.596,0.34-1.142,0.766-1.747,1.09
					c-0.59,0.316-1.2,0.411-1.857,0.294c-1.235-0.22-2.333-0.943-3.599-1.039c-1.214-0.092-2.346,0.381-3.355,1.014
					c-0.941,0.59-1.799,1.309-2.73,1.913c-0.023-0.002-0.048-0.001-0.073,0.003c-2.365,0.44-4.751,0.729-7.159,0.599
					c-0.348-0.019-0.85,0.546-0.414,0.786c2.311,1.274,3.953,3.552,4.307,6.183c0.032,0.238,0.261,0.283,0.458,0.224
					c3.275-0.988,6.577-1.972,9.987-2.361c2.967-0.339,6.237-0.294,8.989,1.006c1.288,0.608,2.442,1.528,3.092,2.819
					c0.173,0.343,0.653,0.066,0.748-0.197c1.428-3.946,3.846-7.499,6.985-10.283c0.886-0.786,1.832-1.499,2.818-2.155
					C118.745,166.523,118.945,166.245,118.825,166.042z"/>
			</g>
			<g>
				<path style="fill:#F8F2E4;" d="M224.141,77.819c-1.221-3.461-4.268-5.748-7.341-7.504c-3.177-1.816-6.649-3.161-9.492-5.517
					c-1.28-1.06-2.411-2.325-3.169-3.804c-1.251,0.678-2.4,1.553-3.41,2.55c-0.027,0.027-0.053,0.055-0.08,0.082
					c-0.374,0.588-0.734,1.184-1.076,1.791c-0.515,0.915-0.994,1.851-1.435,2.804c-0.371,0.802-0.675,1.635-0.976,2.467
					c-0.246-1.629-0.417-3.271-0.732-4.888c-0.176-0.901-0.185-1.82-0.205-2.736c-0.012-0.556-0.012-1.111-0.005-1.667
					c-1.797,1.35-2.95,3.376-4.082,5.283c-0.033,0.056-0.11,0.078-0.167,0.044c-0.139-0.085-0.287-0.156-0.438-0.217
					c-0.635-0.26-1.365-0.401-1.91-0.841c-0.234-0.189-0.391-0.444-0.395-0.75c-0.002-0.152,0.022-0.304,0.029-0.456
					c0.01-0.215-0.011-0.429-0.042-0.641c-0.111-0.779-0.407-1.502-0.828-2.163c-0.447-0.702-1.008-1.309-1.515-1.965
					c-1.034-1.336-1.14-3.135-1.159-4.759c-0.005-0.409-0.02-0.821,0.027-1.228c0.043-0.371,0.124-0.736,0.239-1.09
					c0.234-0.719,0.592-1.391,0.99-2.031c0.532-0.856,1.147-1.666,1.688-2.519c-2.809,0.13-5.58-0.27-8.142-1.514
					c-1.383-0.672-2.657-1.554-3.759-2.627c-1.033-1.006-1.982-2.112-3.161-2.956c-1.132-0.81-2.455-1.277-3.832-0.838
					c-0.787,0.251-1.446,0.777-2.077,1.29c-0.657,0.534-1.316,1.067-2.021,1.537c-1.447,0.964-3.041,1.484-4.77,1.637
					c-1.697,0.149-3.397,0.035-5.089-0.119c-2.037-0.186-4.064-0.381-6.112-0.405c-2.139-0.025-4.261,0.091-6.392,0.269
					c-0.269,0.023-0.606,0.509-0.27,0.675c2.214,1.091,4.63,2.325,5.747,4.659c0.262,0.547,0.438,1.128,0.49,1.734
					c0.053,0.62-0.105,1.175-0.201,1.78c-0.096,0.605,0.02,1.171,0.503,1.584c0.228,0.194,0.463,0.347,0.705,0.464
					c0.579-0.207,1.168-0.384,1.767-0.525c1.108-0.262,2.234-0.413,3.367-0.49c0.156-0.09,0.312-0.181,0.466-0.272
					c0.669-0.14,1.342-0.261,2.019-0.358c2.177-0.314,4.373-0.437,6.571-0.332c4.409,0.21,8.779,1.257,12.787,3.107
					c1.127,0.52,2.224,1.103,3.285,1.748c0.509,0.309,1.003,0.638,1.492,0.975c0.343,0.552,0.617,1.144,0.794,1.779
					c0.034-0.241,0.079-0.48,0.13-0.718c-0.038,0.525-0.144,1.04-0.302,1.547c-0.39,1.25-1.144,2.22-1.984,3.168
					c-0.015,0.007-0.03,0.015-0.046,0.023c-0.017,0.008-0.032,0.042-0.023,0.057c-0.14,0.157-0.283,0.314-0.426,0.472
					c-0.173,0.189-0.201,0.588,0.154,0.548c1.373-0.156,2.767,0.144,4.08,0.528c1.183,0.346,2.385,0.722,3.515,1.218
					c1.067,0.469,1.958,1.103,2.681,2.022c0.661,0.84,1.272,1.782,2.306,2.198c0.812,0.327,1.684,0.318,2.542,0.189
					c-0.023,0.09,0.007,0.18,0.135,0.173c0.295-0.017,0.563-0.142,0.835-0.247c0.316-0.122,0.631-0.247,0.95-0.36
					c0.629-0.222,1.27-0.409,1.924-0.543c0.331-0.068,0.664-0.127,0.998-0.18c1.412,0.152,2.784,0.797,3.731,1.846
					c0.009,0.272,0.006,0.542-0.01,0.805c-0.073,1.161-0.317,2.298-0.564,3.432c-0.206,0.944-0.504,2.016,0.033,2.908
					c0.793,1.316,2.597,1.497,3.869,2.12c0.894,0.438,1.526,1.168,1.922,2.027c0.042,0.04,0.604,2.841,0.441,3.666
					c-0.199,1.013-0.493,2.006-0.79,2.994c-0.223,0.742-0.456,1.482-0.657,2.23c1.171-0.448,2.087-1.396,2.708-2.488
					c0.888-1.562,1.174-3.359,1.792-5.027c1.052-2.843,3.311-5.123,6.082-6.327c1.541-0.669,3.245-0.997,4.924-0.879
					C223.994,78.281,224.219,78.043,224.141,77.819z"/>
				<path style="fill:#D5D7D8;" d="M181.123,65.023c0.321-0.677,0.796-1.179,1.357-1.666c0.618-0.536,1.272-1.029,1.873-1.583
					c0.4-0.368,0.949-0.847,1-1.428c0.043-0.486-0.206-0.996-0.423-1.414c-0.322-0.619-0.721-1.199-1.137-1.758
					c-0.883-1.184-1.874-2.299-2.934-3.328c-1.078-1.048-2.312-1.91-3.671-2.556c-1.77-0.841-3.697-1.329-5.635-1.586
					c-1.953-0.258-3.934-0.287-5.898-0.161c-2.141,0.138-4.237,0.503-6.337,0.927c-2.372,0.479-4.802,0.949-7.231,0.681
					c-0.573-0.063-1.146-0.125-1.712-0.24c-0.421-0.085-0.837-0.192-1.251-0.304c0.07,0.261,0.122,0.526,0.145,0.798
					c0.053,0.62-0.105,1.175-0.201,1.78c-0.096,0.605,0.02,1.171,0.503,1.584c0.228,0.194,0.463,0.347,0.704,0.464
					c0.579-0.207,1.168-0.384,1.767-0.525c1.108-0.262,2.234-0.413,3.367-0.49c0.156-0.09,0.312-0.181,0.466-0.272
					c0.669-0.14,1.342-0.261,2.019-0.358c2.177-0.314,4.373-0.437,6.571-0.332c4.408,0.21,8.779,1.257,12.787,3.107
					c1.126,0.52,2.224,1.103,3.284,1.748c0.509,0.309,1.003,0.638,1.492,0.975c0.343,0.552,0.617,1.144,0.794,1.779
					c0.034-0.241,0.079-0.48,0.13-0.718c-0.038,0.525-0.144,1.04-0.302,1.547c-0.39,1.25-1.144,2.22-1.984,3.168
					c-0.015,0.007-0.03,0.015-0.046,0.023c-0.017,0.008-0.032,0.042-0.023,0.057c-0.141,0.157-0.283,0.314-0.426,0.472
					c-0.173,0.189-0.201,0.588,0.154,0.548c0.154-0.017,0.308-0.027,0.462-0.034C180.875,65.618,180.984,65.314,181.123,65.023z"/>
				<path style="fill:#F8F2E4;" d="M222.679,108.329c-1.63-0.821-3.482-1.104-5.049-2.069c-0.833-0.513-1.438-1.226-1.976-2.032
					c-0.524-0.785-1.034-1.563-1.753-2.187c-1.408-1.223-3.181-1.864-4.766-2.806c-1.59-0.945-3.37-2.685-3.135-4.717
					c0.043-0.373-0.417-0.207-0.517,0.005c-0.157,0.334-0.275,0.682-0.356,1.038c-0.007-0.024-0.014-0.048-0.02-0.071
					c-0.041-0.14-0.265,0.016-0.248,0.128c0.056,0.376,0.103,0.755,0.145,1.136c0.002,0.128,0.008,0.256,0.021,0.384
					c0.004,0.038,0.014,0.067,0.029,0.09c0.059,0.623,0.099,1.248,0.11,1.869c0.019,1.071-0.121,2.22-0.683,3.154
					c-0.286,0.474-0.67,0.811-1.071,1.182c-0.439,0.406-0.713,0.933-0.567,1.54c0.147,0.611,0.556,1.115,0.758,1.705
					c0.204,0.597,0.264,1.247,0.19,1.872c-0.075,0.629-0.288,1.232-0.637,1.761c-0.369,0.561-0.847,1.036-1.26,1.564
					c-0.764,0.976-1.237,2.118-1.45,3.335c-0.411,2.339,0.366,4.763,2.089,6.404c0.924,0.88,2.057,1.456,3.287,1.769
					c0.919,0.233,2.409,0.426,2.67,1.539c0.067,0.287,0.415,0.19,0.54-0.004c1.66-2.577,3.324-5.153,4.975-7.736
					c0.396-0.62,0.791-1.241,1.189-1.859c0.345-0.537,0.701-1.077,1.165-1.521c1.002-0.956,2.49-1.088,3.8-1.255
					c1.699-0.217,3.415-0.293,5.127-0.225c0.208,0.008,0.433-0.179,0.406-0.402C225.486,110.227,224.123,109.057,222.679,108.329z"
					/>
				<path style="fill:#D5D7D8;" d="M205.714,121.679c-0.981-1.772-1.428-3.778-1.479-5.794c-0.055-2.198,0.325-4.394,0.885-6.513
					c0.167-0.635,0.343-1.26,0.438-1.911c0.101-0.686,0.136-1.382,0.128-2.075c-0.014-1.316-0.188-2.622-0.334-3.928
					c-0.142-1.277-0.254-2.566-0.147-3.85c0.092-1.105,0.358-2.178,0.789-3.192c-0.051-0.233-0.423-0.083-0.512,0.106
					c-0.157,0.334-0.275,0.682-0.356,1.038c-0.007-0.024-0.013-0.048-0.02-0.071c-0.041-0.14-0.265,0.016-0.248,0.128
					c0.056,0.376,0.103,0.755,0.145,1.136c0.002,0.128,0.008,0.256,0.021,0.384c0.004,0.038,0.014,0.067,0.029,0.09
					c0.059,0.623,0.099,1.248,0.11,1.869c0.019,1.071-0.121,2.22-0.683,3.154c-0.286,0.474-0.67,0.811-1.071,1.182
					c-0.439,0.406-0.713,0.933-0.567,1.54c0.147,0.611,0.556,1.115,0.758,1.705c0.204,0.597,0.264,1.247,0.19,1.872
					c-0.075,0.629-0.288,1.232-0.637,1.761c-0.369,0.561-0.847,1.036-1.26,1.564c-0.764,0.976-1.237,2.118-1.45,3.335
					c-0.411,2.339,0.366,4.763,2.089,6.404c0.924,0.88,2.057,1.456,3.287,1.769c0.399,0.102,0.907,0.195,1.374,0.36
					C206.628,123.114,206.128,122.426,205.714,121.679z"/>
				<path style="fill:#F8F2E4;" d="M75.445,165.863c-1.94-1.899-3.25-4.3-4.495-6.684c-0.64-1.226-1.271-2.458-1.98-3.647
					c-0.741-1.243-1.558-2.44-2.426-3.598c-1.77-2.361-3.756-4.547-5.788-6.682c-1.007-1.058-1.999-2.149-3.067-3.147
					c-1.081-1.009-2.306-1.653-3.704-2.112c-1.561-0.512-3.129-0.967-4.648-1.599c-1.519-0.633-3.03-1.344-4.416-2.237
					c-0.021-0.022-0.044-0.042-0.065-0.065c-1.019-1.097-1.322-2.52-1.64-3.937c-0.579-2.576-1.723-4.97-3.401-7.013
					c-3.341-4.069-8.397-6.622-13.705-6.395c-5.338,0.228-10.379,3.02-13.545,7.298c-0.381,0.515-0.74,1.053-1.048,1.615
					c-0.107,0.194-0.068,0.432,0.196,0.416c4.898-0.279,9.85,0.98,14.043,3.518c1.122,0.68,2.178,1.456,3.173,2.311
					c-2.231,3.419-3.473,7.351-3.987,11.387c-0.543,4.26-0.344,8.589,0.113,12.847c0.26,2.429,0.61,4.847,0.981,7.262
					c0.047,0.309,0.403,0.235,0.57,0.079c1.711-1.599,3.508-3.104,5.388-4.502c0.931-0.692,1.881-1.359,2.849-1.999
					c0.476-0.315,0.956-0.623,1.441-0.925c0.492-0.306,0.983-0.638,1.515-0.87c0.521-0.228,1.068-0.322,1.616-0.128
					c0.464,0.164,0.874,0.449,1.29,0.705c0.758,0.465,1.578,0.765,2.469,0.829c1.745,0.126,3.455-0.474,5.09-1.003
					c1.8-0.582,3.716-1.21,5.613-0.78c0.236,1.657,0.475,3.313,0.714,4.97c0.071,0.494,0.772,0.098,0.745-0.287
					c-0.071-1.018,0.788-1.596,1.696-1.77c1.081-0.207,2.285,0.038,3.08,0.829c1.158,1.151,1.634,2.786,2.065,4.315
					c0.435,1.544,0.855,3.049,1.842,4.346c0.997,1.309,2.551,2.337,4.255,1.923c0.202-0.049,0.51-0.272,0.44-0.528
					c-0.713-2.63,1.888-5.323,4.479-5.066c0.582,0.295,1.148,0.625,1.692,1.002C75.198,166.758,75.729,166.14,75.445,165.863z"/>
				<path style="fill:#D5D7D8;" d="M24.539,119.393c2.593-0.357,5.208-0.314,7.619,0.814c5.08,2.376,7.312,7.782,9.103,12.736
					c0.784,2.167,1.59,4.418,3.134,6.177c0.815,0.929,1.809,1.674,2.915,2.223c1.226,0.609,2.505,1.119,3.74,1.714
					c4.96,2.389,9.647,5.36,13.443,9.389c1.754,1.862,3.276,3.923,5.01,5.801c0.596,0.645,1.226,1.241,1.894,1.78
					c-0.15-0.282-0.299-0.564-0.446-0.846c-0.641-1.226-1.271-2.458-1.98-3.647c-0.741-1.243-1.558-2.44-2.426-3.598
					c-1.77-2.361-3.756-4.547-5.788-6.682c-1.007-1.058-1.999-2.149-3.067-3.147c-1.081-1.009-2.306-1.653-3.704-2.112
					c-1.561-0.512-3.129-0.967-4.648-1.599c-1.519-0.633-3.03-1.344-4.415-2.237c-0.021-0.022-0.044-0.042-0.065-0.065
					c-1.019-1.097-1.322-2.52-1.64-3.937c-0.579-2.576-1.723-4.97-3.401-7.013c-3.341-4.069-8.397-6.622-13.705-6.395
					c-2.067,0.088-4.088,0.563-5.974,1.357C21.607,119.894,23.069,119.595,24.539,119.393z"/>
				<path style="fill:#F8F2E4;" d="M121.161,53.082c-2.751-2.949-4.879-6.505-6.116-10.346c-0.1-0.31-0.509-0.058-0.62,0.085
					c-1.327,1.711-2.465,3.561-3.407,5.509c-0.543-3.972-0.215-8.059,0.988-11.886c0.367-1.17,0.815-2.313,1.335-3.423
					c0.16-0.342-0.228-0.518-0.491-0.349c-4.968,3.193-11.132,3.433-16.855,3.201c-3.305-0.134-6.607-0.404-9.918-0.345
					c-1.583,0.028-3.201,0.092-4.761,0.387c-1.346,0.255-2.567,0.788-3.617,1.673c-2.107,1.776-3.207,4.512-4.122,7.036
					c-0.135,0.372,0.28,0.455,0.509,0.242c1.296-1.204,3.148-1.731,4.891-1.499c1.752,0.233,3.298,1.28,4.231,2.775
					c0.529,0.848,0.808,1.817,0.851,2.812c0.006,0.126,0.117,0.228,0.238,0.241c3.981,0.429,7.969,0.757,11.853,1.791
					c1.915,0.509,3.789,1.111,5.554,2.024c1.746,0.903,3.276,2.058,4.741,3.359c1.419,1.26,2.906,2.582,4.774,3.045
					c-0.001,0.004-0.002,0.008-0.003,0.013c-0.026,0.2,0.121,0.363,0.327,0.331c3.905-0.613,7.449-2.903,9.61-6.218
					C121.242,53.405,121.281,53.21,121.161,53.082z"/>
				<path style="fill:#D5D7D8;" d="M114.926,56.533c-1.746,0.194-3.548-0.003-5.179-0.67c-0.947-0.387-1.801-0.953-2.65-1.517
					c-0.909-0.605-1.797-1.24-2.693-1.862c-1.813-1.258-3.686-2.444-5.766-3.209c-1.906-0.701-3.921-0.978-5.921-1.268
					c-2.008-0.291-4.047-0.587-5.949-1.323c-0.914-0.354-1.79-0.809-2.573-1.402c-0.678-0.514-1.174-1.254-1.742-1.879
					c-0.586-0.646-1.264-1.151-2.13-1.339c-1.054-0.229-2.15-0.116-3.176,0.183c-1.129,0.329-2.177,0.845-3.206,1.403
					c-0.125,0.327-0.245,0.653-0.362,0.976c-0.135,0.372,0.28,0.455,0.509,0.242c1.296-1.204,3.148-1.731,4.891-1.499
					c1.752,0.233,3.298,1.28,4.231,2.775c0.529,0.848,0.808,1.817,0.851,2.812c0.006,0.126,0.117,0.228,0.238,0.241
					c3.981,0.429,7.969,0.757,11.853,1.791c1.915,0.509,3.789,1.111,5.554,2.024c1.746,0.903,3.276,2.058,4.741,3.359
					c1.419,1.26,2.906,2.582,4.774,3.045c-0.001,0.004-0.002,0.008-0.003,0.013c-0.026,0.2,0.121,0.363,0.327,0.331
					c3.466-0.545,6.646-2.412,8.829-5.142C118.729,55.653,116.844,56.319,114.926,56.533z"/>
				<path style="fill:#F8F2E4;" d="M76.654,52.001c-2.85-0.061-5.701-0.121-8.551-0.185c-2.094-0.048-4.65-0.207-6.223,1.463
					c-0.783,0.831-1.117,1.967-1.946,2.763c-0.717,0.689-1.618,1.157-2.485,1.625c-1.762,0.951-3.521,2.044-4.102,4.089
					c-0.517,1.818-0.099,3.976,1.265,5.319c-0.84,0.21-1.71,0.284-2.578,0.217c-0.557-0.043-1.111-0.137-1.649-0.288
					c-0.28-0.079-0.555-0.174-0.825-0.282c-0.199-0.08-0.472-0.286-0.69-0.211c-0.231,0.079-0.458,0.283-0.656,0.422
					c-0.217,0.151-0.432,0.306-0.641,0.469c-0.418,0.324-0.823,0.665-1.215,1.02c-0.788,0.716-1.523,1.487-2.227,2.285
					c-2.805,3.178-5.178,6.827-8.778,9.193c-1.935,1.272-4.154,2.107-6.497,1.984c-0.216-0.011-0.418,0.156-0.454,0.37
					c-0.58,3.437,0.261,6.879,1.271,10.152c1.031,3.342,2.295,6.718,2.491,10.243c0.053,0.949,0.025,1.908-0.129,2.847
					c-0.145,0.884-0.446,1.846-1.225,2.37c-0.134,0.09-0.254,0.267-0.204,0.434c0.046,0.152,0.219,0.21,0.362,0.144
					c2.028-0.942,4.052-1.899,6.021-2.958c0.983-0.528,1.958-1.073,2.904-1.663c0.934-0.582,1.888-1.142,2.795-1.765
					c3.567-2.45,6.696-5.675,8.516-9.641c1.094-2.385,1.663-4.979,2.841-7.328c1.118-2.231,2.869-4.06,4.456-5.956
					c0.803-0.959,1.57-1.942,2.237-3.002c0.676-1.075,1.255-2.21,1.768-3.371c1.04-2.357,1.805-4.822,2.666-7.247
					c0.775-2.182,1.622-4.34,2.819-6.33c1.04-1.728,2.327-3.388,3.945-4.619c0.027,0.14,0.147,0.249,0.307,0.216
					c1.666-0.34,3.187-1.083,4.485-2.18C76.894,52.459,76.977,52.008,76.654,52.001z"/>
				<path style="fill:#D5D7D8;" d="M72.731,53.447c-1.447,0.281-2.793,1.033-3.987,1.874c-1.232,0.867-2.35,1.903-3.324,3.052
					c-0.476,0.561-0.937,1.15-1.296,1.794c-0.377,0.676-0.692,1.385-0.978,2.104c-0.537,1.352-0.977,2.74-1.557,4.075
					c-0.585,1.347-1.327,2.659-2.224,3.823c-0.809,1.049-1.748,1.985-2.707,2.896c-1.012,0.961-2.013,1.925-2.985,2.926
					c-3.566,3.674-4.569,8.906-5.982,13.64c-0.694,2.327-1.496,4.677-2.79,6.748c-1.191,1.907-2.657,3.649-4.199,5.28
					c-1.485,1.57-3.077,3.049-4.778,4.384c0.357-0.184,0.714-0.367,1.068-0.557c0.983-0.528,1.958-1.073,2.904-1.663
					c0.934-0.582,1.888-1.142,2.795-1.765c3.567-2.45,6.696-5.675,8.516-9.641c1.094-2.385,1.663-4.979,2.841-7.328
					c1.118-2.231,2.869-4.06,4.456-5.956c0.803-0.959,1.57-1.942,2.237-3.002c0.676-1.075,1.256-2.21,1.768-3.371
					c1.04-2.357,1.805-4.822,2.666-7.247c0.774-2.182,1.622-4.34,2.819-6.33c1.04-1.728,2.327-3.388,3.945-4.619
					c0.026,0.14,0.147,0.249,0.307,0.216c1.28-0.261,2.472-0.762,3.545-1.476C74.765,53.266,73.74,53.252,72.731,53.447z"/>
				<path style="fill:#F8F2E4;" d="M202.158,146.691c-4.519-2.488-9.874-2.758-14.886-2.017c-0.107,0.016-0.212,0.035-0.319,0.052
					c-2.768,0.907-5.475,2.018-8.134,3.179c-2.467,1.077-4.945,2.154-7.376,3.311c-2.28,1.085-4.467,2.352-6.666,3.589
					c-2.22,1.248-4.46,2.475-6.81,3.465c-2.414,1.018-4.923,1.616-7.472,2.187c-5.608,1.256-11.268,2.262-16.888,3.459
					c-1.202,0.256-2.375,0.505-3.606,0.563c-1.238,0.058-2.477,0.004-3.714-0.039c-1.365-0.048-2.778-0.102-4.156,0.045
					c-0.411,0.204-0.821,0.408-1.232,0.613c-0.192,0.096-0.584,0.591-0.199,0.723c2.52,0.86,5.116,1.404,7.757,1.588
					c0.551,1.466,0.38,3.217-0.789,4.344c-0.191,0.184-0.041,0.534,0.107,0.679c1.249,1.23,3.111,1.147,4.639,0.535
					c1.513-0.606,2.646-1.682,3.812-2.783c0.551-0.52,1.123-1.054,1.743-1.515c-1.027,1.714-2.055,3.427-3.081,5.141
					c-0.14,0.234-0.101,0.676,0.28,0.593c5.108-1.106,10.885-2.267,15.721,0.377c0.114,0.018,0.228,0.034,0.342,0.053
					c1.084,0.18,2.176,0.367,3.219,0.72c1.019,0.345,2.011,0.789,3.065,1.024c0.984,0.22,1.938,0.12,2.913-0.093
					c3.807-0.829,7.146-3.023,10.892-4.037c-0.055-0.511,0.165-1.006,0.434-1.433c0.401-0.638,0.931-1.195,1.471-1.717
					c1.126-1.087,2.33-2.169,3.77-2.813c0.779-0.349,1.595-0.605,2.422-0.811c0.663-0.165,1.308-0.307,1.992-0.341
					c1.447-0.071,2.913,0.118,4.354-0.061c0.648-0.081,1.163-0.263,1.534-0.83c0.376-0.575,0.584-1.248,0.816-1.89
					c0.23-0.635,0.466-1.3,0.878-1.844c0.387-0.512,0.914-0.983,1.471-1.304c0.453-0.262,0.955-0.411,1.456-0.554
					c0.74-0.21,1.466-0.452,2.189-0.715c1.504-0.547,2.888-1.362,4.246-2.198c1.19-0.731,2.376-1.483,3.646-2.07
					c-0.911-0.975-1.984-1.8-3.171-2.387c0.6-0.966,1.197-1.934,1.79-2.904c0.449-0.429,0.929-0.828,1.437-1.193
					C202.262,147.234,202.46,146.857,202.158,146.691z"/>
				<path style="fill:#D5D7D8;" d="M128.685,165.371c3.124,0.5,6.267,0.723,9.421,0.428c6.268-0.588,12.502-1.686,18.479-3.696
					c5.738-1.93,11.048-4.899,16.259-7.936c2.588-1.508,5.161-3.041,7.782-4.491c2.576-1.426,5.16-2.823,7.935-3.83
					c1.836-0.667,3.71-1.095,5.611-1.442c-2.298-0.19-4.634-0.065-6.901,0.27c-0.107,0.016-0.212,0.035-0.319,0.052
					c-2.768,0.907-5.475,2.018-8.133,3.179c-2.467,1.077-4.945,2.154-7.376,3.311c-2.28,1.085-4.467,2.352-6.666,3.589
					c-2.221,1.248-4.46,2.475-6.81,3.465c-2.414,1.018-4.923,1.616-7.472,2.187c-5.608,1.256-11.268,2.262-16.888,3.459
					c-1.202,0.256-2.375,0.505-3.606,0.563c-1.238,0.058-2.477,0.004-3.714-0.039c-0.338-0.012-0.68-0.024-1.023-0.034
					C126.401,164.775,127.531,165.186,128.685,165.371z"/>
				<path style="fill:#F8F2E4;" d="M117.13,164.444c-1.098-1.866-3.329-2.222-5.324-2.152c-1.138,0.04-2.257,0.237-3.376,0.435
					c-1.342,0.238-2.681,0.505-3.992,0.881c-1.284,0.368-2.532,0.854-3.694,1.517c-0.585,0.334-1.121,0.752-1.715,1.07
					c-0.579,0.31-1.178,0.403-1.824,0.288c-1.212-0.216-2.29-0.926-3.533-1.02c-1.192-0.09-2.303,0.374-3.294,0.995
					c-0.924,0.579-1.766,1.285-2.68,1.878c-0.023-0.002-0.047-0.001-0.072,0.003c-2.321,0.432-4.664,0.716-7.028,0.588
					c-0.342-0.019-0.834,0.536-0.407,0.772c2.268,1.25,3.881,3.487,4.229,6.07c0.032,0.233,0.257,0.278,0.45,0.22
					c3.215-0.97,6.457-1.936,9.804-2.318c2.913-0.333,6.123-0.288,8.825,0.987c1.265,0.597,2.397,1.5,3.035,2.767
					c0.17,0.336,0.641,0.065,0.734-0.193c1.402-3.874,3.776-7.361,6.857-10.095c0.87-0.772,1.798-1.472,2.767-2.116
					C117.051,164.916,117.247,164.643,117.13,164.444z"/>
				<path style="fill:#D5D7D8;" d="M90.135,167.1c0.679-0.174,1.38-0.257,2.08-0.207c0.608,0.044,1.203,0.182,1.789,0.345
					c1.411,0.392,2.867,0.91,4.353,0.808c1.284-0.088,2.363-0.732,3.378-1.473c1.125-0.821,2.229-1.666,3.46-2.328
					c1.417-0.762,2.939-1.323,4.501-1.733c-0.423,0.066-0.845,0.14-1.266,0.215c-1.342,0.238-2.681,0.505-3.992,0.881
					c-1.284,0.368-2.532,0.854-3.694,1.517c-0.585,0.334-1.121,0.752-1.715,1.07c-0.579,0.31-1.178,0.403-1.824,0.288
					c-1.212-0.216-2.29-0.926-3.533-1.02c-1.192-0.09-2.303,0.374-3.294,0.995c-0.523,0.328-1.02,0.695-1.518,1.061
					C89.28,167.36,89.703,167.211,90.135,167.1z"/>
				<path style="fill:#D5D7D8;" d="M80.469,169.556c1.67,0.132,3.332-0.245,4.913-0.753c0.176-0.057,0.351-0.116,0.527-0.176
					c-1.757,0.258-3.527,0.396-5.309,0.3c-0.266-0.014-0.62,0.317-0.565,0.576C80.178,169.524,80.323,169.545,80.469,169.556z"/>
			</g>
			<g>
				<path style="opacity:0.71;fill:#EAC39C;" d="M208.505,124.965c0.092,0.23,0.405,0.137,0.523-0.046
					c0.146-0.226,0.292-0.453,0.438-0.679C209.167,124.507,208.838,124.741,208.505,124.965z"/>
			</g>
			<g>
				<path style="opacity:0.71;fill:#EAC39C;" d="M129.118,171.992c-0.023-0.045-0.024-0.112,0.019-0.148
					c0.15-0.124,0.306-0.241,0.462-0.357c0.377-0.279,0.762-0.55,1.112-0.863c0.165-0.147,0.326-0.304,0.461-0.48
					c0.085-0.112,0.208-0.274,0.225-0.415c0.005-0.042-0.023-0.147-0.037-0.216c-0.025-0.126-0.052-0.251-0.081-0.375
					c-0.074-0.324-0.155-0.646-0.244-0.966c-0.081-0.291-0.163-0.585-0.276-0.865c-0.027-0.067-0.069-0.161-0.102-0.205
					c-0.007-0.009-0.002-0.002-0.002-0.002c-0.018-0.016-0.037-0.031-0.055-0.046c-0.017-0.013-0.045-0.033-0.072-0.05
					c-0.315-0.194-0.732-0.21-1.093-0.21c-1.048-0.002-2.097,0.201-3.132,0.381c0.715,0.103,1.433,0.183,2.155,0.233
					c0.551,1.466,0.38,3.217-0.789,4.344c-0.191,0.184-0.041,0.534,0.107,0.679c0.618,0.608,1.385,0.895,2.188,0.955
					C129.654,172.936,129.362,172.474,129.118,171.992z"/>
				<path style="opacity:0.71;fill:#EAC39C;" d="M195.572,156.58c-0.872,0.055-1.745,0.094-2.614,0.191
					c-0.841,0.094-1.684,0.244-2.479,0.543c-0.653,0.246-1.295,0.576-1.711,1.157c-0.39,0.545-0.563,1.223-0.655,1.878
					c-0.102,0.731-0.227,1.462-0.44,2.169c-0.292,0.966-0.775,1.83-1.35,2.639c0.39-0.118,0.717-0.323,0.973-0.715
					c0.376-0.575,0.584-1.249,0.816-1.89c0.23-0.635,0.466-1.3,0.878-1.844c0.387-0.512,0.914-0.983,1.471-1.304
					c0.453-0.262,0.955-0.411,1.456-0.554c0.74-0.21,1.466-0.452,2.189-0.715c1.224-0.445,2.368-1.069,3.484-1.736
					C196.924,156.506,196.238,156.538,195.572,156.58z"/>
				<path style="opacity:0.71;fill:#EAC39C;" d="M176.434,166.493c-1.599,0.344-3.227,0.863-4.563,1.835
					c-0.688,0.501-1.243,1.157-1.766,1.822c-0.45,0.571-0.867,1.104-1.497,1.491c-0.366,0.225-0.764,0.396-1.144,0.594
					c-0.407,0.213-0.811,0.431-1.217,0.646c-0.846,0.446-1.702,0.886-2.603,1.212c-0.839,0.304-1.678,0.45-2.569,0.338
					c-0.56-0.071-1.113-0.196-1.677-0.237c-0.572-0.042-1.149,0.042-1.717,0.105c-1.003,0.112-2.021,0.302-3.026,0.105
					c-0.437-0.085-0.86-0.229-1.214-0.504c-0.316-0.245-0.595-0.535-0.865-0.829c-0.583-0.634-1.12-1.36-1.82-1.873
					c-0.273-0.2-0.543-0.321-0.884-0.338c-0.352-0.017-0.706,0.027-1.052,0.091c-1.643,0.301-3.172,1.021-4.802,1.369
					c-1.91,0.408-3.94-0.229-5.818,0.382c-0.838,0.273-1.561,0.753-2.328,1.172c-0.325,0.178-0.657,0.325-0.997,0.44
					c0.056,0.076,0.15,0.118,0.291,0.088c5.107-1.106,10.885-2.267,15.721,0.377c0.114,0.018,0.228,0.035,0.342,0.053
					c1.084,0.18,2.176,0.367,3.219,0.72c1.019,0.345,2.011,0.789,3.065,1.024c0.984,0.22,1.938,0.12,2.913-0.093
					c3.807-0.829,7.146-3.023,10.892-4.037c-0.055-0.511,0.165-1.006,0.434-1.433c0.401-0.638,0.931-1.195,1.471-1.717
					c1.126-1.087,2.33-2.169,3.77-2.813c0.145-0.065,0.292-0.123,0.439-0.182C177.099,166.36,176.766,166.422,176.434,166.493z"/>
			</g>
			<g>
				<path style="opacity:0.57;fill:#EAC39C;" d="M210.518,100.349c0.519,0.289,1.08,0.513,1.543,0.892
					c0.435,0.355,0.803,0.885,0.752,1.47c-0.047,0.536-0.346,1.023-0.591,1.494c0.612,0.42,1.277,0.752,1.942,1.079
					c0.702,0.345,1.44,0.678,2.073,1.143c0.442,0.325,0.859,0.704,1.354,0.948c0.565,0.279,1.189,0.336,1.809,0.277
					c0.372-0.036,0.739-0.105,1.105-0.176c-0.988-0.334-1.978-0.663-2.874-1.215c-0.833-0.513-1.438-1.226-1.976-2.032
					c-0.524-0.785-1.034-1.563-1.753-2.187c-1.387-1.205-3.127-1.846-4.694-2.766C209.597,99.689,210.019,100.071,210.518,100.349z"
					/>
				<path style="opacity:0.57;fill:#EAC39C;" d="M220.153,112.49c-0.331-0.132-0.683-0.205-1.039-0.233
					c-0.801-0.063-1.632,0.079-2.408,0.268c-0.631,0.153-1.412,0.355-1.762,0.96c-0.133,0.229-0.184,0.494-0.232,0.752
					c-0.061,0.324-0.121,0.647-0.23,0.959c-0.267,0.764-0.756,1.406-1.305,1.99c-0.57,0.606-1.199,1.167-1.686,1.847
					c-0.243,0.34-0.426,0.707-0.597,1.087c-0.184,0.411-0.237,0.872-0.28,1.316c-0.041,0.425-0.068,0.854-0.161,1.272
					c1.186-1.839,2.371-3.679,3.549-5.523c0.396-0.62,0.791-1.241,1.189-1.859c0.345-0.538,0.701-1.077,1.165-1.521
					c1.002-0.956,2.49-1.088,3.8-1.255c0.035-0.004,0.07-0.007,0.104-0.011C220.225,112.522,220.19,112.504,220.153,112.49z"/>
			</g>
			<path style="opacity:0.61;fill:#EAC39C;" d="M205.176,63.735c0.199,0.515,0.501,0.956,0.882,1.353
				c0.271,0.282,0.543,0.562,0.822,0.837c0.685,0.675,1.395,1.325,2.14,1.934c0.752,0.615,1.542,1.198,2.398,1.66
				c0.361,0.195,0.734,0.368,1.126,0.49c0.207,0.064,0.413,0.115,0.631,0.115c0.302-0.001,0.601-0.058,0.899-0.1
				c0.275-0.038,0.553-0.068,0.83-0.033c0.226,0.029,0.432,0.116,0.639,0.207c0.465,0.205,0.905,0.465,1.335,0.732
				c0.889,0.552,1.74,1.169,2.665,1.66c0.526,0.279,1.08,0.524,1.602,0.819c-1.294-1.216-2.816-2.221-4.345-3.095
				c-3.177-1.816-6.649-3.161-9.492-5.517c-0.969-0.803-1.852-1.723-2.553-2.764C204.854,62.612,204.964,63.187,205.176,63.735z"/>
			<path style="opacity:0.61;fill:#EAC39C;" d="M149.86,44.598c0.63,0.153,1.224,0.398,1.806,0.68
				c0.57,0.276,1.135,0.58,1.747,0.756c0.315,0.09,0.629,0.171,0.959,0.178c0.294,0.007,0.586-0.032,0.873-0.093
				c0.617-0.133,1.211-0.352,1.83-0.475c0.627-0.125,1.266-0.2,1.904-0.227c0.646-0.027,1.293-0.014,1.94-0.031
				c0.656-0.017,1.314-0.063,1.953-0.219c0.61-0.149,1.158-0.415,1.695-0.735c0.511-0.304,1.004-0.644,1.461-1.025
				c0.451-0.377,0.912-0.807,1.21-1.32c0.097-0.167,0.179-0.34,0.259-0.515c-0.595,0.483-1.195,0.96-1.833,1.385
				c-1.447,0.964-3.041,1.484-4.77,1.637c-1.697,0.149-3.397,0.035-5.089-0.119c-2.037-0.186-4.064-0.381-6.112-0.405
				c-2.139-0.025-4.261,0.091-6.392,0.269c-0.116,0.01-0.245,0.106-0.327,0.226C145.265,44.715,147.587,44.044,149.86,44.598z"/>
			<path style="opacity:0.61;fill:#EAC39C;" d="M175.259,42.73c0.43,0.745,0.794,1.549,1.015,2.382
				c0.206,0.774,0.378,1.579,0.742,2.298c0.152,0.301,0.34,0.59,0.635,0.766c0.329,0.196,0.702,0.31,1.07,0.408
				c0.835,0.222,1.697,0.333,2.525,0.58c0.785,0.235,1.49,0.707,2.302,0.861c0.527,0.1,0.966-0.122,1.424-0.354
				c0.891-0.453,1.794-0.889,2.788-1.056c0.194-0.033,0.39-0.056,0.586-0.076c0.105-0.157,0.211-0.313,0.312-0.473
				c-2.809,0.13-5.58-0.27-8.142-1.514c-1.383-0.672-2.657-1.554-3.759-2.627c-0.678-0.66-1.321-1.362-2.015-2.006
				C174.926,42.181,175.099,42.452,175.259,42.73z"/>
			<path style="opacity:0.61;fill:#EAC39C;" d="M113.346,32.754c-0.082-0.149-0.316-0.197-0.495-0.082
				c-0.159,0.103-0.32,0.202-0.482,0.298C112.691,32.89,113.017,32.818,113.346,32.754z"/>
			<path style="opacity:0.61;fill:#EAC39C;" d="M78.773,37.139c0.531-0.242,1.078-0.455,1.645-0.595
				c0.632-0.156,1.266-0.195,1.915-0.188c0.777,0.008,1.555,0.043,2.329,0.119c0.71,0.07,1.449,0.144,2.135,0.35
				c1.19,0.356,2.219,1.246,3.479,1.372c0.658,0.066,1.317-0.115,1.94-0.306c0.647-0.199,1.285-0.443,1.951-0.573
				c1.485-0.291,3.03-0.226,4.534-0.199c0.766,0.014,1.533,0.025,2.299-0.009c0.655-0.029,1.343-0.059,1.976-0.244
				c0.615-0.18,1.189-0.522,1.761-0.804c0.551-0.272,1.102-0.544,1.655-0.811c-3.39,0.731-6.973,0.762-10.398,0.623
				c-3.305-0.134-6.607-0.404-9.918-0.345c-1.583,0.028-3.201,0.092-4.761,0.387c-1.346,0.255-2.567,0.788-3.617,1.673
				c-0.066,0.056-0.128,0.115-0.192,0.172C77.927,37.548,78.346,37.334,78.773,37.139z"/>
			<path style="opacity:0.61;fill:#EAC39C;" d="M112.755,34.373c-0.314,0.466-0.66,0.913-0.991,1.364
				c-0.944,1.285-2.081,2.854-1.614,4.539c0.145,0.523,0.465,0.957,0.772,1.399c0.189-1.772,0.55-3.526,1.085-5.229
				C112.226,35.744,112.479,35.053,112.755,34.373z"/>
			<path style="opacity:0.61;fill:#EAC39C;" d="M114.973,42.631c-0.037,0.672-0.03,1.346-0.019,2.019
				c0.007,0.412,0.042,0.836-0.013,1.245c-0.043,0.322-0.12,0.639-0.19,0.957c-0.061,0.279-0.128,0.563-0.141,0.849
				c-0.009,0.211,0.049,0.508,0.206,0.664c0.09,0.09,0.242,0.104,0.351,0.167c0.243,0.139,0.428,0.4,0.583,0.625
				c0.416,0.603,0.582,1.338,0.92,1.982c0.215,0.41,0.427,0.935,0.819,1.214c0.246,0.175,0.551,0.157,0.839,0.154
				c0.458-0.005,0.952-0.017,1.388,0.139c0.532,0.19,0.981,0.548,1.463,0.833c0.002,0.001,0.005,0.003,0.007,0.004
				c0.063-0.129,0.079-0.291-0.025-0.402c-2.751-2.949-4.879-6.505-6.116-10.346C115.029,42.686,115.003,42.655,114.973,42.631z"/>
			<path style="opacity:0.61;fill:#EAC39C;" d="M29.999,93.441c-0.004-0.044-0.008-0.087-0.012-0.131
				c-0.104-1.078-0.234-2.154-0.355-3.23c-0.086-0.766-0.193-1.541-0.196-2.313c-0.003-0.636,0.122-1.29,0.251-1.911
				c0.18-0.862,0.442-1.707,0.805-2.51c0.029-0.064,0.112-0.069,0.167-0.044c0.229,0.108,0.465,0.201,0.709,0.267
				c0.361,0.097,0.741,0.126,1.107,0.034c0.326-0.082,0.622-0.253,0.886-0.458c0.634-0.492,1.144-1.132,1.732-1.676
				c0.801-0.74,1.721-1.366,2.631-1.964c0.472-0.31,0.951-0.61,1.431-0.907c0.352-0.218,0.696-0.43,1.075-0.599
				c0.718-0.319,1.476-0.578,2.147-0.992c0.261-0.161,0.491-0.35,0.636-0.625c0.188-0.355,0.255-0.776,0.329-1.167
				c0.078-0.409,0.143-0.827,0.283-1.221c0.166-0.469,0.363-0.921,0.618-1.349c0.546-0.915,1.275-1.673,1.968-2.473
				c1.03-1.187,1.992-2.443,3.07-3.588c-0.139-0.066-0.284-0.118-0.411-0.075c-0.231,0.079-0.458,0.284-0.656,0.422
				c-0.217,0.151-0.432,0.306-0.641,0.469c-0.418,0.324-0.823,0.665-1.215,1.02c-0.788,0.715-1.523,1.487-2.227,2.285
				c-2.805,3.178-5.178,6.827-8.778,9.193c-1.935,1.272-4.154,2.107-6.497,1.984c-0.216-0.011-0.418,0.156-0.454,0.37
				c-0.58,3.437,0.261,6.879,1.271,10.152C29.78,92.75,29.889,93.095,29.999,93.441z"/>
			<path style="opacity:0.61;fill:#EAC39C;" d="M54.235,62.345c0.56-0.584,1.378-0.779,2.094-1.096
				c0.787-0.347,1.474-0.884,2.058-1.509c0.288-0.308,0.557-0.641,0.889-0.904c0.324-0.256,0.665-0.489,1.005-0.724
				c0.544-0.375,1.101-0.779,1.313-1.436c0.213-0.661,0.103-1.326-0.017-1.989c-0.042-0.23-0.055-0.457,0.001-0.687
				c0.075-0.306,0.246-0.585,0.427-0.842c-0.041,0.04-0.084,0.076-0.124,0.118c-0.783,0.831-1.117,1.967-1.946,2.763
				c-0.717,0.689-1.618,1.157-2.485,1.625c-1.762,0.951-3.521,2.044-4.102,4.089c-0.225,0.791-0.272,1.645-0.143,2.469
				C53.412,63.528,53.727,62.875,54.235,62.345z"/>
			<path style="opacity:0.61;fill:#EAC39C;" d="M27.082,132.469c-0.04-0.183-0.075-0.367-0.118-0.549
				c-0.077-0.324-0.192-0.634-0.393-0.902c-0.225-0.3-0.493-0.582-0.744-0.86c-0.368-0.406-0.756-0.794-1.12-1.203
				c-0.401-0.451-0.758-0.933-1.089-1.438c-0.209-0.319-0.451-0.674-0.795-0.862c-0.239-0.13-0.508-0.128-0.771-0.093
				c-0.378,0.05-0.749,0.138-1.127,0.188c-0.586,0.079-1.166,0.066-1.754,0.015c-1.282-0.112-2.571-0.381-3.763-0.874
				c-0.056-0.023-0.111-0.083-0.085-0.15c0.208-0.541,0.464-1.062,0.757-1.562c0.724-1.235,1.638-2.342,2.614-3.392
				c-2.393,1.267-4.507,3.066-6.128,5.257c-0.381,0.515-0.74,1.053-1.048,1.615c-0.107,0.194-0.068,0.432,0.196,0.416
				c4.898-0.279,9.85,0.98,14.043,3.518C26.21,131.87,26.65,132.164,27.082,132.469z"/>
			<path style="opacity:0.61;fill:#EAC39C;" d="M24.796,155.305c0.024-0.167,0.047-0.334,0.076-0.5
				c0.322-1.855,0.873-3.663,1.17-5.523c0.079-0.497,0.141-0.997,0.179-1.499c0.04-0.517-0.065-1.057-0.144-1.566
				c-0.151-0.975-0.332-1.984,0.008-2.94c0.296-0.834,0.819-1.554,1.291-2.294c0.243-0.381,0.475-0.771,0.659-1.184
				c0.201-0.449,0.309-0.926,0.443-1.398c0.513-1.797,1.241-3.507,2.385-4.992c-0.208-0.053-0.433,0.005-0.629,0.088
				c-0.62,0.26-1.146,0.753-1.64,1.196c-0.112,0.1-0.223,0.204-0.334,0.309c-1.813,3.152-2.859,6.68-3.319,10.292
				C24.519,148.611,24.548,151.97,24.796,155.305z"/>
			<path style="opacity:0.61;fill:#EAC39C;" d="M66.576,169.92c-0.431-0.388-0.925-0.687-1.437-0.953
				c-0.313-0.162-0.483-0.38-0.614-0.706c-0.235-0.585-0.367-1.205-0.51-1.816c-0.17-0.726-0.345-1.452-0.561-2.166
				c-0.199-0.658-0.421-1.333-0.785-1.922c-0.264-0.427-0.632-0.677-1.071-0.907c-0.355-0.185-0.727-0.345-1.108-0.476
				c0.888,1.109,1.305,2.541,1.686,3.89c0.435,1.544,0.855,3.049,1.842,4.346c0.867,1.138,2.155,2.063,3.596,2.013
				C67.299,170.764,66.994,170.297,66.576,169.92z"/>
			<path style="opacity:0.61;fill:#EAC39C;" d="M54.897,161.467c-0.074-0.63-0.132-1.264-0.151-1.898
				c-0.008-0.26-0.009-0.521,0.006-0.781c0.013-0.221,0.028-0.454,0.105-0.663c0.435-1.169,1.708-1.72,2.425-2.686
				c-0.711-0.374-1.469-0.668-2.269-0.775c-0.677-0.09-1.36-0.035-2.025,0.108c-1.304,0.281-2.545,0.799-3.846,1.097
				c-0.597,0.137-1.204,0.217-1.8,0.361c-0.561,0.135-1.12,0.276-1.684,0.396c-0.59,0.125-1.188,0.237-1.791,0.273
				c-0.431,0.026-0.928,0.031-1.301-0.216c-0.485-0.321-0.804-0.86-1.071-1.362c-0.257-0.484-0.465-0.994-0.726-1.475
				c-1.19,0.736-2.492,1.248-3.721,1.912c-1.107,0.598-2.112,1.377-2.786,2.457c-0.559,0.896-1.217,1.721-1.917,2.511
				c0.819-0.6,1.65-1.185,2.498-1.745c0.476-0.315,0.956-0.623,1.441-0.925c0.492-0.306,0.983-0.638,1.515-0.87
				c0.521-0.228,1.068-0.322,1.616-0.128c0.464,0.164,0.874,0.449,1.29,0.704c0.758,0.465,1.578,0.765,2.469,0.829
				c1.745,0.126,3.455-0.474,5.09-1.003c1.8-0.582,3.716-1.21,5.613-0.78c0.236,1.657,0.475,3.313,0.714,4.97
				c0.033,0.231,0.204,0.266,0.374,0.2C54.941,161.807,54.917,161.637,54.897,161.467z"/>
			<path style="opacity:0.71;fill:#EAC39C;" d="M113.922,166.449c-0.224,0.053-0.447,0.111-0.667,0.18
				c-0.229,0.072-0.459,0.154-0.671,0.268c-0.32,0.171-0.594,0.415-0.851,0.668c-0.521,0.513-0.972,1.112-1.559,1.554
				c-0.521,0.392-1.081,0.728-1.616,1.102c-0.531,0.371-1.119,0.784-1.467,1.344c-0.313,0.503-0.342,1.133-0.318,1.709
				c0.03,0.721,0.154,1.435,0.261,2.148c0.048,0.318,0.098,0.641,0.13,0.965c0.088,0.141,0.176,0.282,0.266,0.423
				c1.419-3.704,3.728-7.039,6.697-9.672c0.263-0.233,0.533-0.456,0.807-0.676C114.595,166.468,114.257,166.466,113.922,166.449z"/>
			<path style="opacity:0.71;fill:#EAC39C;" d="M103.878,174.403c-0.141-0.47-0.218-0.97-0.431-1.416
				c-0.205-0.43-0.563-0.744-0.942-1.021c-0.348-0.253-0.731-0.458-1.129-0.622c-0.846-0.35-1.763-0.542-2.676-0.59
				c-0.794-0.042-1.639,0.01-2.382,0.32c-1.092,0.455-2.13,1.039-3.195,1.552c-0.542,0.261-1.091,0.509-1.653,0.723
				c-0.469,0.179-0.944,0.354-1.447,0.397c-0.954,0.081-1.908-0.112-2.863-0.092c-0.407,0.009-0.851,0.045-1.214,0.249
				c-0.347,0.195-0.604,0.536-0.828,0.856c-0.242,0.346-0.455,0.719-0.679,1.084c0.064,0.169,0.26,0.199,0.431,0.147
				c3.214-0.97,6.457-1.936,9.804-2.318c2.913-0.333,6.123-0.288,8.825,0.987c0.204,0.096,0.402,0.203,0.597,0.315
				C104.013,174.788,103.937,174.599,103.878,174.403z"/>
		</g>
	</g>
</g>
</svg>
