<svg width="500" height="500" viewBox="0 0 500 500" fill="none" xmlns="http://www.w3.org/2000/svg">
<path d="M392.275 380.655C384.629 388.578 377.395 393.687 371.679 397.724C304.488 445.176 224.984 431.344 208.088 427.966C183.136 422.978 134.906 413.336 100.036 372.975C47.2815 311.911 55.4962 215.708 96.4164 152.203C103.901 140.587 143.439 76.1142 223.799 65.7748C272.432 59.5175 329.123 72.1377 370.177 105.992C456.352 177.054 450.218 320.614 392.275 380.655Z" fill="url(#paint0_linear_384_191)"/>
<path d="M134.32 167.623C134.355 165.827 135.863 164.383 137.713 164.383H249.877C251.751 164.383 253.741 165.872 253.741 167.692V421.917C253.741 423.275 252.949 424.578 251.958 425.537C250.968 426.497 249.507 427.034 248.108 427.03L134.716 426.729C133.305 426.725 131.925 426.172 130.938 425.192C129.951 424.213 129.395 422.887 129.422 421.516L134.32 167.623Z" fill="#BDD0FB"/>
<g opacity="0.52">
<path d="M198.734 182.399L235.426 182.276L235.412 177.817L198.762 177.93L198.734 182.399Z" fill="white"/>
<path d="M198.634 198.821L235.476 198.658L235.462 194.163L198.661 194.315L198.634 198.821Z" fill="white"/>
<path d="M198.532 215.379L235.527 215.175L235.513 210.643L198.56 210.835L198.532 215.379Z" fill="white"/>
<path d="M198.43 232.074L235.578 231.829L235.564 227.259L198.458 227.493L198.43 232.074Z" fill="white"/>
<path d="M198.327 248.909L235.629 248.622L235.615 244.014L198.355 244.289L198.327 248.909Z" fill="white"/>
<path d="M198.118 283.002L235.734 282.629L235.719 277.943L198.147 278.304L198.118 283.002Z" fill="white"/>
<path d="M197.798 335.23L235.894 334.722L235.879 329.917L197.828 330.412L197.798 335.23Z" fill="white"/>
<path d="M198.223 265.884L235.681 265.554L235.667 260.908L198.251 261.226L198.223 265.884Z" fill="white"/>
<path d="M198.012 300.264L235.786 299.847L235.772 295.122L198.041 295.527L198.012 300.264Z" fill="white"/>
<path d="M197.906 317.673L235.84 317.211L235.825 312.446L197.935 312.896L197.906 317.673Z" fill="white"/>
<path d="M197.69 352.936L235.948 352.382L235.933 347.536L197.719 348.077L197.69 352.936Z" fill="white"/>
<path d="M197.58 370.795L236.003 370.194L235.987 365.306L197.61 365.894L197.58 370.795Z" fill="white"/>
<path d="M197.47 388.808L236.058 388.159L236.043 383.229L197.5 383.865L197.47 388.808Z" fill="white"/>
<path d="M197.359 406.977L236.113 406.279L236.098 401.307L197.389 401.991L197.359 406.977Z" fill="white"/>
<path d="M150.629 182.561L187.55 182.437L187.59 177.964L150.71 178.077L150.629 182.561Z" fill="white"/>
<path d="M150.329 199.035L187.404 198.871L187.444 194.361L150.412 194.515L150.329 199.035Z" fill="white"/>
<path d="M150.027 215.646L187.256 215.441L187.296 210.894L150.11 211.088L150.027 215.646Z" fill="white"/>
<path d="M149.723 232.396L187.107 232.149L187.148 227.564L149.807 227.8L149.723 232.396Z" fill="white"/>
<path d="M149.416 249.285L186.956 248.996L186.998 244.373L149.5 244.651L149.416 249.285Z" fill="white"/>
<path d="M148.794 283.491L186.652 283.115L186.694 278.414L148.88 278.778L148.794 283.491Z" fill="white"/>
<path d="M147.842 335.895L186.185 335.384L186.228 330.563L147.929 331.061L147.842 335.895Z" fill="white"/>
<path d="M149.106 266.316L186.805 265.984L186.846 261.323L149.191 261.643L149.106 266.316Z" fill="white"/>
<path d="M148.479 300.811L186.498 300.391L186.54 295.651L148.566 296.058L148.479 300.811Z" fill="white"/>
<path d="M148.162 318.279L186.342 317.814L186.385 313.033L148.249 313.485L148.162 318.279Z" fill="white"/>
<path d="M147.518 353.663L186.027 353.105L186.07 348.242L147.607 348.787L147.518 353.663Z" fill="white"/>
<path d="M147.193 371.583L185.867 370.978L185.911 366.073L147.282 366.665L147.193 371.583Z" fill="white"/>
<path d="M146.864 389.659L185.706 389.006L185.751 384.059L146.954 384.699L146.864 389.659Z" fill="white"/>
<path d="M146.533 407.892L185.544 407.189L185.589 402.199L146.624 402.888L146.533 407.892Z" fill="white"/>
</g>
<path d="M69.9548 237.746C70.004 235.669 72.1362 233.96 74.7498 233.96H173.539C176.187 233.96 178.789 235.758 178.789 237.863V425.991C178.789 427.003 178.055 427.974 177.152 428.689C176.25 429.404 174.913 429.804 173.639 429.802L70.35 429.578C69.0647 429.575 67.8063 429.162 66.9074 428.432C66.0085 427.702 65.5016 426.693 65.5256 425.672L69.9548 237.746Z" fill="#BDD0FB"/>
<path d="M142.708 256.129L170.851 256.099L171.074 244.636H142.904L142.708 256.129Z" fill="url(#paint1_linear_384_191)"/>
<path d="M111.163 256.123L139.277 256.093L139.47 244.636H111.328L111.163 256.123Z" fill="url(#paint2_linear_384_191)"/>
<path d="M79.6495 256.117L107.736 256.087L107.898 244.636H79.7844L79.6495 256.117Z" fill="url(#paint3_linear_384_191)"/>
<path d="M142.356 276.705L170.45 276.719L170.672 265.331L142.551 265.322L142.356 276.705Z" fill="url(#paint4_linear_384_191)"/>
<path d="M110.866 276.689L138.932 276.703L139.124 265.321L111.031 265.311L110.866 276.689Z" fill="url(#paint5_linear_384_191)"/>
<path d="M79.4076 276.673L107.445 276.687L107.607 265.31L79.542 265.301L79.4076 276.673Z" fill="url(#paint6_linear_384_191)"/>
<path d="M142.005 297.14L170.05 297.163L170.272 285.814L142.2 285.796L142.005 297.14Z" fill="url(#paint7_linear_384_191)"/>
<path d="M110.57 297.113L138.587 297.137L138.778 285.794L110.734 285.775L110.57 297.113Z" fill="url(#paint8_linear_384_191)"/>
<path d="M79.1666 297.087L107.155 297.11L107.316 285.773L79.3005 285.755L79.1666 297.087Z" fill="url(#paint9_linear_384_191)"/>
<path d="M141.656 317.503L169.652 317.536L169.873 306.226L141.85 306.199L141.656 317.503Z" fill="url(#paint10_linear_384_191)"/>
<path d="M110.276 317.467L138.244 317.499L138.435 306.195L110.439 306.168L110.276 317.467Z" fill="url(#paint11_linear_384_191)"/>
<path d="M78.9264 317.431L106.867 317.463L107.027 306.165L79.0597 306.137L78.9264 317.431Z" fill="url(#paint12_linear_384_191)"/>
<path d="M141.308 337.797L169.256 337.838L169.476 326.568L141.502 326.531L141.308 337.797Z" fill="url(#paint13_linear_384_191)"/>
<path d="M109.982 337.75L137.902 337.792L138.092 326.527L110.145 326.49L109.982 337.75Z" fill="url(#paint14_linear_384_191)"/>
<path d="M78.6869 337.704L106.579 337.745L106.739 326.486L78.8198 326.45L78.6869 337.704Z" fill="url(#paint15_linear_384_191)"/>
<path d="M140.961 358.02L168.861 358.071L169.08 346.839L141.154 346.794L140.961 358.02Z" fill="url(#paint16_linear_384_191)"/>
<path d="M109.689 357.964L137.561 358.014L137.75 346.788L109.852 346.743L109.689 357.964Z" fill="url(#paint17_linear_384_191)"/>
<path d="M78.4484 357.907L106.292 357.958L106.451 346.737L78.5808 346.692L78.4484 357.907Z" fill="url(#paint18_linear_384_191)"/>
<path d="M140.616 378.174L168.467 378.233L168.685 367.04L140.808 366.986L140.616 378.174Z" fill="url(#paint19_linear_384_191)"/>
<path d="M109.397 378.108L137.221 378.167L137.409 366.98L109.559 366.925L109.397 378.108Z" fill="url(#paint20_linear_384_191)"/>
<path d="M78.2104 378.042L106.006 378.101L106.165 366.919L78.3425 366.864L78.2104 378.042Z" fill="url(#paint21_linear_384_191)"/>
<path d="M140.271 398.259L168.074 398.327L168.292 387.172L140.462 387.109L140.271 398.259Z" fill="url(#paint22_linear_384_191)"/>
<path d="M109.107 398.182L136.882 398.25L137.07 387.101L109.268 387.038L109.107 398.182Z" fill="url(#paint23_linear_384_191)"/>
<path d="M77.9735 398.106L105.721 398.174L105.879 387.031L78.105 386.968L77.9735 398.106Z" fill="url(#paint24_linear_384_191)"/>
<path d="M139.928 418.274L167.683 418.351L167.9 407.235L140.118 407.163L139.928 418.274Z" fill="url(#paint25_linear_384_191)"/>
<path d="M108.817 418.188L136.545 418.265L136.732 407.154L108.978 407.082L108.817 418.188Z" fill="url(#paint26_linear_384_191)"/>
<path d="M77.7374 418.102L105.437 418.179L105.595 407.074L77.8684 407.002L77.7374 418.102Z" fill="url(#paint27_linear_384_191)"/>
<path d="M327.823 242.238C327.873 240.162 330.005 238.453 332.618 238.453H431.407C434.056 238.453 436.657 240.251 436.657 242.356V430.483C436.657 431.496 435.923 432.467 435.021 433.182C434.119 433.897 432.782 434.297 431.508 434.294L328.219 434.07C326.933 434.067 325.675 433.655 324.776 432.925C323.877 432.195 323.37 431.186 323.394 430.165L327.823 242.238Z" fill="#BDD0FB"/>
<g opacity="0.5">
<path d="M400.576 260.621L428.719 260.591L428.942 249.128H400.772L400.576 260.621Z" fill="white"/>
<path d="M369.031 260.616L397.146 260.586L397.338 249.128H369.196L369.031 260.616Z" fill="white"/>
<path d="M337.518 260.61L365.604 260.58L365.766 249.128H337.653L337.518 260.61Z" fill="white"/>
<path d="M400.224 281.198L428.318 281.212L428.541 269.823L400.42 269.814L400.224 281.198Z" fill="white"/>
<path d="M368.735 281.181L396.8 281.196L396.992 269.813L368.899 269.804L368.735 281.181Z" fill="white"/>
<path d="M337.276 281.165L365.314 281.18L365.475 269.803L337.41 269.793L337.276 281.165Z" fill="white"/>
<path d="M399.874 301.632L427.919 301.655L428.141 290.307L400.069 290.288L399.874 301.632Z" fill="white"/>
<path d="M368.439 301.606L396.456 301.629L396.647 290.286L368.603 290.268L368.439 301.606Z" fill="white"/>
<path d="M337.035 301.58L365.024 301.603L365.185 290.265L337.169 290.247L337.035 301.58Z" fill="white"/>
<path d="M399.525 321.996L427.521 322.028L427.742 310.719L399.719 310.691L399.525 321.996Z" fill="white"/>
<path d="M368.144 321.96L396.112 321.992L396.303 310.688L368.308 310.661L368.144 321.96Z" fill="white"/>
<path d="M336.795 321.923L364.735 321.956L364.895 310.657L336.928 310.63L336.795 321.923Z" fill="white"/>
<path d="M399.177 342.289L427.124 342.331L427.344 331.06L399.37 331.024L399.177 342.289Z" fill="white"/>
<path d="M367.85 342.243L395.77 342.284L395.96 331.019L368.013 330.983L367.85 342.243Z" fill="white"/>
<path d="M336.555 342.197L364.447 342.238L364.607 330.979L336.688 330.942L336.555 342.197Z" fill="white"/>
<path d="M398.83 362.513L426.729 362.563L426.948 351.332L399.022 351.286L398.83 362.513Z" fill="white"/>
<path d="M367.558 362.456L395.429 362.507L395.619 351.281L367.72 351.235L367.558 362.456Z" fill="white"/>
<path d="M336.317 362.4L364.16 362.45L364.32 351.23L336.449 351.185L336.317 362.4Z" fill="white"/>
<path d="M398.484 382.667L426.335 382.726L426.554 371.533L398.676 371.479L398.484 382.667Z" fill="white"/>
<path d="M367.266 382.6L395.089 382.66L395.278 371.472L367.428 371.418L367.266 382.6Z" fill="white"/>
<path d="M336.079 382.534L363.875 382.593L364.033 371.411L336.211 371.357L336.079 382.534Z" fill="white"/>
<path d="M398.14 402.751L425.943 402.819L426.161 391.665L398.331 391.602L398.14 402.751Z" fill="white"/>
<path d="M366.975 402.675L394.751 402.743L394.939 391.594L367.137 391.531L366.975 402.675Z" fill="white"/>
<path d="M335.842 402.599L363.59 402.667L363.748 391.523L335.974 391.46L335.842 402.599Z" fill="white"/>
<path d="M397.796 422.767L425.552 422.844L425.769 411.727L397.987 411.656L397.796 422.767Z" fill="white"/>
<path d="M366.686 422.681L394.413 422.757L394.601 411.647L366.847 411.575L366.686 422.681Z" fill="white"/>
<path d="M335.606 422.595L363.306 422.671L363.463 411.566L335.737 411.494L335.606 422.595Z" fill="white"/>
</g>
<path d="M229.615 293.415C221.553 268.101 205.953 247.928 187.476 236.068C170.958 225.466 159.057 208.955 154.651 189.883C154.188 187.879 153.637 185.868 152.997 183.858C143.301 153.414 116.705 134.702 93.5949 142.063C70.4841 149.423 59.6097 180.07 69.3063 210.514C71.2888 216.739 73.9786 222.472 77.2007 227.592C87.4839 243.93 91.5079 263.526 87.7244 282.48C84.3426 299.418 85.2602 318.489 91.3048 337.467C100.32 365.772 118.758 387.652 140.108 398.667C148.183 402.833 155.465 408.436 161.495 415.206C171.515 426.456 185.637 431.744 198.612 427.612C212.609 423.153 221.354 408.98 221.983 392.443C222.339 383.085 224.539 373.912 228.126 365.241C236.592 344.77 237.767 319.008 229.615 293.415Z" fill="#91B3FA"/>
<path opacity="0.57" d="M112.002 171.871C121.43 191.03 130.231 210.477 138.828 230.015C140.98 234.899 143.052 239.817 145.14 244.728L148.272 252.095L151.341 259.488C153.368 264.425 155.463 269.334 157.434 274.294L163.348 289.173C167.163 299.143 171.063 309.079 174.691 319.12C176.513 324.138 178.432 329.119 180.151 334.174L185.377 349.311C192.141 369.563 198.396 389.996 203.6 410.706L202.706 410.941L198.22 395.594L197.107 391.757L195.898 387.947L193.465 380.333L191.048 372.716C190.246 370.175 189.35 367.664 188.506 365.137C186.784 360.095 185.103 355.039 183.348 350.008C176.198 329.928 168.781 309.943 160.95 290.114C156.958 280.229 153.053 270.311 148.992 260.454L145.967 253.053L142.879 245.677C140.824 240.759 138.768 235.841 136.663 230.943C132.537 221.112 128.339 211.31 124.062 201.543C119.835 191.753 115.515 182.001 111.167 172.266L112.002 171.871Z" fill="white"/>
<path d="M297.062 243.099C293.294 215.454 280.84 191.759 263.929 176.142C248.812 162.182 239.512 142.947 238.392 122.42C238.274 120.263 238.067 118.083 237.768 115.888C233.237 82.6402 209.192 58.4638 184.062 61.8888C158.932 65.3138 142.234 95.0433 146.765 128.291C147.692 135.09 149.435 141.508 151.837 147.387C159.502 166.151 160.134 187.15 152.838 206.07C146.317 222.977 143.843 242.87 146.668 263.597C150.881 294.509 165.954 320.483 185.975 335.746C193.548 341.519 200.045 348.634 205.044 356.73C213.351 370.183 226.952 378.213 241.061 376.29C256.281 374.216 267.831 361.14 271.444 344.148C273.489 334.533 277.4 325.444 282.65 317.124C295.043 297.484 300.872 271.05 297.062 243.099Z" fill="#7D97F4"/>
<path opacity="0.57" d="M197.682 96.0592C203.96 117.585 209.541 139.296 214.895 161.065C216.236 166.506 217.489 171.969 218.76 177.427L220.665 185.615L222.502 193.819C223.705 199.293 224.984 204.75 226.125 210.238L229.55 226.7C231.693 237.704 233.929 248.689 235.867 259.733C236.844 265.253 237.929 270.753 238.793 276.294L241.464 292.899C244.801 315.073 247.582 337.342 249.231 359.708L248.268 359.788L246.397 343.101L245.938 338.93L245.375 334.77L244.234 326.453L243.109 318.136C242.739 315.363 242.266 312.603 241.85 309.837C240.98 304.308 240.154 298.774 239.248 293.252C235.482 271.185 231.423 249.169 226.911 227.239C224.571 216.291 222.325 205.324 219.908 194.392L218.119 186.188L216.26 178C215.025 172.54 213.789 167.08 212.498 161.632C210.009 150.715 207.442 139.815 204.786 128.937C202.187 118.044 199.485 107.174 196.75 96.3167L197.682 96.0592Z" fill="white"/>
<path d="M412.563 433.108H193.203C191.489 433.108 190.099 431.718 190.099 430.004V133.576C190.099 131.862 191.489 130.472 193.203 130.472H412.564C414.278 130.472 415.668 131.862 415.668 133.576V430.004C415.668 431.718 414.278 433.108 412.563 433.108Z" fill="url(#paint28_linear_384_191)"/>
<path d="M377.267 393.243H228.018C222.361 393.243 217.774 388.657 217.774 382.999V186.182C217.774 180.525 222.361 175.939 228.018 175.939H377.267C382.925 175.939 387.511 180.525 387.511 186.182V382.999C387.511 388.657 382.925 393.243 377.267 393.243Z" fill="#7D97F4"/>
<path d="M371.62 378.125H233.8C232.103 378.125 230.727 376.75 230.727 375.052V196.887C230.727 195.19 232.103 193.814 233.8 193.814H371.62C373.317 193.814 374.693 195.19 374.693 196.887V375.052C374.693 376.75 373.317 378.125 371.62 378.125Z" fill="url(#paint29_linear_384_191)"/>
<path d="M302.472 160.426C306.199 160.426 309.22 157.405 309.22 153.678C309.22 149.951 306.199 146.93 302.472 146.93C298.745 146.93 295.724 149.951 295.724 153.678C295.724 157.405 298.745 160.426 302.472 160.426Z" fill="url(#paint30_linear_384_191)"/>
<path d="M346.067 262.615L259.252 264.058C252.645 264.168 247.269 269.306 247.269 275.534V330.207C247.269 336.435 252.645 341.268 259.252 341.002L346.067 337.516C352.304 337.266 357.341 332.184 357.341 326.165V273.325C357.341 267.306 352.304 262.511 346.067 262.615Z" fill="url(#paint31_linear_384_191)"/>
<path d="M350.462 252.726C347.832 252.766 345.698 250.736 345.698 248.194V236.228C345.698 224.223 335.543 214.486 322.973 214.523L294.691 214.604C281.797 214.642 271.232 224.666 271.232 236.951V249.197C271.232 251.798 268.993 253.941 266.227 253.982C263.457 254.023 261.208 251.941 261.208 249.331V237.048C261.208 219.515 276.314 205.25 294.691 205.25H322.973C340.83 205.25 355.212 219.105 355.212 236.135V248.066C355.212 250.601 353.087 252.687 350.462 252.726Z" fill="url(#paint32_linear_384_191)"/>
<path d="M316.705 292.915C316.705 286.839 311.402 282.069 304.953 282.507C299.251 282.894 294.536 287.461 294.228 292.913C293.989 297.144 296.314 300.801 299.849 302.65C301.352 303.437 302.099 305.095 301.806 306.735L299.327 320.645C299.012 322.417 300.436 323.973 302.309 323.906L308.68 323.678C310.544 323.611 311.957 321.959 311.644 320.217L309.167 306.436C308.872 304.792 309.726 303.159 311.233 302.258C314.512 300.298 316.705 296.822 316.705 292.915Z" fill="url(#paint33_linear_384_191)"/>
<path d="M142.342 433.637C142.344 433.518 142.336 433.397 142.306 433.276C140.505 426.139 131.57 421.693 131.57 421.693L128.029 421.971C125.994 428.261 126.255 432.119 126.582 433.838C126.591 433.886 126.606 433.932 126.619 433.979C129.54 434.24 135.551 434.41 142.342 433.637Z" fill="url(#paint34_linear_384_191)"/>
<path d="M126.619 433.979C126.776 434.553 127.2 434.999 127.742 435.113C131.897 435.987 138.501 435.284 141.273 434.921C141.885 434.841 142.332 434.276 142.342 433.637C135.551 434.41 129.54 434.24 126.619 433.979Z" fill="#91B3FA"/>
<path d="M126.606 416.697L128.105 423.916C128.215 424.445 128.622 424.841 129.114 424.887C129.717 424.944 130.575 424.977 131.437 424.85C132.211 424.737 132.75 423.951 132.613 423.107L131.57 416.697H126.606Z" fill="url(#paint35_linear_384_191)"/>
<path d="M157.677 433.887C153.766 433.778 151.744 433.317 150.698 432.89C150.696 433.279 150.698 433.674 150.71 434.084C150.724 434.522 151.048 434.872 151.447 434.87L172.918 434.731C173.603 434.726 174.004 433.932 173.707 433.303C170.892 433.536 163.722 434.056 157.677 433.887Z" fill="#91B3FA"/>
<path d="M173.707 433.303C173.681 433.249 173.659 433.193 173.622 433.141C171.726 430.492 166.896 425.216 157.353 422.928L152.775 422.783C152.775 422.783 150.736 426.327 150.698 432.89C151.744 433.317 153.766 433.778 157.677 433.887C163.722 434.056 170.892 433.536 173.707 433.303Z" fill="url(#paint36_linear_384_191)"/>
<path d="M151.722 416.058C151.795 416.396 152.747 421.532 153.116 423.524C153.204 423.997 153.573 424.344 154.011 424.369C154.795 424.413 156.059 424.418 157.147 424.123C157.733 423.964 158.127 423.366 158.085 422.702L157.573 414.577L151.722 416.058Z" fill="url(#paint37_linear_384_191)"/>
<path d="M148.253 321.214C148.253 321.214 154.551 364.488 159.096 415.984C159.18 416.943 158.416 417.778 157.474 417.976C156.086 418.269 154.045 418.616 152.355 418.568C151.453 418.543 150.699 417.874 150.548 416.985C148.999 407.905 137.952 359.177 135.052 348.452C135.052 348.452 131.721 394.008 132.786 417.643C132.812 418.23 132.382 418.74 131.798 418.808C130.911 418.91 129.493 418.988 127.688 418.796C127.003 418.723 126.451 418.206 126.353 417.524C125.25 409.839 118.902 364.1 119.172 331.151C119.187 329.293 121.352 314.026 121.352 314.026L148.253 321.214Z" fill="url(#paint38_linear_384_191)"/>
<path d="M150.694 248.441L151.537 271.085C153.932 271.909 156.212 272.55 158.383 273.029C159.741 268.657 162.731 263.291 165.18 259.301C156.183 256.12 150.694 248.441 150.694 248.441Z" fill="url(#paint39_linear_384_191)"/>
<path d="M120.406 323.708C119.758 323.478 119.307 322.891 119.236 322.207C118.399 314.082 114.344 263.705 139.944 242.981C139.944 242.981 141.412 239.14 153.479 248.582C165.546 258.024 159.085 267.92 156.196 281.57C152.7 298.088 146.566 311.59 149.28 321.755C149.467 322.456 149.099 323.193 148.417 323.444C139.044 326.899 129.706 327.013 120.406 323.708Z" fill="url(#paint40_linear_384_191)"/>
<path d="M149.929 227.887C149.921 228.604 139.699 243.123 139.699 243.123C139.699 243.123 141.534 246.737 150.293 249.671L157.854 234.125L149.929 227.887Z" fill="url(#paint41_linear_384_191)"/>
<path d="M144.865 277.569C144.801 277.569 144.736 277.551 144.68 277.512C136.514 271.995 132.672 263.089 132.634 263C132.563 262.83 132.642 262.636 132.81 262.565C132.979 262.493 133.174 262.571 133.246 262.74C133.283 262.828 137.053 271.558 145.051 276.962C145.203 277.064 145.243 277.271 145.14 277.423C145.077 277.518 144.972 277.569 144.865 277.569Z" fill="url(#paint42_linear_384_191)"/>
<path d="M157.029 265.226C156.92 265.226 156.813 265.172 156.749 265.073C156.725 265.035 154.23 261.152 149.478 252.643C148.017 250.027 146.097 248.37 143.771 247.719C139.919 246.643 136.206 248.708 136.17 248.729C136.01 248.817 135.808 248.764 135.717 248.604C135.627 248.445 135.682 248.243 135.841 248.152C136.001 248.061 139.82 245.925 143.944 247.079C146.449 247.778 148.506 249.541 150.058 252.319C154.798 260.806 157.283 264.676 157.308 264.714C157.407 264.868 157.363 265.073 157.208 265.173C157.153 265.209 157.09 265.226 157.029 265.226Z" fill="url(#paint43_linear_384_191)"/>
<path d="M157.977 219.567C157.977 219.567 161.615 227.923 161.859 232.308C162.103 236.694 163.048 239.539 157.977 240.422C152.907 241.305 148.635 238.779 146.321 234.411C146.321 234.411 142.695 227.68 143.508 224.923C144.322 222.166 157.977 219.567 157.977 219.567Z" fill="url(#paint44_linear_384_191)"/>
<path d="M148.054 231.27L148.342 231.143C148.71 230.981 148.867 230.543 148.682 230.187C147.967 228.805 146.573 225.639 148.374 224.901C150.695 223.949 159.888 222.074 161.871 218.812C163.777 215.678 162.088 211.631 159.55 210.48C159.38 210.403 159.18 210.464 159.093 210.629L158.881 211.029C158.736 211.303 158.332 211.262 158.246 210.964C158.163 210.678 157.783 210.623 157.625 210.875C157.015 211.851 155.369 213.433 150.968 214.245C144.712 215.4 140.576 217.931 140.473 222.254C140.467 222.529 140.175 222.681 139.94 222.538C139.478 222.257 138.739 222.125 137.751 222.956C136.033 224.4 136.736 228.147 140.503 231.23C140.681 231.376 140.68 231.656 140.486 231.782C139.803 232.226 138.786 233.284 141.423 234.693C144.151 236.152 146.188 236.032 146.972 235.903C147.167 235.87 147.293 235.681 147.25 235.488L146.413 231.689C146.366 231.474 146.53 231.27 146.75 231.27H148.054V231.27Z" fill="url(#paint45_linear_384_191)"/>
<path d="M148.211 232.072C148.211 232.072 146.823 226.734 144.431 228.231C142.038 229.727 145.672 234.211 147.596 234.411L148.211 232.072Z" fill="url(#paint46_linear_384_191)"/>
<path d="M195.309 246.737C195.309 246.737 193.486 243.505 193.602 241.935C193.718 240.364 192.739 238.058 193.781 238.229C194.822 238.399 195.037 238.26 195.32 240.144C195.602 242.029 198.889 250.26 195.309 246.737Z" fill="url(#paint47_linear_384_191)"/>
<path d="M195.652 241.598L195.61 248.055C183.269 261.38 173.28 262.164 165.18 259.301C162.731 263.291 159.741 268.657 158.383 273.029C191.339 280.295 199.1 249.997 199.1 249.997C203.564 248.148 204.464 247.067 204.272 245.855L195.652 241.598Z" fill="url(#paint48_linear_384_191)"/>
<path d="M205.143 235.192C204.09 234.764 202.028 230.835 201.634 232.128C201.239 233.42 201.8 235.192 201.634 235.742C201.467 236.292 198.897 242.616 199.41 244.021C199.781 245.035 201.821 244.885 202.132 246.544C202.236 247.094 202.676 247.489 203.186 247.489C203.696 247.49 204.137 247.095 204.241 246.545C204.282 246.324 206.196 235.62 205.143 235.192Z" fill="url(#paint49_linear_384_191)"/>
<path d="M171.504 221.744C163.182 238.203 169.779 258.292 186.239 266.614C199.617 273.378 215.392 270.286 225.299 260.053L282.486 288.967C283.436 289.447 284.566 289.408 285.48 288.864L291.073 285.532C291.169 285.475 291.26 285.411 291.348 285.345C291.373 285.327 291.396 285.307 291.421 285.288C291.486 285.236 291.548 285.182 291.608 285.126C291.629 285.106 291.649 285.087 291.669 285.068C291.743 284.994 291.814 284.918 291.88 284.838C291.881 284.837 291.882 284.835 291.883 284.834C292.585 283.98 292.8 282.787 292.37 281.709L287.825 270.316C287.544 269.612 287.016 269.035 286.34 268.693L280.612 265.797L279.096 268.795L274.175 266.307L275.691 263.309L271.087 260.982L269.693 263.74L263.713 260.716L265.107 257.958L262.879 256.831L262.161 258.251L257.148 255.716L257.865 254.297L253.966 252.325L252.45 255.323L249.665 253.915L251.181 250.917L248.767 249.696L247.251 252.694L242.423 250.253L243.939 247.255L237.153 243.824L234.247 242.355C236.615 228.311 229.753 213.773 216.375 207.009C199.915 198.687 179.826 205.284 171.504 221.744ZM190.989 224.017C194.321 225.702 195.657 229.771 193.972 233.103C192.287 236.436 188.219 237.772 184.886 236.087C181.554 234.402 180.217 230.334 181.903 227.001C183.588 223.668 187.656 222.332 190.989 224.017Z" fill="url(#paint50_linear_384_191)"/>
<path d="M217.858 231.83L244.968 245.537L243.453 248.535L248.28 250.975L249.796 247.977L252.21 249.198L250.694 252.196L253.479 253.604L254.995 250.606L258.895 252.578L258.177 253.998L263.19 256.532L263.908 255.113L266.136 256.239L264.742 258.997L270.722 262.021L272.117 259.263L276.72 261.59L275.204 264.589L280.125 267.076L281.641 264.078L287.369 266.975C288.045 267.316 288.573 267.893 288.854 268.597L293.399 279.99C293.965 281.41 293.416 283.031 292.102 283.813L286.509 287.145C285.595 287.69 284.465 287.729 283.515 287.248L214.481 252.344L217.858 231.83Z" fill="url(#paint51_linear_384_191)"/>
<path d="M187.268 264.895C203.727 273.217 223.817 266.62 232.138 250.161C240.46 233.702 233.864 213.613 217.404 205.291C200.945 196.969 180.856 203.566 172.534 220.025C164.212 236.484 170.809 256.573 187.268 264.895ZM185.916 234.368C182.583 232.683 181.247 228.615 182.932 225.282C184.617 221.949 188.685 220.613 192.018 222.299C195.351 223.984 196.687 228.052 195.002 231.385C193.317 234.718 189.249 236.053 185.916 234.368Z" fill="url(#paint52_linear_384_191)"/>
<path d="M226.328 258.335L283.516 287.248C284.465 287.729 285.595 287.69 286.51 287.145L292.103 283.813C292.946 283.311 293.469 282.462 293.589 281.543C288.377 275.896 238.833 254.261 236.98 249.809C236.321 248.225 236.208 245.826 238.183 242.106L235.277 240.637C237.644 226.592 230.783 212.055 217.404 205.291C200.945 196.969 180.856 203.566 172.534 220.025C164.212 236.484 170.809 256.573 187.268 264.895C200.646 271.659 216.422 268.567 226.328 258.335ZM192.018 222.299C195.351 223.984 196.687 228.052 195.002 231.385C193.317 234.718 189.248 236.053 185.916 234.368C182.583 232.683 181.247 228.615 182.932 225.282C184.617 221.949 188.685 220.614 192.018 222.299Z" fill="url(#paint53_linear_384_191)"/>
<path d="M190.225 259.046C203.455 265.735 219.601 260.433 226.29 247.204C232.978 233.975 227.676 217.828 214.447 211.14C201.218 204.451 185.071 209.753 178.383 222.982C171.694 236.211 176.996 252.357 190.225 259.046ZM185.916 234.368C182.583 232.683 181.247 228.615 182.932 225.282C184.617 221.949 188.685 220.613 192.018 222.299C195.351 223.984 196.687 228.052 195.002 231.385C193.317 234.718 189.249 236.053 185.916 234.368Z" fill="url(#paint54_linear_384_191)"/>
<path d="M144.865 277.569C144.865 277.569 176.314 288.097 193.905 274.704C194.996 273.873 196.372 273.511 197.726 273.731L204.446 274.826C207.267 275.285 209.954 273.458 210.562 270.665C210.909 269.072 211.076 267.33 210.722 265.834L198.036 265.068L198.398 263.422C198.398 263.422 192.791 264.794 192.678 269.181C192.678 269.181 179.525 277.797 155.535 264.424C155.535 264.424 146.193 271.735 144.865 277.569Z" fill="url(#paint55_linear_384_191)"/>
<g opacity="0.3">
<path d="M387.768 119.901C387.036 119.871 386.467 119.253 386.497 118.521C386.555 117.098 386.553 115.652 386.489 114.222C386.457 113.498 387.011 112.885 387.73 112.839C387.739 112.838 387.747 112.838 387.756 112.837C388.488 112.805 389.108 113.372 389.14 114.104C389.207 115.609 389.21 117.132 389.148 118.63C389.12 119.314 388.578 119.857 387.908 119.899C387.862 119.902 387.815 119.903 387.768 119.901ZM385.703 107.283C385.445 105.876 385.125 104.467 384.751 103.093C384.558 102.386 384.975 101.657 385.682 101.464C386.392 101.273 387.118 101.688 387.311 102.395C387.705 103.841 388.042 105.324 388.313 106.805C388.445 107.526 387.968 108.217 387.247 108.349C387.195 108.359 387.142 108.365 387.091 108.368C386.429 108.41 385.825 107.952 385.703 107.283ZM382.451 96.5034C381.888 95.1925 381.262 93.8902 380.588 92.632C380.242 91.986 380.486 91.1817 381.131 90.8359C381.777 90.491 382.581 90.7334 382.928 91.3794C383.637 92.7043 384.297 94.0762 384.89 95.4564C385.179 96.1297 384.867 96.9099 384.194 97.1993C384.05 97.2609 383.902 97.2953 383.754 97.3046C383.21 97.3391 382.679 97.0332 382.451 96.5034ZM376.87 86.7215C376.028 85.5679 375.125 84.438 374.188 83.3622C373.707 82.8095 373.764 81.9712 374.317 81.49C374.87 81.0093 375.707 81.0673 376.189 81.6189C377.176 82.7518 378.125 83.9417 379.013 85.1551C379.445 85.7468 379.316 86.5771 378.724 87.0093C378.513 87.164 378.271 87.2469 378.027 87.2624C377.59 87.2902 377.148 87.1011 376.87 86.7215ZM369.249 78.4266C368.174 77.4914 367.044 76.5888 365.889 75.745C365.297 75.3122 365.169 74.482 365.601 73.8906C366.034 73.2987 366.864 73.1701 367.455 73.6031C368.67 74.491 369.86 75.4407 370.991 76.4247C371.544 76.9053 371.602 77.7436 371.121 78.2965C370.879 78.5752 370.546 78.7283 370.204 78.75C369.868 78.7712 369.523 78.6652 369.249 78.4266ZM359.983 72.0248C358.726 71.3495 357.424 70.7201 356.114 70.1535C355.441 69.8628 355.131 69.0816 355.422 68.4093C355.713 67.7365 356.493 67.4267 357.166 67.7174C358.545 68.3134 359.916 68.9763 361.239 69.687C361.884 70.034 362.126 70.8382 361.78 71.4838C361.554 71.9033 361.136 72.152 360.694 72.1802C360.455 72.1954 360.209 72.1467 359.983 72.0248ZM310.714 71.4072C310.369 70.7607 310.613 69.9568 311.26 69.6119C312.585 68.9057 313.958 68.2476 315.342 67.6565C316.016 67.3686 316.796 67.6816 317.084 68.3557C317.372 69.0291 317.059 69.8089 316.385 70.0968C315.071 70.658 313.766 71.283 312.509 71.9538C312.336 72.0458 312.153 72.0958 311.969 72.1074C311.466 72.1394 310.966 71.8813 310.714 71.4072ZM349.534 67.839C348.159 67.4604 346.751 67.1368 345.348 66.8779C344.627 66.7445 344.151 66.0523 344.284 65.3318C344.417 64.6108 345.109 64.1384 345.83 64.2682C347.307 64.5411 348.79 64.8817 350.238 65.2806C350.945 65.4752 351.36 66.2055 351.165 66.9123C351.011 67.4727 350.52 67.8498 349.97 67.8845C349.827 67.8936 349.68 67.879 349.534 67.839ZM321.353 66.8751C321.162 66.1679 321.58 65.4392 322.288 65.2479C323.737 64.8562 325.222 64.522 326.702 64.2537C327.423 64.1196 328.113 64.6019 328.244 65.3227C328.375 66.0436 327.896 66.734 327.175 66.865C325.768 67.12 324.357 67.4375 322.98 67.81C322.892 67.8337 322.804 67.8476 322.717 67.8533C322.1 67.8923 321.52 67.4945 321.353 66.8751ZM338.414 66.0934C336.99 66.0321 335.544 66.0314 334.117 66.0919C333.385 66.1233 332.766 65.555 332.735 64.8225C332.704 64.1 333.258 63.4879 333.976 63.4422C333.985 63.4417 333.995 63.441 334.004 63.441C335.507 63.3768 337.029 63.3772 338.528 63.4415C339.26 63.4735 339.828 64.0923 339.797 64.8245C339.767 65.5082 339.225 66.0491 338.557 66.0915C338.51 66.0946 338.462 66.095 338.414 66.0934Z" fill="#91B3FA"/>
<path d="M304.178 77.2174C304.439 77.2008 304.698 77.1076 304.918 76.9326C305.454 76.507 306.007 76.086 306.563 75.6799C307.155 75.2481 307.285 74.4178 306.853 73.8262C306.421 73.234 305.591 73.1034 304.999 73.5367C304.414 73.9634 303.832 74.4064 303.268 74.8541C302.694 75.3096 302.598 76.1446 303.054 76.7181C303.334 77.0721 303.759 77.2441 304.178 77.2174Z" fill="#91B3FA"/>
</g>
<g opacity="0.3">
<path d="M284.834 112.746C285.473 112.706 286.006 112.206 286.07 111.549C286.135 110.868 286.215 110.177 286.309 109.495C286.409 108.769 285.901 108.099 285.175 108C284.446 107.899 283.78 108.408 283.68 109.133C283.582 109.851 283.496 110.579 283.428 111.296C283.358 112.025 283.893 112.673 284.622 112.743C284.694 112.75 284.765 112.751 284.834 112.746Z" fill="#91B3FA"/>
<path d="M336.884 169.392C336.152 169.403 335.549 168.817 335.539 168.084C335.528 167.351 336.113 166.75 336.846 166.738C338.241 166.718 339.657 166.638 341.071 166.501C341.796 166.428 342.449 166.964 342.52 167.693C342.591 168.423 342.057 169.071 341.328 169.143C340.715 169.202 340.104 169.251 339.495 169.29C338.626 169.345 337.747 169.38 336.884 169.392ZM346.864 166.97C346.695 166.258 347.136 165.543 347.849 165.374C349.218 165.049 350.588 164.663 351.921 164.227C352.615 163.997 353.367 164.378 353.595 165.074C353.823 165.771 353.443 166.52 352.747 166.748C351.344 167.208 349.901 167.614 348.461 167.956C348.386 167.973 348.311 167.984 348.237 167.989C347.604 168.029 347.015 167.609 346.864 166.97ZM329.665 169.001C328.199 168.82 326.722 168.574 325.273 168.269C324.556 168.118 324.097 167.415 324.247 166.697C324.398 165.98 325.102 165.522 325.819 165.672C327.195 165.962 328.598 166.195 329.989 166.367C330.717 166.456 331.234 167.119 331.144 167.846C331.065 168.49 330.537 168.968 329.912 169.008C329.831 169.013 329.748 169.011 329.665 169.001ZM357.676 163.419C357.354 162.761 357.627 161.966 358.286 161.645C359.548 161.029 360.799 160.351 362.004 159.631C362.634 159.255 363.448 159.46 363.824 160.09C364.2 160.719 363.994 161.533 363.366 161.909C362.097 162.667 360.779 163.381 359.45 164.03C359.289 164.108 359.121 164.151 358.953 164.162C358.432 164.195 357.919 163.917 357.676 163.419ZM318.321 166.3C316.933 165.801 315.546 165.237 314.2 164.621C313.533 164.316 313.24 163.529 313.544 162.863C313.849 162.196 314.636 161.903 315.303 162.208C316.582 162.792 317.899 163.329 319.218 163.802C319.908 164.049 320.266 164.809 320.019 165.499C319.834 166.013 319.365 166.343 318.853 166.375C318.678 166.387 318.497 166.363 318.321 166.3ZM307.846 161.176C306.596 160.385 305.366 159.531 304.189 158.639C303.605 158.197 303.49 157.365 303.932 156.78C304.376 156.195 305.208 156.081 305.791 156.524C306.91 157.371 308.079 158.183 309.266 158.935C309.885 159.327 310.069 160.147 309.676 160.766C309.44 161.139 309.048 161.354 308.639 161.38C308.369 161.397 308.091 161.332 307.846 161.176ZM298.735 153.892C297.687 152.846 296.672 151.745 295.718 150.619C295.244 150.059 295.313 149.222 295.872 148.749C296.432 148.274 297.269 148.344 297.742 148.903C298.649 149.973 299.613 151.019 300.609 152.013C301.128 152.531 301.129 153.371 300.611 153.889C300.373 154.128 300.068 154.257 299.756 154.276C299.39 154.3 299.015 154.172 298.735 153.892ZM291.43 144.793C290.636 143.544 289.887 142.247 289.203 140.937C288.863 140.287 289.115 139.485 289.764 139.146C290.413 138.807 291.215 139.059 291.555 139.708C292.204 140.952 292.916 142.184 293.67 143.37C294.063 143.989 293.88 144.809 293.262 145.201C293.066 145.326 292.851 145.392 292.635 145.406C292.168 145.435 291.699 145.216 291.43 144.793ZM286.301 134.306C285.803 132.916 285.358 131.487 284.979 130.057C284.791 129.349 285.212 128.622 285.921 128.434C286.627 128.247 287.355 128.667 287.543 129.376C287.904 130.734 288.326 132.092 288.799 133.412C289.046 134.102 288.687 134.862 287.997 135.109C287.877 135.152 287.755 135.177 287.633 135.184C287.058 135.221 286.505 134.876 286.301 134.306ZM283.602 122.961C283.467 121.882 283.363 120.785 283.295 119.701C283.27 119.308 283.249 118.917 283.233 118.526C283.203 117.794 283.762 117.162 284.503 117.145C285.236 117.114 285.854 117.683 285.885 118.416C285.9 118.787 285.919 119.16 285.943 119.533C286.008 120.563 286.107 121.605 286.235 122.632C286.326 123.359 285.81 124.022 285.083 124.113C285.056 124.116 285.028 124.119 285.001 124.121C284.307 124.165 283.689 123.661 283.602 122.961Z" fill="#91B3FA"/>
<path d="M368.586 158.049C368.849 158.032 369.11 157.937 369.331 157.76C369.892 157.311 370.453 156.841 371 156.364C371.552 155.882 371.61 155.044 371.128 154.492C370.646 153.939 369.808 153.882 369.256 154.364C368.736 154.817 368.203 155.263 367.671 155.69C367.099 156.148 367.007 156.983 367.466 157.555C367.747 157.906 368.17 158.075 368.586 158.049Z" fill="#91B3FA"/>
</g>
<path d="M371.093 135.44C371.247 135.225 371.247 134.936 371.094 134.72L366.723 128.567C368.066 125.308 368.899 121.811 369.138 118.192L375.77 114.599C376.003 114.473 376.13 114.213 376.086 113.953L374.605 105.021C374.562 104.76 374.358 104.555 374.097 104.511L366.66 103.252C365.266 99.903 363.348 96.8624 361.025 94.2117L363.176 86.977C363.251 86.7233 363.158 86.4499 362.943 86.296L355.58 81.0276C355.364 80.8737 355.075 80.8732 354.86 81.0264L348.706 85.3977C345.448 84.0543 341.951 83.2209 338.331 82.9826L334.739 76.35C334.613 76.1173 334.353 75.9902 334.092 76.0336L325.16 77.5147C324.899 77.5581 324.695 77.7621 324.65 78.0229L323.391 85.4603C320.042 86.8542 317.002 88.7716 314.351 91.095L307.116 88.9438C306.862 88.8685 306.589 88.9621 306.435 89.1774L301.167 96.5403C301.013 96.7554 301.012 97.0446 301.165 97.2603L305.537 103.414C304.193 106.672 303.36 110.169 303.122 113.789L296.489 117.381C296.257 117.507 296.129 117.767 296.173 118.028L297.654 126.96C297.697 127.221 297.901 127.425 298.162 127.47L305.6 128.729C306.993 132.078 308.911 135.118 311.234 137.769L309.083 145.004C309.008 145.257 309.102 145.531 309.317 145.685L316.68 150.953C316.895 151.107 317.184 151.108 317.4 150.954L323.553 146.583C326.812 147.926 330.308 148.76 333.928 148.998L337.52 155.631C337.646 155.863 337.906 155.99 338.167 155.947L347.099 154.466C347.36 154.423 347.565 154.219 347.609 153.958L348.868 146.52C352.217 145.126 355.257 143.209 357.908 140.886L365.143 143.037C365.397 143.112 365.67 143.018 365.824 142.803L371.093 135.44Z" fill="#91B3FA"/>
<path d="M335.376 125.059C330.375 124.644 326.645 120.237 327.061 115.236C327.262 112.814 328.395 110.614 330.25 109.044C332.105 107.474 334.461 106.719 336.884 106.921C341.884 107.337 345.615 111.743 345.199 116.744C344.821 121.294 341.14 124.792 336.712 125.073C336.273 125.101 335.827 125.097 335.376 125.059ZM331.622 110.665C330.199 111.869 329.331 113.555 329.176 115.412C328.858 119.246 331.718 122.625 335.552 122.944C339.387 123.264 342.765 120.402 343.083 116.568C343.402 112.734 340.542 109.355 336.708 109.037C336.36 109.008 336.015 109.005 335.673 109.027C334.188 109.121 332.778 109.686 331.622 110.665Z" fill="#BDD0FB"/>
<path d="M337.359 138.202C338.119 138.154 338.882 138.067 339.644 137.941C339.883 137.901 340.123 137.858 340.361 137.81C341.537 137.576 342.692 137.249 343.809 136.834C343.825 136.828 343.84 136.823 343.855 136.817C343.898 136.801 343.941 136.785 343.984 136.768C344.068 136.736 344.152 136.703 344.235 136.67C344.455 136.584 344.584 136.367 344.57 136.144C344.567 136.089 344.555 136.035 344.533 135.982C344.426 135.709 344.117 135.576 343.845 135.684C342.442 136.238 340.97 136.646 339.47 136.894C332.019 138.131 324.815 135.322 320.107 130.081C317.488 127.166 315.642 123.497 314.955 119.353C314.834 118.626 314.751 117.899 314.705 117.174C314.396 112.293 315.763 107.494 318.648 103.463C321.961 98.8325 326.879 95.7693 332.495 94.8379C344.095 92.9154 355.088 100.784 357.011 112.379C357.129 113.094 357.211 113.812 357.257 114.53C357.454 117.644 356.967 120.766 355.822 123.671C355.792 123.746 355.781 123.823 355.786 123.899C355.798 124.097 355.923 124.281 356.12 124.359C356.394 124.466 356.702 124.333 356.809 124.06C358.012 121.01 358.523 117.732 358.316 114.464C358.268 113.709 358.182 112.956 358.058 112.205C356.04 100.032 344.49 91.7725 332.322 93.7903C326.425 94.7681 321.262 97.9838 317.784 102.845C314.756 107.077 313.321 112.115 313.645 117.239C313.694 118 313.781 118.764 313.907 119.526C314.885 125.423 318.101 130.586 322.962 134.064C327.195 137.093 332.234 138.528 337.359 138.202Z" fill="#BDD0FB"/>
<g opacity="0.3">
<path d="M435.312 151.927C435.666 151.905 435.978 151.654 436.059 151.29C436.213 150.611 436.348 149.919 436.46 149.232C436.533 148.785 436.231 148.364 435.784 148.29C435.337 148.215 434.916 148.52 434.843 148.967C434.735 149.622 434.607 150.282 434.461 150.929C434.361 151.37 434.638 151.809 435.08 151.909C435.158 151.927 435.236 151.932 435.312 151.927Z" fill="#91B3FA"/>
<path d="M436.047 145.678C435.595 145.66 435.242 145.28 435.259 144.827C435.303 143.686 435.288 142.529 435.216 141.389C435.201 141.149 435.183 140.908 435.162 140.666C435.124 140.215 435.459 139.819 435.91 139.78C436.338 139.761 436.757 140.077 436.796 140.529C436.817 140.781 436.836 141.034 436.852 141.285C436.928 142.48 436.943 143.693 436.897 144.89C436.881 145.314 436.545 145.65 436.131 145.677C436.103 145.678 436.075 145.679 436.047 145.678ZM434.56 136.548C434.276 135.192 433.906 133.842 433.459 132.535C433.313 132.106 433.541 131.641 433.97 131.495C434.396 131.35 434.864 131.577 435.01 132.005C435.478 133.375 435.866 134.79 436.164 136.212C436.256 136.655 435.972 137.089 435.529 137.182C435.491 137.19 435.451 137.195 435.412 137.198C435.012 137.223 434.644 136.952 434.56 136.548ZM431.87 128.688C431.264 127.445 430.573 126.227 429.817 125.068C429.57 124.689 429.677 124.181 430.056 123.934C430.436 123.686 430.942 123.793 431.19 124.172C431.983 125.388 432.707 126.666 433.343 127.969C433.542 128.376 433.373 128.867 432.966 129.065C432.867 129.113 432.763 129.14 432.659 129.146C432.338 129.167 432.02 128.995 431.87 128.688ZM427.332 121.729C426.438 120.671 425.47 119.659 424.456 118.722C424.123 118.415 424.103 117.896 424.41 117.564C424.716 117.233 425.235 117.211 425.568 117.518C426.632 118.501 427.646 119.562 428.584 120.671C428.876 121.017 428.832 121.534 428.487 121.827C428.347 121.944 428.18 122.007 428.01 122.018C427.76 122.034 427.506 121.935 427.332 121.729ZM421.232 116.089C420.108 115.281 418.924 114.535 417.712 113.871C417.315 113.654 417.17 113.155 417.387 112.758C417.604 112.361 418.102 112.215 418.5 112.433C419.77 113.129 421.011 113.911 422.189 114.758C422.556 115.023 422.64 115.535 422.376 115.902C422.227 116.109 421.999 116.226 421.762 116.242C421.58 116.253 421.392 116.204 421.232 116.089ZM413.948 112.101C412.662 111.59 411.334 111.156 409.997 110.809C409.559 110.696 409.295 110.248 409.409 109.811C409.523 109.373 409.969 109.11 410.408 109.223C411.81 109.586 413.205 110.042 414.553 110.577C414.973 110.745 415.179 111.221 415.012 111.641C414.891 111.945 414.608 112.137 414.302 112.157C414.185 112.164 414.064 112.147 413.948 112.101ZM405.913 110.016C404.546 109.837 403.15 109.742 401.762 109.734C401.31 109.73 400.945 109.361 400.948 108.909C400.95 108.456 401.319 108.099 401.773 108.094C403.227 108.104 404.691 108.203 406.125 108.39C406.574 108.449 406.89 108.861 406.832 109.309C406.78 109.704 406.455 109.996 406.072 110.021C406.02 110.024 405.967 110.023 405.913 110.016ZM392.52 110.099C392.412 109.659 392.682 109.216 393.122 109.109C394.339 108.812 395.593 108.577 396.847 108.41C397.037 108.383 397.227 108.36 397.417 108.337C397.863 108.272 398.274 108.607 398.325 109.058C398.377 109.507 398.055 109.914 397.605 109.966C397.427 109.986 397.248 110.009 397.067 110.034C395.867 110.194 394.671 110.418 393.51 110.701C393.462 110.713 393.414 110.72 393.367 110.723C392.977 110.748 392.615 110.491 392.52 110.099Z" fill="#91B3FA"/>
</g>
<g opacity="0.3">
<path d="M403.274 178.847C401.848 178.919 400.405 178.904 398.985 178.804C398.533 178.772 398.193 178.381 398.225 177.929C398.257 177.477 398.652 177.142 399.101 177.169C400.455 177.265 401.831 177.279 403.192 177.21C403.644 177.187 404.029 177.535 404.052 177.987C404.074 178.436 403.732 178.818 403.286 178.847C403.282 178.847 403.278 178.847 403.274 178.847ZM406.594 177.705C406.518 177.259 406.817 176.835 407.263 176.759C408.605 176.527 409.946 176.213 411.25 175.823C411.681 175.695 412.14 175.94 412.269 176.374C412.399 176.808 412.153 177.264 411.719 177.394C410.353 177.802 408.947 178.132 407.541 178.374C407.511 178.379 407.482 178.382 407.453 178.384C407.04 178.41 406.666 178.122 406.594 177.705ZM394.728 178.24C393.326 177.965 391.929 177.602 390.575 177.161C390.145 177.021 389.909 176.558 390.049 176.128C390.189 175.697 390.65 175.463 391.082 175.602C392.374 176.023 393.706 176.369 395.044 176.632C395.488 176.719 395.778 177.15 395.691 177.593C395.617 177.967 395.301 178.231 394.939 178.254C394.87 178.258 394.8 178.254 394.728 178.24ZM414.67 175.492C414.489 175.078 414.678 174.594 415.092 174.412C416.339 173.866 417.564 173.237 418.734 172.543C419.123 172.313 419.626 172.441 419.857 172.829C420.087 173.219 419.959 173.722 419.57 173.952C418.343 174.681 417.058 175.34 415.75 175.913C415.659 175.953 415.566 175.975 415.473 175.981C415.139 176.002 414.813 175.816 414.67 175.492ZM386.586 175.586C385.294 174.983 384.025 174.294 382.814 173.54C382.43 173.3 382.313 172.794 382.553 172.41C382.792 172.026 383.297 171.908 383.682 172.149C384.836 172.869 386.046 173.525 387.279 174.1C387.689 174.291 387.867 174.779 387.675 175.189C387.544 175.47 387.273 175.642 386.984 175.661C386.851 175.669 386.715 175.646 386.586 175.586ZM379.316 171.055C378.204 170.159 377.136 169.186 376.143 168.166C375.827 167.842 375.834 167.324 376.158 167.008C376.482 166.692 377.001 166.699 377.317 167.023C378.265 167.996 379.284 168.923 380.345 169.779C380.697 170.063 380.753 170.579 380.469 170.932C380.318 171.118 380.104 171.221 379.882 171.235C379.685 171.248 379.482 171.189 379.316 171.055ZM373.34 164.914C372.474 163.777 371.67 162.576 370.952 161.346C370.723 160.955 370.855 160.453 371.246 160.225C371.636 159.996 372.138 160.129 372.367 160.519C373.052 161.692 373.818 162.836 374.644 163.92C374.919 164.28 374.849 164.795 374.489 165.069C374.355 165.171 374.201 165.225 374.045 165.235C373.781 165.252 373.513 165.14 373.34 164.914Z" fill="#91B3FA"/>
<path d="M422.705 171.688C422.863 171.678 423.019 171.622 423.154 171.518C423.709 171.089 424.253 170.642 424.773 170.188C425.114 169.891 425.149 169.373 424.852 169.032C424.554 168.692 424.037 168.656 423.695 168.953C423.2 169.385 422.68 169.812 422.151 170.222C421.793 170.499 421.727 171.014 422.004 171.371C422.177 171.595 422.442 171.704 422.705 171.688Z" fill="#91B3FA"/>
</g>
<path d="M424.88 156.238C424.983 156.094 424.983 155.901 424.88 155.756L421.955 151.639C422.854 149.458 423.412 147.118 423.571 144.696L428.01 142.292C428.165 142.208 428.25 142.034 428.221 141.86L427.23 135.883C427.201 135.708 427.064 135.571 426.89 135.542L421.913 134.699C420.981 132.458 419.698 130.424 418.143 128.65L419.582 123.809C419.633 123.639 419.57 123.456 419.426 123.353L414.499 119.828C414.355 119.725 414.162 119.724 414.017 119.827L409.9 122.752C407.719 121.853 405.379 121.295 402.957 121.136L400.553 116.697C400.469 116.542 400.295 116.457 400.121 116.486L394.144 117.477C393.969 117.506 393.832 117.642 393.803 117.817L392.96 122.794C390.719 123.726 388.685 125.009 386.911 126.564L382.07 125.125C381.9 125.074 381.717 125.137 381.614 125.281L378.089 130.208C377.986 130.352 377.985 130.546 378.088 130.69L381.013 134.808C380.114 136.988 379.556 139.328 379.397 141.75L374.959 144.154C374.803 144.238 374.718 144.412 374.747 144.587L375.738 150.563C375.767 150.738 375.904 150.875 376.078 150.905L381.055 151.747C381.988 153.988 383.271 156.023 384.826 157.797L383.386 162.638C383.336 162.807 383.399 162.99 383.543 163.094L388.47 166.619C388.614 166.722 388.807 166.722 388.951 166.62L393.069 163.695C395.25 164.593 397.589 165.151 400.011 165.311L402.415 169.749C402.5 169.904 402.673 169.99 402.848 169.961L408.825 168.969C408.999 168.94 409.137 168.804 409.166 168.629L410.009 163.653C412.25 162.72 414.284 161.437 416.058 159.882L420.899 161.321C421.069 161.372 421.252 161.309 421.355 161.165L424.88 156.238Z" fill="#91B3FA"/>
<path d="M400.971 149.401C399.32 149.264 397.822 148.492 396.753 147.228C395.683 145.965 395.169 144.36 395.307 142.71C395.59 139.304 398.587 136.768 401.998 137.045C405.404 137.329 407.945 140.331 407.662 143.736C407.525 145.387 406.753 146.885 405.49 147.954C404.462 148.824 403.209 149.326 401.89 149.41C401.587 149.429 401.279 149.426 400.971 149.401ZM396.94 142.845C396.839 144.059 397.216 145.24 398.004 146.17C398.79 147.099 399.893 147.666 401.106 147.768C402.32 147.867 403.5 147.49 404.43 146.703C405.36 145.917 405.927 144.814 406.028 143.601C406.236 141.095 404.368 138.887 401.862 138.679C401.636 138.66 401.413 138.658 401.192 138.672C398.974 138.813 397.129 140.566 396.94 142.845Z" fill="#BDD0FB"/>
<path d="M402.352 158.548C402.87 158.515 403.39 158.456 403.912 158.37C404.949 158.198 405.969 157.921 406.947 157.544C406.991 157.527 407.035 157.51 407.079 157.493C407.417 157.359 407.617 157.025 407.596 156.68C407.59 156.596 407.572 156.511 407.539 156.429C407.373 156.008 406.897 155.804 406.476 155.969C405.566 156.329 404.613 156.592 403.644 156.752H403.644C403.591 156.761 403.537 156.769 403.484 156.778C401.188 157.136 398.888 156.908 396.756 156.145C395.599 155.731 394.49 155.159 393.458 154.434C393.45 154.428 393.442 154.422 393.433 154.416C393.408 154.398 393.382 154.38 393.357 154.362C390.359 152.217 388.376 149.033 387.773 145.397C387.695 144.926 387.641 144.456 387.612 143.986C387.411 140.827 388.297 137.72 390.164 135.11C392.309 132.112 395.493 130.13 399.129 129.527C402.762 128.926 406.418 129.773 409.416 131.917C412.413 134.062 414.397 137.246 414.999 140.882C415.076 141.345 415.129 141.81 415.159 142.275C415.286 144.291 414.971 146.312 414.23 148.192C414.184 148.308 414.166 148.428 414.174 148.544C414.194 148.851 414.386 149.135 414.691 149.255C415.112 149.42 415.588 149.215 415.754 148.793C416.584 146.689 416.937 144.428 416.795 142.173C416.762 141.652 416.702 141.132 416.617 140.615C415.942 136.546 413.723 132.984 410.369 130.585C407.016 128.186 402.93 127.232 398.861 127.91C394.792 128.585 391.231 130.803 388.831 134.157C386.742 137.076 385.752 140.552 385.976 144.087C386.009 144.612 386.069 145.139 386.156 145.665C387.462 153.541 394.55 159.043 402.352 158.548Z" fill="#BDD0FB"/>
<path d="M249.889 469.646C356.971 469.646 443.778 464.577 443.778 458.323C443.778 452.069 356.971 447 249.889 447C142.807 447 56 452.069 56 458.323C56 464.577 142.807 469.646 249.889 469.646Z" fill="#F5F5F5"/>
<path d="M239.279 407H45.7216C42.5671 407 40 403.795 40 399.856V60.1439C40 56.2052 42.5671 53 45.7216 53H239.279C242.433 53 245 56.2052 245 60.1439V399.856C245 403.795 242.433 407 239.279 407ZM45.7216 53.3141C42.7044 53.3141 40.2506 56.3779 40.2506 60.1451V399.857C40.2506 403.625 42.7044 406.688 45.7216 406.688H239.279C242.296 406.688 244.749 403.625 244.749 399.857V60.1439C244.749 56.3779 242.296 53.3129 239.279 53.3129L45.7216 53.3141Z" fill="#EBEBEB"/>
<path d="M455.278 407H261.721C258.566 407 256 403.795 256 399.856V60.1439C256 56.2052 258.567 53 261.721 53H455.278C458.434 53 461 56.2052 461 60.1439V399.856C461.001 403.795 458.434 407 455.278 407ZM261.721 53.3141C258.704 53.3141 256.251 56.3779 256.251 60.1451V399.857C256.251 403.625 258.704 406.688 261.721 406.688H455.278C458.296 406.688 460.749 403.625 460.749 399.857V60.1439C460.749 56.3779 458.296 53.3129 455.278 53.3129L261.721 53.3141Z" fill="#EBEBEB"/>
<path d="M500 432H0V432.25H500V432Z" fill="#EBEBEB"/>
<defs>
<linearGradient id="paint0_linear_384_191" x1="481.66" y1="543.064" x2="151.939" y2="133.571" gradientUnits="userSpaceOnUse">
<stop stop-color="#DAE3FE"/>
<stop offset="1" stop-color="#E9EFFD"/>
</linearGradient>
<linearGradient id="paint1_linear_384_191" x1="142.708" y1="250.382" x2="171.074" y2="250.382" gradientUnits="userSpaceOnUse">
<stop stop-color="#DAE3FE"/>
<stop offset="1" stop-color="#E9EFFD"/>
</linearGradient>
<linearGradient id="paint2_linear_384_191" x1="111.163" y1="250.379" x2="139.47" y2="250.379" gradientUnits="userSpaceOnUse">
<stop stop-color="#DAE3FE"/>
<stop offset="1" stop-color="#E9EFFD"/>
</linearGradient>
<linearGradient id="paint3_linear_384_191" x1="79.6495" y1="250.377" x2="107.898" y2="250.377" gradientUnits="userSpaceOnUse">
<stop stop-color="#DAE3FE"/>
<stop offset="1" stop-color="#E9EFFD"/>
</linearGradient>
<linearGradient id="paint4_linear_384_191" x1="142.356" y1="271.02" x2="170.672" y2="271.02" gradientUnits="userSpaceOnUse">
<stop stop-color="#DAE3FE"/>
<stop offset="1" stop-color="#E9EFFD"/>
</linearGradient>
<linearGradient id="paint5_linear_384_191" x1="110.866" y1="271.007" x2="139.124" y2="271.007" gradientUnits="userSpaceOnUse">
<stop stop-color="#DAE3FE"/>
<stop offset="1" stop-color="#E9EFFD"/>
</linearGradient>
<linearGradient id="paint6_linear_384_191" x1="79.4076" y1="270.994" x2="107.606" y2="270.994" gradientUnits="userSpaceOnUse">
<stop stop-color="#DAE3FE"/>
<stop offset="1" stop-color="#E9EFFD"/>
</linearGradient>
<linearGradient id="paint7_linear_384_191" x1="142.006" y1="291.479" x2="170.272" y2="291.479" gradientUnits="userSpaceOnUse">
<stop stop-color="#DAE3FE"/>
<stop offset="1" stop-color="#E9EFFD"/>
</linearGradient>
<linearGradient id="paint8_linear_384_191" x1="110.57" y1="291.456" x2="138.778" y2="291.456" gradientUnits="userSpaceOnUse">
<stop stop-color="#DAE3FE"/>
<stop offset="1" stop-color="#E9EFFD"/>
</linearGradient>
<linearGradient id="paint9_linear_384_191" x1="79.1666" y1="291.433" x2="107.316" y2="291.433" gradientUnits="userSpaceOnUse">
<stop stop-color="#DAE3FE"/>
<stop offset="1" stop-color="#E9EFFD"/>
</linearGradient>
<linearGradient id="paint10_linear_384_191" x1="141.656" y1="311.867" x2="169.873" y2="311.867" gradientUnits="userSpaceOnUse">
<stop stop-color="#DAE3FE"/>
<stop offset="1" stop-color="#E9EFFD"/>
</linearGradient>
<linearGradient id="paint11_linear_384_191" x1="110.276" y1="311.834" x2="138.434" y2="311.834" gradientUnits="userSpaceOnUse">
<stop stop-color="#DAE3FE"/>
<stop offset="1" stop-color="#E9EFFD"/>
</linearGradient>
<linearGradient id="paint12_linear_384_191" x1="78.9264" y1="311.8" x2="107.027" y2="311.8" gradientUnits="userSpaceOnUse">
<stop stop-color="#DAE3FE"/>
<stop offset="1" stop-color="#E9EFFD"/>
</linearGradient>
<linearGradient id="paint13_linear_384_191" x1="141.308" y1="332.185" x2="169.476" y2="332.185" gradientUnits="userSpaceOnUse">
<stop stop-color="#DAE3FE"/>
<stop offset="1" stop-color="#E9EFFD"/>
</linearGradient>
<linearGradient id="paint14_linear_384_191" x1="109.982" y1="332.141" x2="138.092" y2="332.141" gradientUnits="userSpaceOnUse">
<stop stop-color="#DAE3FE"/>
<stop offset="1" stop-color="#E9EFFD"/>
</linearGradient>
<linearGradient id="paint15_linear_384_191" x1="78.6869" y1="332.098" x2="106.739" y2="332.098" gradientUnits="userSpaceOnUse">
<stop stop-color="#DAE3FE"/>
<stop offset="1" stop-color="#E9EFFD"/>
</linearGradient>
<linearGradient id="paint16_linear_384_191" x1="140.961" y1="352.432" x2="169.08" y2="352.432" gradientUnits="userSpaceOnUse">
<stop stop-color="#DAE3FE"/>
<stop offset="1" stop-color="#E9EFFD"/>
</linearGradient>
<linearGradient id="paint17_linear_384_191" x1="109.689" y1="352.378" x2="137.75" y2="352.378" gradientUnits="userSpaceOnUse">
<stop stop-color="#DAE3FE"/>
<stop offset="1" stop-color="#E9EFFD"/>
</linearGradient>
<linearGradient id="paint18_linear_384_191" x1="78.4483" y1="352.325" x2="106.451" y2="352.325" gradientUnits="userSpaceOnUse">
<stop stop-color="#DAE3FE"/>
<stop offset="1" stop-color="#E9EFFD"/>
</linearGradient>
<linearGradient id="paint19_linear_384_191" x1="140.616" y1="372.61" x2="168.685" y2="372.61" gradientUnits="userSpaceOnUse">
<stop stop-color="#DAE3FE"/>
<stop offset="1" stop-color="#E9EFFD"/>
</linearGradient>
<linearGradient id="paint20_linear_384_191" x1="109.398" y1="372.546" x2="137.409" y2="372.546" gradientUnits="userSpaceOnUse">
<stop stop-color="#DAE3FE"/>
<stop offset="1" stop-color="#E9EFFD"/>
</linearGradient>
<linearGradient id="paint21_linear_384_191" x1="78.2105" y1="372.483" x2="106.165" y2="372.483" gradientUnits="userSpaceOnUse">
<stop stop-color="#DAE3FE"/>
<stop offset="1" stop-color="#E9EFFD"/>
</linearGradient>
<linearGradient id="paint22_linear_384_191" x1="140.271" y1="392.718" x2="168.292" y2="392.718" gradientUnits="userSpaceOnUse">
<stop stop-color="#DAE3FE"/>
<stop offset="1" stop-color="#E9EFFD"/>
</linearGradient>
<linearGradient id="paint23_linear_384_191" x1="109.107" y1="392.644" x2="137.07" y2="392.644" gradientUnits="userSpaceOnUse">
<stop stop-color="#DAE3FE"/>
<stop offset="1" stop-color="#E9EFFD"/>
</linearGradient>
<linearGradient id="paint24_linear_384_191" x1="77.9735" y1="392.571" x2="105.879" y2="392.571" gradientUnits="userSpaceOnUse">
<stop stop-color="#DAE3FE"/>
<stop offset="1" stop-color="#E9EFFD"/>
</linearGradient>
<linearGradient id="paint25_linear_384_191" x1="139.928" y1="412.757" x2="167.9" y2="412.757" gradientUnits="userSpaceOnUse">
<stop stop-color="#DAE3FE"/>
<stop offset="1" stop-color="#E9EFFD"/>
</linearGradient>
<linearGradient id="paint26_linear_384_191" x1="108.817" y1="412.674" x2="136.732" y2="412.674" gradientUnits="userSpaceOnUse">
<stop stop-color="#DAE3FE"/>
<stop offset="1" stop-color="#E9EFFD"/>
</linearGradient>
<linearGradient id="paint27_linear_384_191" x1="77.7374" y1="412.59" x2="105.595" y2="412.59" gradientUnits="userSpaceOnUse">
<stop stop-color="#DAE3FE"/>
<stop offset="1" stop-color="#E9EFFD"/>
</linearGradient>
<linearGradient id="paint28_linear_384_191" x1="369.446" y1="-106.494" x2="288.03" y2="368.433" gradientUnits="userSpaceOnUse">
<stop stop-color="#4042E2"/>
<stop offset="1" stop-color="#4F52FF"/>
</linearGradient>
<linearGradient id="paint29_linear_384_191" x1="230.727" y1="285.97" x2="374.693" y2="285.97" gradientUnits="userSpaceOnUse">
<stop stop-color="#4042E2"/>
<stop offset="1" stop-color="#4F52FF"/>
</linearGradient>
<linearGradient id="paint30_linear_384_191" x1="313.921" y1="127.256" x2="357.721" y2="26.1803" gradientUnits="userSpaceOnUse">
<stop stop-color="#09005D"/>
<stop offset="1" stop-color="#1A0F91"/>
</linearGradient>
<linearGradient id="paint31_linear_384_191" x1="317.904" y1="192.735" x2="219.333" y2="875.929" gradientUnits="userSpaceOnUse">
<stop stop-color="#BAB8B8"/>
<stop offset="1" stop-color="#BAB8B8"/>
</linearGradient>
<linearGradient id="paint32_linear_384_191" x1="315.318" y1="192.362" x2="216.748" y2="875.556" gradientUnits="userSpaceOnUse">
<stop stop-color="#BAB8B8"/>
<stop offset="1" stop-color="#BAB8B8"/>
</linearGradient>
<linearGradient id="paint33_linear_384_191" x1="320.946" y1="270.434" x2="465.446" y2="-16.8661" gradientUnits="userSpaceOnUse">
<stop stop-color="white"/>
<stop offset="1" stop-color="white"/>
</linearGradient>
<linearGradient id="paint34_linear_384_191" x1="126.359" y1="427.946" x2="142.343" y2="427.946" gradientUnits="userSpaceOnUse">
<stop stop-color="#09005D"/>
<stop offset="1" stop-color="#1A0F91"/>
</linearGradient>
<linearGradient id="paint35_linear_384_191" x1="130.804" y1="409.749" x2="127.75" y2="436.395" gradientUnits="userSpaceOnUse">
<stop stop-color="#FEBBBA"/>
<stop offset="1" stop-color="#FF928E"/>
</linearGradient>
<linearGradient id="paint36_linear_384_191" x1="150.698" y1="428.352" x2="173.707" y2="428.352" gradientUnits="userSpaceOnUse">
<stop stop-color="#09005D"/>
<stop offset="1" stop-color="#1A0F91"/>
</linearGradient>
<linearGradient id="paint37_linear_384_191" x1="155.258" y1="412.563" x2="153.887" y2="439.349" gradientUnits="userSpaceOnUse">
<stop stop-color="#FEBBBA"/>
<stop offset="1" stop-color="#FF928E"/>
</linearGradient>
<linearGradient id="paint38_linear_384_191" x1="151.042" y1="434.887" x2="119.438" y2="284.193" gradientUnits="userSpaceOnUse">
<stop stop-color="#09005D"/>
<stop offset="1" stop-color="#1A0F91"/>
</linearGradient>
<linearGradient id="paint39_linear_384_191" x1="183.318" y1="228.985" x2="113.489" y2="306.022" gradientUnits="userSpaceOnUse">
<stop stop-color="#4042E2"/>
<stop offset="1" stop-color="#4F52FF"/>
</linearGradient>
<linearGradient id="paint40_linear_384_191" x1="169.742" y1="233.262" x2="67.9529" y2="420.091" gradientUnits="userSpaceOnUse">
<stop stop-color="#4042E2"/>
<stop offset="1" stop-color="#4F52FF"/>
</linearGradient>
<linearGradient id="paint41_linear_384_191" x1="142.984" y1="254.442" x2="150.075" y2="235.078" gradientUnits="userSpaceOnUse">
<stop stop-color="#FEBBBA"/>
<stop offset="1" stop-color="#FF928E"/>
</linearGradient>
<linearGradient id="paint42_linear_384_191" x1="149.121" y1="192.026" x2="145.826" y2="217.184" gradientUnits="userSpaceOnUse">
<stop stop-color="#4042E2"/>
<stop offset="1" stop-color="#4F52FF"/>
</linearGradient>
<linearGradient id="paint43_linear_384_191" x1="154.883" y1="192.781" x2="151.589" y2="217.939" gradientUnits="userSpaceOnUse">
<stop stop-color="#4042E2"/>
<stop offset="1" stop-color="#4F52FF"/>
</linearGradient>
<linearGradient id="paint44_linear_384_191" x1="160.413" y1="225.395" x2="118.163" y2="259.046" gradientUnits="userSpaceOnUse">
<stop stop-color="#FEBBBA"/>
<stop offset="1" stop-color="#FF928E"/>
</linearGradient>
<linearGradient id="paint45_linear_384_191" x1="144.103" y1="214.325" x2="163.468" y2="239.257" gradientUnits="userSpaceOnUse">
<stop stop-color="#09005D"/>
<stop offset="1" stop-color="#1A0F91"/>
</linearGradient>
<linearGradient id="paint46_linear_384_191" x1="156.161" y1="223.551" x2="135.368" y2="239.461" gradientUnits="userSpaceOnUse">
<stop stop-color="#FEBBBA"/>
<stop offset="1" stop-color="#FF928E"/>
</linearGradient>
<linearGradient id="paint47_linear_384_191" x1="205.373" y1="234.062" x2="161.348" y2="272.091" gradientUnits="userSpaceOnUse">
<stop stop-color="#FEBBBA"/>
<stop offset="1" stop-color="#FF928E"/>
</linearGradient>
<linearGradient id="paint48_linear_384_191" x1="206.291" y1="237.607" x2="163.437" y2="274.625" gradientUnits="userSpaceOnUse">
<stop stop-color="#FEBBBA"/>
<stop offset="1" stop-color="#FF928E"/>
</linearGradient>
<linearGradient id="paint49_linear_384_191" x1="207.003" y1="235.949" x2="162.978" y2="273.978" gradientUnits="userSpaceOnUse">
<stop stop-color="#FEBBBA"/>
<stop offset="1" stop-color="#FF928E"/>
</linearGradient>
<linearGradient id="paint50_linear_384_191" x1="151.432" y1="158.192" x2="262.766" y2="305.154" gradientUnits="userSpaceOnUse">
<stop stop-color="#BAB8B8"/>
<stop offset="1" stop-color="#BAB8B8"/>
</linearGradient>
<linearGradient id="paint51_linear_384_191" x1="270.51" y1="184.201" x2="249.826" y2="285.643" gradientUnits="userSpaceOnUse">
<stop stop-color="#BAB8B8"/>
<stop offset="1" stop-color="#BAB8B8"/>
</linearGradient>
<linearGradient id="paint52_linear_384_191" x1="163.555" y1="232.193" x2="338.14" y2="245.246" gradientUnits="userSpaceOnUse">
<stop stop-color="#BAB8B8"/>
<stop offset="1" stop-color="#BAB8B8"/>
</linearGradient>
<linearGradient id="paint53_linear_384_191" x1="242.951" y1="225.566" x2="285.18" y2="118.196" gradientUnits="userSpaceOnUse">
<stop stop-color="white"/>
<stop offset="1" stop-color="white"/>
</linearGradient>
<linearGradient id="paint54_linear_384_191" x1="266.212" y1="111.333" x2="259.024" y2="125.26" gradientUnits="userSpaceOnUse">
<stop stop-color="#BAB8B8"/>
<stop offset="1" stop-color="#BAB8B8"/>
</linearGradient>
<linearGradient id="paint55_linear_384_191" x1="179.112" y1="267.15" x2="158.175" y2="371.591" gradientUnits="userSpaceOnUse">
<stop stop-color="#FEBBBA"/>
<stop offset="1" stop-color="#FF928E"/>
</linearGradient>
</defs>
</svg>
