<svg width="486" height="155" viewBox="0 0 486 155" fill="none" xmlns="http://www.w3.org/2000/svg">
<path d="M197.18 28.434C198.928 28.434 200.492 28.48 201.872 28.572L205.598 125.172C204.034 125.448 202.332 125.632 200.492 125.724C198.744 125.816 196.996 125.862 195.248 125.862C193.592 125.862 191.936 125.862 190.28 125.862C188.716 125.862 187.382 125.908 186.278 126H186.14C185.68 122.964 185.358 119.836 185.174 116.616C185.082 113.304 184.99 110.038 184.898 106.818C184.898 103.598 184.852 100.378 184.76 97.158C184.668 93.938 184.438 90.856 184.07 87.912L183.932 87.774C181.264 87.314 178.596 87.084 175.928 87.084C173.26 87.084 170.592 87.406 167.924 88.05C167.648 91.27 167.51 94.444 167.51 97.572C167.602 100.7 167.694 103.828 167.786 106.956C167.878 110.084 167.878 113.166 167.786 116.202C167.786 119.146 167.556 122.09 167.096 125.034C165.992 125.678 164.52 126 162.68 126C160.84 126 159 125.908 157.16 125.724C155.32 125.54 153.572 125.402 151.916 125.31C150.352 125.218 149.156 125.402 148.328 125.862C148.144 123.286 147.914 119.79 147.638 115.374C147.454 110.866 147.27 105.852 147.086 100.332C146.902 94.72 146.718 88.786 146.534 82.53C146.442 76.274 146.35 70.018 146.258 63.762C146.166 57.414 146.12 51.342 146.12 45.546C146.212 39.658 146.304 34.368 146.396 29.676V29.538H146.534H146.81C148.19 29.814 149.616 29.906 151.088 29.814C152.652 29.722 154.17 29.63 155.642 29.538C157.206 29.446 158.724 29.4 160.196 29.4C161.668 29.4 163.048 29.584 164.336 29.952C165.164 36.3 165.578 42.464 165.578 48.444C165.578 54.424 166.13 60.358 167.234 66.246H167.372C169.672 66.798 172.156 66.982 174.824 66.798C177.492 66.522 179.976 66.292 182.276 66.108H182.414C182.966 59.76 183.242 53.826 183.242 48.306C183.334 42.786 183.242 36.714 182.966 30.09C184.07 29.722 185.404 29.4 186.968 29.124C188.624 28.848 190.326 28.664 192.074 28.572C193.822 28.388 195.524 28.342 197.18 28.434ZM223.955 56.586C226.071 56.678 228.601 56.678 231.545 56.586H233.891V57C233.799 68.132 233.569 79.494 233.201 91.086C232.925 102.678 233.109 114.04 233.753 125.172C233.293 125.724 232.143 126 230.303 126C228.463 126.092 226.439 126.092 224.231 126C222.115 126 220.091 125.954 218.159 125.862C216.227 125.77 214.939 125.816 214.295 126C214.755 120.204 214.939 114.316 214.847 108.336C214.847 102.356 214.755 96.422 214.571 90.534C214.387 84.646 214.295 78.85 214.295 73.146C214.295 67.35 214.571 61.738 215.123 56.31V56.172C215.491 56.08 216.089 56.08 216.917 56.172C217.837 56.264 218.527 56.31 218.987 56.31C220.183 56.402 221.839 56.494 223.955 56.586ZM214.709 37.266C214.525 34.322 214.479 30.734 214.571 26.502L233.339 26.916C233.339 27.468 233.339 28.48 233.339 29.952C233.431 31.332 233.477 32.896 233.477 34.644C233.569 36.3 233.615 38.048 233.615 39.888C233.707 41.636 233.753 43.2 233.753 44.58C233.385 45.132 232.511 45.5 231.131 45.684C229.843 45.868 228.279 45.96 226.439 45.96C224.691 45.868 222.805 45.776 220.781 45.684C218.757 45.5 216.871 45.454 215.123 45.546C215.123 42.878 214.985 40.118 214.709 37.266ZM262.048 60.45C262.14 60.726 262.186 61.186 262.186 61.83C262.554 61.646 263.382 61.278 264.67 60.726C266.05 60.174 267.384 59.668 268.672 59.208C270.42 58.656 272.398 58.242 274.606 57.966C276.814 57.598 278.884 57.368 280.816 57.276C282.748 57.184 284.358 57.184 285.646 57.276C287.026 57.276 287.716 57.322 287.716 57.414C287.716 60.542 287.67 63.302 287.578 65.694C287.578 68.086 287.578 70.248 287.578 72.18C287.578 74.02 287.578 75.722 287.578 77.286C287.578 78.85 287.624 80.322 287.716 81.702L286.474 81.288C286.014 81.104 285.508 80.966 284.956 80.874C284.496 80.69 284.036 80.506 283.576 80.322C282.472 80.046 281.322 79.816 280.126 79.632C279.022 79.448 278.424 79.356 278.332 79.356C275.848 79.08 273.548 78.942 271.432 78.942C269.408 78.942 267.614 79.264 266.05 79.908C264.578 80.552 263.428 81.564 262.6 82.944C261.772 84.324 261.404 86.302 261.496 88.878C261.588 92.098 261.68 95.134 261.772 97.986C261.864 100.838 261.91 103.736 261.91 106.68C261.91 109.532 261.91 112.476 261.91 115.512C262.002 118.456 262.048 121.63 262.048 125.034V125.586C260.484 126.046 259.058 126.322 257.77 126.414C256.482 126.506 255.148 126.506 253.768 126.414C252.388 126.414 250.87 126.368 249.214 126.276C247.65 126.184 245.764 126.23 243.556 126.414C243.556 115.098 243.418 103.782 243.142 92.466C242.958 81.15 243.05 69.42 243.418 57.276C244.522 57.368 245.442 57.46 246.178 57.552C246.914 57.552 247.604 57.552 248.248 57.552C248.892 57.552 249.582 57.552 250.318 57.552C251.054 57.46 251.974 57.368 253.078 57.276C253.446 57.276 254.09 57.23 255.01 57.138C256.022 57.046 257.034 56.954 258.046 56.862C259.15 56.77 260.07 56.77 260.806 56.862C261.634 56.862 262.048 56.954 262.048 57.138C262.048 57.874 262.048 58.426 262.048 58.794C262.048 59.162 262.048 59.484 262.048 59.76C262.048 59.944 262.048 60.174 262.048 60.45ZM315.062 91.776C313.038 91.684 311.566 91.546 310.646 91.362V93.846C310.738 96.606 310.83 98.86 310.922 100.608C311.106 102.356 311.704 104.058 312.716 105.714C313.82 107.83 315.384 109.394 317.408 110.406C319.432 111.418 321.41 111.74 323.342 111.372C325.274 111.004 326.884 109.9 328.172 108.06C329.552 106.128 330.15 103.276 329.966 99.504C330.886 99.596 332.128 99.642 333.692 99.642C335.256 99.55 336.866 99.458 338.522 99.366C340.27 99.274 341.926 99.274 343.49 99.366C345.054 99.366 346.342 99.504 347.354 99.78C347.17 102.172 346.986 104.518 346.802 106.818C346.618 109.118 346.388 111.28 346.112 113.304C345.836 115.236 345.468 116.938 345.008 118.41C344.64 119.79 344.134 120.756 343.49 121.308C341.926 123.516 339.902 125.08 337.418 126C334.934 126.92 332.22 127.472 329.276 127.656C326.332 127.84 323.296 127.84 320.168 127.656C317.132 127.472 314.326 127.38 311.75 127.38C309.174 127.012 306.782 126.184 304.574 124.896C302.09 123.148 300.02 120.894 298.364 118.134C296.708 115.282 295.374 112.2 294.362 108.888C293.35 105.484 292.66 101.896 292.292 98.124C291.924 94.352 291.832 90.58 292.016 86.808C292.292 83.404 292.568 80.138 292.844 77.01C293.212 73.79 293.948 70.662 295.052 67.626C296.248 64.958 298.088 62.704 300.572 60.864C303.056 58.932 305.862 57.506 308.99 56.586C312.118 55.574 315.43 55.022 318.926 54.93C322.422 54.838 325.826 55.206 329.138 56.034C333.37 56.77 336.774 58.242 339.35 60.45C341.926 62.658 343.858 65.326 345.146 68.454C346.526 71.582 347.354 75.032 347.63 78.804C347.906 82.576 347.906 86.394 347.63 90.258C346.986 90.442 345.744 90.626 343.904 90.81C342.156 90.994 340.04 91.178 337.556 91.362C335.164 91.546 332.588 91.684 329.828 91.776C327.068 91.868 324.4 91.914 321.824 91.914C319.34 91.914 317.086 91.868 315.062 91.776ZM331.208 73.698C330.288 72.042 329 70.8 327.344 69.972C326.608 69.512 325.872 69.19 325.136 69.006C324.4 68.73 323.526 68.592 322.514 68.592C320.306 68.592 318.512 68.822 317.132 69.282C315.752 69.742 314.648 70.386 313.82 71.214C312.992 72.042 312.348 73.008 311.888 74.112C311.52 75.216 311.244 76.366 311.06 77.562C310.876 78.574 310.784 79.31 310.784 79.77C310.876 80.138 311.336 80.414 312.164 80.598C312.992 80.69 314.28 80.736 316.028 80.736C317.868 80.644 320.536 80.598 324.032 80.598C326.424 80.598 328.218 80.644 329.414 80.736C330.61 80.828 331.438 80.874 331.898 80.874C332.45 80.782 332.726 80.644 332.726 80.46C332.726 80.184 332.726 79.678 332.726 78.942C332.726 77.102 332.22 75.354 331.208 73.698ZM410.881 32.436C412.629 32.62 414.055 33.034 415.159 33.678C415.711 45.454 415.895 57.368 415.711 69.42C415.527 81.38 414.791 93.294 413.503 105.162C412.767 111.234 410.467 116.386 406.603 120.618C402.739 124.85 397.495 127.288 390.871 127.932C387.007 128.3 383.005 128.116 378.865 127.38C374.725 126.736 370.953 125.54 367.549 123.792C364.237 121.952 361.431 119.56 359.131 116.616C356.923 113.58 355.727 109.946 355.543 105.714C355.543 93.57 355.681 81.334 355.957 69.006C356.233 56.678 356.279 44.442 356.095 32.298L355.957 32.16H356.095C357.475 32.16 358.993 32.114 360.649 32.022C362.397 31.93 364.145 31.884 365.893 31.884C367.641 31.884 369.343 31.976 370.999 32.16C372.655 32.252 374.173 32.482 375.553 32.85V32.988C374.541 55.252 374.955 77.838 376.795 100.746C377.439 102.954 378.589 104.564 380.245 105.576C381.993 106.588 383.787 107.048 385.627 106.956C387.467 106.864 389.169 106.22 390.733 105.024C392.297 103.828 393.309 102.172 393.769 100.056C394.229 89.016 394.459 77.792 394.459 66.384C394.551 54.976 394.735 43.936 395.011 33.264C396.207 33.172 397.725 33.034 399.565 32.85C401.497 32.574 403.429 32.39 405.361 32.298C407.293 32.206 409.133 32.252 410.881 32.436ZM443.294 148.218C443.294 149.23 443.248 150.656 443.156 152.496V154.014C443.156 154.106 442.512 154.198 441.224 154.29C440.028 154.474 438.51 154.566 436.67 154.566C434.922 154.658 433.036 154.658 431.012 154.566C428.988 154.566 427.24 154.428 425.768 154.152V145.044C425.768 137.408 425.676 129.772 425.492 122.136C425.308 114.5 425.124 107.002 424.94 99.642C424.848 92.19 424.756 84.922 424.664 77.838C424.664 70.662 424.756 63.762 424.94 57.138C427.792 57.138 430.92 57.092 434.324 57C437.728 56.816 440.81 56.908 443.57 57.276C443.662 57.46 443.708 57.782 443.708 58.242C443.708 59.162 443.708 59.898 443.708 60.45C443.8 61.002 443.846 61.784 443.846 62.796C444.03 63.256 444.214 63.624 444.398 63.9C444.674 64.084 444.95 63.9 445.226 63.348C446.606 60.588 448.446 58.84 450.746 58.104C453.046 57.276 455.484 57.046 458.06 57.414C463.304 57.782 467.444 59.162 470.48 61.554C473.516 63.854 475.77 66.844 477.242 70.524C478.806 74.112 479.818 78.16 480.278 82.668C480.738 87.176 481.06 91.73 481.244 96.33C481.244 99.55 481.014 102.678 480.554 105.714C480.186 108.75 479.542 111.556 478.622 114.132C477.794 116.616 476.644 118.778 475.172 120.618C473.792 122.366 472.09 123.608 470.066 124.344C467.582 125.264 464.822 125.816 461.786 126C458.842 126.276 456.036 126.276 453.368 126C450.7 125.816 448.446 125.402 446.606 124.758C444.766 124.114 443.754 123.378 443.57 122.55C443.662 126.874 443.708 130.37 443.708 133.038C443.708 135.706 443.708 137.822 443.708 139.386C443.708 141.042 443.662 142.284 443.57 143.112C443.57 144.032 443.524 144.86 443.432 145.596C443.432 146.424 443.386 147.298 443.294 148.218ZM460.406 107.784C462.706 106.128 464.086 103.69 464.546 100.47C465.006 99.182 465.282 97.848 465.374 96.468C465.466 95.088 465.512 93.754 465.512 92.466C465.512 90.166 465.236 87.958 464.684 85.842C464.132 83.634 463.304 81.702 462.2 80.046C461.096 78.298 459.762 76.918 458.198 75.906C456.634 74.894 454.886 74.388 452.954 74.388C450.562 74.388 448.722 74.894 447.434 75.906C446.146 76.918 445.134 78.298 444.398 80.046C443.754 81.794 443.34 83.91 443.156 86.394C443.064 88.878 443.018 91.546 443.018 94.398C443.018 97.986 443.064 100.838 443.156 102.954C443.34 104.978 443.708 106.542 444.26 107.646C444.812 108.75 445.64 109.486 446.744 109.854C447.94 110.13 449.504 110.268 451.436 110.268C455.208 110.268 458.198 109.44 460.406 107.784Z" fill="white"/>
<path d="M99.3548 21.5172C100.849 18.1531 104.891 15.5044 104.891 15.5044C99.8765 14.1899 94.971 15.0227 92.1342 15.9159C90.4791 14.1239 83.8288 -2.48693 57.2371 0.318297C57.2371 0.318297 63.9605 3.99704 68.0268 10.7268C68.0268 10.7268 66.3114 10.6179 65.2104 10.6439C36.3956 11.3229 11.876 36.2041 11.5951 65.0259C11.4062 84.4195 21.2691 101.519 36.2895 111.443C38.9656 113.211 40.5665 116.212 40.5665 119.418V121.14C40.5665 125.724 44.2825 129.44 48.8663 129.44H84.2079C88.7918 129.44 92.5078 125.724 92.5078 121.14V119.423C92.5078 116.247 94.0547 113.24 96.7068 111.494C111.63 101.671 121.482 84.7741 121.482 65.5729C121.483 47.5331 112.783 31.5325 99.3548 21.5172Z" fill="url(#paint0_linear_363_2)"/>
<path d="M68.4987 109.78C44.0655 109.78 28.1042 104.825 17.9703 91.2714C22.2992 99.4322 28.6196 106.375 36.2902 111.443C38.9663 113.211 40.5672 116.212 40.5672 119.418V121.14C40.5672 125.724 44.2832 129.44 48.8671 129.44H84.2087C88.7925 129.44 92.5085 125.724 92.5085 121.14V119.423C92.5085 116.247 94.0554 113.24 96.7075 111.494C104.773 106.185 111.352 98.8073 115.7 90.1185C106.132 103.654 85.9887 109.78 68.4987 109.78Z" fill="url(#paint1_linear_363_2)"/>
<path d="M92.1342 74.9499C97.1574 74.9499 101.23 69.452 101.23 62.6701C101.23 55.8882 97.1574 50.3903 92.1342 50.3903C87.1109 50.3903 83.0388 55.8882 83.0388 62.6701C83.0388 69.452 87.1109 74.9499 92.1342 74.9499Z" fill="black"/>
<path d="M89.5719 58.7737C91.3853 58.7737 92.8553 57.3037 92.8553 55.4903C92.8553 53.6769 91.3853 52.2069 89.5719 52.2069C87.7585 52.2069 86.2885 53.6769 86.2885 55.4903C86.2885 57.3037 87.7585 58.7737 89.5719 58.7737Z" fill="white"/>
<path d="M40.6269 74.9499C45.6502 74.9499 49.7223 69.452 49.7223 62.6701C49.7223 55.8882 45.6502 50.3903 40.6269 50.3903C35.6037 50.3903 31.5316 55.8882 31.5316 62.6701C31.5316 69.452 35.6037 74.9499 40.6269 74.9499Z" fill="black"/>
<path d="M38.0654 58.7737C39.8788 58.7737 41.3488 57.3037 41.3488 55.4903C41.3488 53.6769 39.8788 52.2069 38.0654 52.2069C36.252 52.2069 34.782 53.6769 34.782 55.4903C34.782 57.3037 36.252 58.7737 38.0654 58.7737Z" fill="white"/>
<path d="M85.9045 139.193H46.4888C43.7952 139.193 41.6121 137.01 41.6121 134.317C41.6121 131.623 43.7952 129.44 46.4888 129.44H85.9045C88.598 129.44 90.7811 131.623 90.7811 134.317C90.7811 137.01 88.598 139.193 85.9045 139.193Z" fill="url(#paint2_linear_363_2)"/>
<path d="M68.3478 153.797H64.728C61.0759 153.797 57.8234 151.487 56.6206 148.039L53.5345 139.193H79.5406L76.4545 148.039C75.2523 151.487 71.9998 153.797 68.3478 153.797Z" fill="url(#paint3_linear_363_2)"/>
<path d="M77.6959 144.482L79.5412 139.193H53.5352L55.3798 144.482H77.6959Z" fill="url(#paint4_linear_363_2)"/>
<path d="M100.849 27.1206C89.3234 27.1206 79.2674 33.3848 73.8796 42.6902C72.1072 40.1953 69.1981 38.5613 65.9112 38.5613C62.6846 38.5613 59.8232 40.1363 58.0425 42.5539C52.6357 33.3237 42.6204 27.1206 31.151 27.1206C13.9468 27.1206 0 41.0674 0 58.2716C0 75.4758 13.9468 89.4226 31.151 89.4226C48.3552 89.4226 62.3019 75.4758 62.3019 58.2716C62.3019 54.4489 61.6103 50.7884 60.3499 47.4039C60.7958 44.7335 63.1158 42.6902 65.9112 42.6902C68.8259 42.6902 71.2309 44.9112 71.5244 47.7494C70.3448 51.037 69.6981 54.5781 69.6981 58.2709C69.6981 75.4751 83.6448 89.4219 100.849 89.4219C118.053 89.4219 132 75.4751 132 58.2709C132 41.0674 118.053 27.1206 100.849 27.1206ZM31.1517 85.3225C16.212 85.3225 4.10075 73.2113 4.10075 58.2716C4.10075 43.3313 16.212 31.2207 31.1517 31.2207C46.0913 31.2207 58.2026 43.332 58.2026 58.2716C58.2026 73.2113 46.0913 85.3225 31.1517 85.3225ZM100.849 85.3225C85.9094 85.3225 73.7981 73.2113 73.7981 58.2716C73.7981 43.3313 85.9094 31.2207 100.849 31.2207C115.789 31.2207 127.9 43.332 127.9 58.2716C127.901 73.2113 115.789 85.3225 100.849 85.3225Z" fill="white"/>
<path d="M67.1758 98.2891C66.8613 98.2891 66.5446 98.2771 66.2265 98.2547C61.9804 97.9457 58.0194 95.4642 55.8903 91.7777C55.1088 90.4253 55.5722 88.6958 56.9246 87.9143C58.2771 87.1328 60.0072 87.5955 60.7881 88.9486C61.9755 91.0032 64.2709 92.442 66.6373 92.614C68.8414 92.7762 71.6789 91.9378 73.0707 89.1136C73.7609 87.7128 75.4588 87.137 76.8575 87.8272C78.2584 88.5175 78.8349 90.2133 78.1447 91.6141C76.1111 95.7401 71.8741 98.2891 67.1758 98.2891Z" fill="black"/>
<defs>
<linearGradient id="paint0_linear_363_2" x1="31.2674" y1="159.703" x2="86.8686" y2="11.7397" gradientUnits="userSpaceOnUse">
<stop stop-color="#5C1CB2"/>
<stop offset="0.0922" stop-color="#7118B4"/>
<stop offset="0.2837" stop-color="#A90FB9"/>
<stop offset="0.5494" stop-color="#FF00C1"/>
<stop offset="0.6215" stop-color="#FE15AD"/>
<stop offset="0.7714" stop-color="#FA4D7B"/>
<stop offset="0.9846" stop-color="#F4A52A"/>
<stop offset="1" stop-color="#F4AC24"/>
</linearGradient>
<linearGradient id="paint1_linear_363_2" x1="66.8354" y1="77.9347" x2="66.8354" y2="157.256" gradientUnits="userSpaceOnUse">
<stop stop-color="#5CBFFC" stop-opacity="0"/>
<stop offset="0.2757" stop-color="#5C8AE4" stop-opacity="0.2757"/>
<stop offset="0.6158" stop-color="#5C4FC9" stop-opacity="0.6158"/>
<stop offset="0.8672" stop-color="#5C2AB8" stop-opacity="0.8672"/>
<stop offset="1" stop-color="#5C1CB2"/>
</linearGradient>
<linearGradient id="paint2_linear_363_2" x1="54.4977" y1="165.45" x2="105.507" y2="29.7059" gradientUnits="userSpaceOnUse">
<stop stop-color="#5C1CB2"/>
<stop offset="0.0922" stop-color="#7118B4"/>
<stop offset="0.2837" stop-color="#A90FB9"/>
<stop offset="0.5494" stop-color="#FF00C1"/>
<stop offset="0.6215" stop-color="#FE15AD"/>
<stop offset="0.7714" stop-color="#FA4D7B"/>
<stop offset="0.9846" stop-color="#F4A52A"/>
<stop offset="1" stop-color="#F4AC24"/>
</linearGradient>
<linearGradient id="paint3_linear_363_2" x1="59.1668" y1="159.13" x2="112.771" y2="16.4816" gradientUnits="userSpaceOnUse">
<stop stop-color="#5C1CB2"/>
<stop offset="0.0922" stop-color="#7118B4"/>
<stop offset="0.2837" stop-color="#A90FB9"/>
<stop offset="0.5494" stop-color="#FF00C1"/>
<stop offset="0.6215" stop-color="#FE15AD"/>
<stop offset="0.7714" stop-color="#FA4D7B"/>
<stop offset="0.9846" stop-color="#F4A52A"/>
<stop offset="1" stop-color="#F4AC24"/>
</linearGradient>
<linearGradient id="paint4_linear_363_2" x1="66.3914" y1="144.689" x2="66.5758" y2="137.777" gradientUnits="userSpaceOnUse">
<stop stop-color="#5CBFFC" stop-opacity="0"/>
<stop offset="0.2757" stop-color="#5C8AE4" stop-opacity="0.2757"/>
<stop offset="0.6158" stop-color="#5C4FC9" stop-opacity="0.6158"/>
<stop offset="0.8672" stop-color="#5C2AB8" stop-opacity="0.8672"/>
<stop offset="1" stop-color="#5C1CB2"/>
</linearGradient>
</defs>
</svg>
