<svg width="120" height="120" viewBox="0 0 120 120" fill="none" xmlns="http://www.w3.org/2000/svg">
<path d="M85.5213 16.7888C86.6872 14.1639 89.8413 12.0973 89.8413 12.0973C85.9284 11.0717 82.1009 11.7214 79.8875 12.4183C78.5962 11.0202 73.4072 -1.94042 52.6591 0.24835C52.6591 0.24835 57.905 3.11868 61.0778 8.36953C61.0778 8.36953 59.7393 8.28461 58.8803 8.30488C36.3976 8.83468 17.2663 28.2481 17.0471 50.7363C16.8997 65.8681 24.5952 79.21 36.3149 86.9532C38.4028 88.3327 39.652 90.6738 39.652 93.1759V94.5193C39.652 98.0959 42.5513 100.995 46.1279 100.995H73.7031C77.2796 100.995 80.179 98.0959 80.179 94.5193V93.1792C80.179 90.7017 81.386 88.3552 83.4553 86.9931C95.0988 79.3289 102.786 66.1448 102.786 51.1631C102.787 37.0876 95.9989 24.6031 85.5213 16.7888Z" fill="url(#paint0_linear_381_2)"/>
<path d="M61.446 85.6551C42.3821 85.6551 29.9283 81.7893 22.0214 71.2142C25.399 77.5816 30.3305 82.9985 36.3155 86.9531C38.4034 88.3326 39.6526 90.6737 39.6526 93.1758V94.5192C39.6526 98.0958 42.552 100.995 46.1285 100.995H73.7037C77.2802 100.995 80.1796 98.0958 80.1796 94.5192V93.1791C80.1796 90.7016 81.3866 88.3551 83.4559 86.993C89.7488 82.8505 94.8824 77.094 98.2749 70.3146C90.8089 80.8755 75.0926 85.6551 61.446 85.6551Z" fill="url(#paint1_linear_381_2)"/>
<path d="M79.8875 58.4793C83.8068 58.4793 86.9841 54.1896 86.9841 48.898C86.9841 43.6064 83.8068 39.3168 79.8875 39.3168C75.9681 39.3168 72.7908 43.6064 72.7908 48.898C72.7908 54.1896 75.9681 58.4793 79.8875 58.4793Z" fill="black"/>
<path d="M77.8882 45.8581C79.303 45.8581 80.45 44.7111 80.45 43.2963C80.45 41.8814 79.303 40.7344 77.8882 40.7344C76.4733 40.7344 75.3263 41.8814 75.3263 43.2963C75.3263 44.7111 76.4733 45.8581 77.8882 45.8581Z" fill="white"/>
<path d="M39.6991 58.4793C43.6185 58.4793 46.7958 54.1896 46.7958 48.898C46.7958 43.6064 43.6185 39.3168 39.6991 39.3168C35.7798 39.3168 32.6025 43.6064 32.6025 48.898C32.6025 54.1896 35.7798 58.4793 39.6991 58.4793Z" fill="black"/>
<path d="M37.7004 45.8581C39.1152 45.8581 40.2622 44.7111 40.2622 43.2963C40.2622 41.8814 39.1152 40.7344 37.7004 40.7344C36.2855 40.7344 35.1385 41.8814 35.1385 43.2963C35.1385 44.7111 36.2855 45.8581 37.7004 45.8581Z" fill="white"/>
<path d="M75.0268 108.605H44.2728C42.1711 108.605 40.4678 106.902 40.4678 104.8C40.4678 102.698 42.1711 100.995 44.2728 100.995H75.0268C77.1284 100.995 78.8317 102.698 78.8317 104.8C78.8317 106.902 77.1284 108.605 75.0268 108.605Z" fill="url(#paint2_linear_381_2)"/>
<path d="M61.3281 120H58.5038C55.6543 120 53.1165 118.198 52.178 115.507L49.7701 108.605H70.0612L67.6533 115.507C66.7154 118.198 64.1776 120 61.3281 120Z" fill="url(#paint3_linear_381_2)"/>
<path d="M68.622 112.732L70.0619 108.605H49.7707L51.21 112.732H68.622Z" fill="url(#paint4_linear_381_2)"/>
<path d="M86.6872 21.1606C77.6943 21.1606 69.8482 26.0483 65.6443 33.3087C64.2615 31.3621 61.9916 30.0872 59.427 30.0872C56.9095 30.0872 54.6769 31.3161 53.2875 33.2024C49.0689 26.0006 41.2545 21.1606 32.3055 21.1606C18.8819 21.1606 8 32.0426 8 45.4661C8 58.8896 18.8819 69.7716 32.3055 69.7716C45.729 69.7716 56.6109 58.8896 56.6109 45.4661C56.6109 42.4835 56.0713 39.6274 55.0878 36.9866C55.4357 34.903 57.2459 33.3087 59.427 33.3087C61.7013 33.3087 63.5777 35.0417 63.8067 37.2562C62.8863 39.8213 62.3817 42.5843 62.3817 45.4656C62.3817 58.8891 73.2636 69.771 86.6872 69.771C100.111 69.771 110.993 58.8891 110.993 45.4656C110.993 32.0426 100.111 21.1606 86.6872 21.1606ZM32.306 66.5725C20.6494 66.5725 11.1996 57.1227 11.1996 45.4661C11.1996 33.8089 20.6494 24.3597 32.306 24.3597C43.9626 24.3597 53.4124 33.8095 53.4124 45.4661C53.4124 57.1227 43.9626 66.5725 32.306 66.5725ZM86.6872 66.5725C75.0306 66.5725 65.5808 57.1227 65.5808 45.4661C65.5808 33.8089 75.0306 24.3597 86.6872 24.3597C98.3438 24.3597 107.794 33.8095 107.794 45.4661C107.794 57.1227 98.3444 66.5725 86.6872 66.5725Z" fill="black"/>
<path d="M60.4137 76.6898C60.1683 76.6898 59.9212 76.6805 59.673 76.6629C56.36 76.4219 53.2694 74.4857 51.6083 71.6093C50.9985 70.5541 51.3601 69.2047 52.4153 68.5949C53.4705 67.9851 54.8205 68.3462 55.4297 69.4019C56.3562 71.005 58.1472 72.1276 59.9935 72.2618C61.7133 72.3884 63.9273 71.7342 65.0132 69.5307C65.5517 68.4377 66.8765 67.9884 67.9679 68.527C69.0609 69.0655 69.5107 70.3887 68.9721 71.4817C67.3855 74.701 64.0796 76.6898 60.4137 76.6898Z" fill="black"/>
<defs>
<linearGradient id="paint0_linear_381_2" x1="32.3964" y1="124.608" x2="75.779" y2="9.15984" gradientUnits="userSpaceOnUse">
<stop stop-color="#5C1CB2"/>
<stop offset="0.0922" stop-color="#7118B4"/>
<stop offset="0.2837" stop-color="#A90FB9"/>
<stop offset="0.5494" stop-color="#FF00C1"/>
<stop offset="0.6215" stop-color="#FE15AD"/>
<stop offset="0.7714" stop-color="#FA4D7B"/>
<stop offset="0.9846" stop-color="#F4A52A"/>
<stop offset="1" stop-color="#F4AC24"/>
</linearGradient>
<linearGradient id="paint1_linear_381_2" x1="60.1482" y1="60.8082" x2="60.1482" y2="122.699" gradientUnits="userSpaceOnUse">
<stop stop-color="#5CBFFC" stop-opacity="0"/>
<stop offset="0.2757" stop-color="#5C8AE4" stop-opacity="0.2757"/>
<stop offset="0.6158" stop-color="#5C4FC9" stop-opacity="0.6158"/>
<stop offset="0.8672" stop-color="#5C2AB8" stop-opacity="0.8672"/>
<stop offset="1" stop-color="#5C1CB2"/>
</linearGradient>
<linearGradient id="paint2_linear_381_2" x1="50.5217" y1="129.091" x2="90.3215" y2="23.1778" gradientUnits="userSpaceOnUse">
<stop stop-color="#5C1CB2"/>
<stop offset="0.0922" stop-color="#7118B4"/>
<stop offset="0.2837" stop-color="#A90FB9"/>
<stop offset="0.5494" stop-color="#FF00C1"/>
<stop offset="0.6215" stop-color="#FE15AD"/>
<stop offset="0.7714" stop-color="#FA4D7B"/>
<stop offset="0.9846" stop-color="#F4A52A"/>
<stop offset="1" stop-color="#F4AC24"/>
</linearGradient>
<linearGradient id="paint3_linear_381_2" x1="54.1647" y1="124.161" x2="95.9889" y2="12.8598" gradientUnits="userSpaceOnUse">
<stop stop-color="#5C1CB2"/>
<stop offset="0.0922" stop-color="#7118B4"/>
<stop offset="0.2837" stop-color="#A90FB9"/>
<stop offset="0.5494" stop-color="#FF00C1"/>
<stop offset="0.6215" stop-color="#FE15AD"/>
<stop offset="0.7714" stop-color="#FA4D7B"/>
<stop offset="0.9846" stop-color="#F4A52A"/>
<stop offset="1" stop-color="#F4AC24"/>
</linearGradient>
<linearGradient id="paint4_linear_381_2" x1="59.8018" y1="112.893" x2="59.9456" y2="107.5" gradientUnits="userSpaceOnUse">
<stop stop-color="#5CBFFC" stop-opacity="0"/>
<stop offset="0.2757" stop-color="#5C8AE4" stop-opacity="0.2757"/>
<stop offset="0.6158" stop-color="#5C4FC9" stop-opacity="0.6158"/>
<stop offset="0.8672" stop-color="#5C2AB8" stop-opacity="0.8672"/>
<stop offset="1" stop-color="#5C1CB2"/>
</linearGradient>
</defs>
</svg>
